ISO-10303-21;
HEADER;
FILE_DESCRIPTION (( 'STEP AP214' ),
    '1' );
FILE_NAME ('CarriageAnchor.STEP',
    '2024-04-22T20:42:12',
    ( '' ),
    ( '' ),
    'SwSTEP 2.0',
    'SolidWorks 2022',
    '' );
FILE_SCHEMA (( 'AUTOMOTIVE_DESIGN' ));
ENDSEC;

DATA;
#1 = VERTEX_POINT ( 'NONE', #297 ) ;
#2 = CARTESIAN_POINT ( 'NONE',  ( 0.000000000000000000, 5.000000000000000000, 16.49999999999999645 ) ) ;
#3 = EDGE_CURVE ( 'NONE', #468, #187, #157, .T. ) ;
#4 = VECTOR ( 'NONE', #522, 1000.000000000000000 ) ;
#5 = FILL_AREA_STYLE ('',( #822 ) ) ;
#6 = EDGE_CURVE ( 'NONE', #763, #155, #523, .T. ) ;
#7 = SURFACE_STYLE_FILL_AREA ( #356 ) ;
#8 = VERTEX_POINT ( 'NONE', #901 ) ;
#9 = VECTOR ( 'NONE', #196, 1000.000000000000000 ) ;
#10 = ORIENTED_EDGE ( 'NONE', *, *, #861, .F. ) ;
#11 = DIRECTION ( 'NONE',  ( -0.000000000000000000, 1.000000000000000000, -0.000000000000000000 ) ) ;
#12 = ORIENTED_EDGE ( 'NONE', *, *, #693, .T. ) ;
#13 = CIRCLE ( 'NONE', #690, 0.7500000000000006661 ) ;
#14 = ORIENTED_EDGE ( 'NONE', *, *, #287, .T. ) ;
#15 = DIRECTION ( 'NONE',  ( 0.000000000000000000, -1.000000000000000000, 0.000000000000000000 ) ) ;
#16 = ORIENTED_EDGE ( 'NONE', *, *, #469, .F. ) ;
#17 = EDGE_LOOP ( 'NONE', ( #770, #422, #292, #708 ) ) ;
#18 = ORIENTED_EDGE ( 'NONE', *, *, #338, .T. ) ;
#19 = CIRCLE ( 'NONE', #649, 0.7500000000000006661 ) ;
#20 = CARTESIAN_POINT ( 'NONE',  ( 0.000000000000000000, -5.000000000000000888, 25.50000000000000000 ) ) ;
#21 = VERTEX_POINT ( 'NONE', #906 ) ;
#22 = DIRECTION ( 'NONE',  ( -0.000000000000000000, 1.000000000000000000, -0.000000000000000000 ) ) ;
#23 = EDGE_CURVE ( 'NONE', #605, #627, #330, .T. ) ;
#24 = DIRECTION ( 'NONE',  ( 0.000000000000000000, 1.000000000000000000, 0.000000000000000000 ) ) ;
#25 = ORIENTED_EDGE ( 'NONE', *, *, #476, .T. ) ;
#26 = CARTESIAN_POINT ( 'NONE',  ( 0.000000000000000000, -5.000000000000000888, 10.49999999999999467 ) ) ;
#27 = CIRCLE ( 'NONE', #366, 4.050000000000005151 ) ;
#28 = CARTESIAN_POINT ( 'NONE',  ( 0.000000000000000000, 5.000000000000000000, 22.50000000000000000 ) ) ;
#29 = DIRECTION ( 'NONE',  ( 0.000000000000000000, -1.000000000000000000, 0.000000000000000000 ) ) ;
#30 = APPLICATION_CONTEXT ( 'automotive_design' ) ;
#31 = EDGE_LOOP ( 'NONE', ( #890, #466, #85, #588 ) ) ;
#32 = CIRCLE ( 'NONE', #212, 4.049999999999999822 ) ;
#33 = DIRECTION ( 'NONE',  ( 0.000000000000000000, 0.000000000000000000, 1.000000000000000000 ) ) ;
#34 = EDGE_LOOP ( 'NONE', ( #383, #244 ) ) ;
#35 = DIRECTION ( 'NONE',  ( -0.000000000000000000, 1.000000000000000000, -0.000000000000000000 ) ) ;
#36 = DIRECTION ( 'NONE',  ( 1.000000000000000000, 8.673617379884033007E-17, 0.000000000000000000 ) ) ;
#37 = DIRECTION ( 'NONE',  ( 0.000000000000000000, 1.000000000000000000, 0.000000000000000000 ) ) ;
#38 = EDGE_CURVE ( 'NONE', #670, #750, #615, .T. ) ;
#39 = AXIS2_PLACEMENT_3D ( 'NONE', #368, #482, #108 ) ;
#40 = EDGE_CURVE ( 'NONE', #905, #299, #19, .T. ) ;
#41 = CARTESIAN_POINT ( 'NONE',  ( 0.000000000000000000, -5.000000000000000888, 26.25000000000000000 ) ) ;
#42 = DIRECTION ( 'NONE',  ( -0.000000000000000000, 1.000000000000000000, -0.000000000000000000 ) ) ;
#43 = CYLINDRICAL_SURFACE ( 'NONE', #739, 0.7500000000000006661 ) ;
#44 = AXIS2_PLACEMENT_3D ( 'NONE', #872, #58, #581 ) ;
#45 = DIRECTION ( 'NONE',  ( 0.000000000000000000, 1.000000000000000000, 0.000000000000000000 ) ) ;
#46 = VECTOR ( 'NONE', #184, 1000.000000000000000 ) ;
#47 = ADVANCED_FACE ( 'NONE', ( #543, #840, #471 ), #67, .T. ) ;
#48 = DIRECTION ( 'NONE',  ( 0.000000000000000000, -0.000000000000000000, 1.000000000000000000 ) ) ;
#49 = AXIS2_PLACEMENT_3D ( 'NONE', #610, #601, #372 ) ;
#50 = FACE_BOUND ( 'NONE', #540, .T. ) ;
#51 = VERTEX_POINT ( 'NONE', #258 ) ;
#52 = DIRECTION ( 'NONE',  ( -0.000000000000000000, 1.000000000000000000, -0.000000000000000000 ) ) ;
#53 = CIRCLE ( 'NONE', #622, 0.7500000000000006661 ) ;
#54 = CARTESIAN_POINT ( 'NONE',  ( -5.000000000000000888, 5.000000000000000000, 8.999999999999987566 ) ) ;
#55 = ORIENTED_EDGE ( 'NONE', *, *, #648, .F. ) ;
#56 = CARTESIAN_POINT ( 'NONE',  ( 0.000000000000000000, 5.000000000000000000, 16.49999999999999645 ) ) ;
#57 = AXIS2_PLACEMENT_3D ( 'NONE', #733, #659, #948 ) ;
#58 = DIRECTION ( 'NONE',  ( 1.000000000000000000, 8.673617379884033007E-17, 0.000000000000000000 ) ) ;
#59 = CARTESIAN_POINT ( 'NONE',  ( -5.000000000000000888, -4.336808689942017736E-16, 40.25000000000000000 ) ) ;
#60 = EDGE_LOOP ( 'NONE', ( #294, #418, #200, #849 ) ) ;
#61 = DIRECTION ( 'NONE',  ( 0.000000000000000000, 0.000000000000000000, 1.000000000000000000 ) ) ;
#62 = EDGE_CURVE ( 'NONE', #450, #577, #655, .T. ) ;
#63 = ADVANCED_FACE ( 'NONE', ( #558 ), #786, .F. ) ;
#64 = DIRECTION ( 'NONE',  ( 1.000000000000000000, 0.000000000000000000, 0.000000000000000000 ) ) ;
#65 = VERTEX_POINT ( 'NONE', #41 ) ;
#66 = CARTESIAN_POINT ( 'NONE',  ( 5.000000000000000000, 5.000000000000000000, 50.00000000000000000 ) ) ;
#67 = PLANE ( 'NONE',  #39 ) ;
#68 = AXIS2_PLACEMENT_3D ( 'NONE', #785, #314, #553 ) ;
#69 = FACE_BOUND ( 'NONE', #767, .T. ) ;
#70 = ORIENTED_EDGE ( 'NONE', *, *, #880, .T. ) ;
#71 = LINE ( 'NONE', #285, #470 ) ;
#72 = CYLINDRICAL_SURFACE ( 'NONE', #191, 3.049999999999998046 ) ;
#73 = VECTOR ( 'NONE', #216, 1000.000000000000000 ) ;
#74 = EDGE_LOOP ( 'NONE', ( #16, #165 ) ) ;
#75 = ADVANCED_FACE ( 'NONE', ( #637 ), #323, .F. ) ;
#76 = EDGE_CURVE ( 'NONE', #299, #905, #100, .T. ) ;
#77 = FACE_OUTER_BOUND ( 'NONE', #17, .T. ) ;
#78 = ORIENTED_EDGE ( 'NONE', *, *, #76, .F. ) ;
#79 = DIRECTION ( 'NONE',  ( 0.000000000000000000, -1.000000000000000000, 0.000000000000000000 ) ) ;
#80 = FACE_OUTER_BOUND ( 'NONE', #621, .T. ) ;
#81 = ORIENTED_EDGE ( 'NONE', *, *, #949, .F. ) ;
#82 = ORIENTED_EDGE ( 'NONE', *, *, #6, .T. ) ;
#83 = AXIS2_PLACEMENT_3D ( 'NONE', #403, #97, #703 ) ;
#84 = ORIENTED_EDGE ( 'NONE', *, *, #414, .T. ) ;
#85 = ORIENTED_EDGE ( 'NONE', *, *, #62, .T. ) ;
#86 = CIRCLE ( 'NONE', #642, 0.7500000000000006661 ) ;
#87 = VERTEX_POINT ( 'NONE', #945 ) ;
#88 =( NAMED_UNIT ( * ) PLANE_ANGLE_UNIT ( ) SI_UNIT ( $, .RADIAN. ) );
#89 = ORIENTED_EDGE ( 'NONE', *, *, #671, .T. ) ;
#90 = EDGE_CURVE ( 'NONE', #224, #797, #477, .T. ) ;
#91 = VERTEX_POINT ( 'NONE', #574 ) ;
#92 = VECTOR ( 'NONE', #544, 1000.000000000000000 ) ;
#93 = ORIENTED_EDGE ( 'NONE', *, *, #384, .T. ) ;
#94 = FACE_OUTER_BOUND ( 'NONE', #674, .T. ) ;
#95 = VERTEX_POINT ( 'NONE', #781 ) ;
#96 = ADVANCED_FACE ( 'NONE', ( #874, #316, #715 ), #929, .T. ) ;
#97 = DIRECTION ( 'NONE',  ( 0.000000000000000000, 1.000000000000000000, 0.000000000000000000 ) ) ;
#98 = DIRECTION ( 'NONE',  ( 0.000000000000000000, 1.000000000000000000, 0.000000000000000000 ) ) ;
#99 = EDGE_LOOP ( 'NONE', ( #374, #497, #896, #695 ) ) ;
#100 = CIRCLE ( 'NONE', #937, 0.7500000000000006661 ) ;
#101 = DIRECTION ( 'NONE',  ( 0.000000000000000000, 0.000000000000000000, 1.000000000000000000 ) ) ;
#102 = DIRECTION ( 'NONE',  ( 0.000000000000000000, 0.000000000000000000, 1.000000000000000000 ) ) ;
#103 = CARTESIAN_POINT ( 'NONE',  ( 9.184850993605154600E-17, -16.00000000000001066, 27.74999999999999645 ) ) ;
#104 = ORIENTED_EDGE ( 'NONE', *, *, #305, .F. ) ;
#105 = COLOUR_RGB ( '',0.7921568627450980005, 0.8196078431372548767, 0.9333333333333333481 ) ;
#106 = CARTESIAN_POINT ( 'NONE',  ( -5.000000000000000888, -4.336808689942017736E-16, -0.6000000000000137446 ) ) ;
#107 = EDGE_LOOP ( 'NONE', ( #380, #114 ) ) ;
#108 = DIRECTION ( 'NONE',  ( -8.673617379884034239E-17, 1.000000000000000000, 0.000000000000000000 ) ) ;
#109 = LINE ( 'NONE', #630, #542 ) ;
#110 = LINE ( 'NONE', #926, #758 ) ;
#111 = LINE ( 'NONE', #411, #580 ) ;
#112 = DIRECTION ( 'NONE',  ( -0.000000000000000000, 1.000000000000000000, -0.000000000000000000 ) ) ;
#113 = DIRECTION ( 'NONE',  ( 0.000000000000000000, 0.000000000000000000, 1.000000000000000000 ) ) ;
#114 = ORIENTED_EDGE ( 'NONE', *, *, #133, .F. ) ;
#115 = CARTESIAN_POINT ( 'NONE',  ( 4.000000000000003553, -3.049999999999997602, 40.25000000000000000 ) ) ;
#116 = ORIENTED_EDGE ( 'NONE', *, *, #765, .F. ) ;
#117 = ADVANCED_FACE ( 'NONE', ( #914 ), #349, .T. ) ;
#118 = VECTOR ( 'NONE', #921, 1000.000000000000000 ) ;
#119 = DIRECTION ( 'NONE',  ( -0.000000000000000000, 1.000000000000000000, -0.000000000000000000 ) ) ;
#120 = ORIENTED_EDGE ( 'NONE', *, *, #908, .F. ) ;
#121 = CIRCLE ( 'NONE', #249, 3.049999999999999822 ) ;
#122 = DIRECTION ( 'NONE',  ( -1.000000000000000000, -8.673617379884034239E-17, -0.000000000000000000 ) ) ;
#123 = CARTESIAN_POINT ( 'NONE',  ( 9.184850993605150903E-17, -5.000000000000000888, 9.749999999999994671 ) ) ;
#124 = DIRECTION ( 'NONE',  ( 1.000000000000000000, 0.000000000000000000, 0.000000000000000000 ) ) ;
#125 = CARTESIAN_POINT ( 'NONE',  ( 9.184850993605150903E-17, -5.000000000000000888, 15.74999999999999645 ) ) ;
#126 = CIRCLE ( 'NONE', #938, 0.7500000000000006661 ) ;
#127 = UNCERTAINTY_MEASURE_WITH_UNIT (LENGTH_MEASURE( 1.000000000000000082E-05 ), #518, 'distance_accuracy_value', 'NONE');
#128 = CARTESIAN_POINT ( 'NONE',  ( 0.000000000000000000, 5.000000000000000000, 19.49999999999999645 ) ) ;
#129 = APPLICATION_PROTOCOL_DEFINITION ( 'draft international standard', 'automotive_design', 1998, #30 ) ;
#130 = ORIENTED_EDGE ( 'NONE', *, *, #861, .T. ) ;
#131 = CARTESIAN_POINT ( 'NONE',  ( -5.000000000000000000, -5.000000000000000000, 8.999999999999987566 ) ) ;
#132 = AXIS2_PLACEMENT_3D ( 'NONE', #214, #678, #293 ) ;
#133 = EDGE_CURVE ( 'NONE', #965, #658, #201, .T. ) ;
#134 = CARTESIAN_POINT ( 'NONE',  ( 0.000000000000000000, -5.000000000000000888, 25.50000000000000000 ) ) ;
#135 = ORIENTED_EDGE ( 'NONE', *, *, #424, .T. ) ;
#136 = EDGE_CURVE ( 'NONE', #289, #801, #272, .T. ) ;
#137 = VECTOR ( 'NONE', #112, 1000.000000000000000 ) ;
#138 = DIRECTION ( 'NONE',  ( -0.000000000000000000, 1.000000000000000000, -0.000000000000000000 ) ) ;
#139 = ORIENTED_EDGE ( 'NONE', *, *, #723, .F. ) ;
#140 = DIRECTION ( 'NONE',  ( 0.000000000000000000, 1.000000000000000000, 0.000000000000000000 ) ) ;
#141 = CARTESIAN_POINT ( 'NONE',  ( 4.000000000000003553, 3.469446951953617147E-16, 40.25000000000000000 ) ) ;
#142 = EDGE_LOOP ( 'NONE', ( #737, #302, #902, #568 ) ) ;
#143 = CARTESIAN_POINT ( 'NONE',  ( 0.000000000000000000, -16.00000000000001066, 25.50000000000000000 ) ) ;
#144 = EDGE_CURVE ( 'NONE', #689, #807, #111, .T. ) ;
#145 = ADVANCED_FACE ( 'NONE', ( #397 ), #198, .F. ) ;
#146 = ORIENTED_EDGE ( 'NONE', *, *, #499, .F. ) ;
#147 = VECTOR ( 'NONE', #566, 1000.000000000000000 ) ;
#148 = CARTESIAN_POINT ( 'NONE',  ( 9.184850993605150903E-17, 5.000000000000000000, 15.74999999999999645 ) ) ;
#149 = ORIENTED_EDGE ( 'NONE', *, *, #398, .T. ) ;
#150 = PLANE ( 'NONE',  #291 ) ;
#151 = LINE ( 'NONE', #749, #298 ) ;
#152 = EDGE_LOOP ( 'NONE', ( #845, #78 ) ) ;
#153 = AXIS2_PLACEMENT_3D ( 'NONE', #853, #857, #915 ) ;
#154 = EDGE_LOOP ( 'NONE', ( #459, #176, #93, #663 ) ) ;
#155 = VERTEX_POINT ( 'NONE', #125 ) ;
#156 =( LENGTH_UNIT ( ) NAMED_UNIT ( * ) SI_UNIT ( .MILLI., .METRE. ) );
#157 = LINE ( 'NONE', #607, #444 ) ;
#158 = EDGE_LOOP ( 'NONE', ( #120, #311, #860, #139 ) ) ;
#159 = CARTESIAN_POINT ( 'NONE',  ( 0.000000000000000000, -5.000000000000000888, 28.49999999999999645 ) ) ;
#160 = ORIENTED_EDGE ( 'NONE', *, *, #476, .F. ) ;
#161 = CIRCLE ( 'NONE', #748, 0.7500000000000006661 ) ;
#162 = EDGE_LOOP ( 'NONE', ( #149, #401, #764, #382 ) ) ;
#163 = EDGE_CURVE ( 'NONE', #697, #756, #202, .T. ) ;
#164 = CARTESIAN_POINT ( 'NONE',  ( 0.000000000000000000, -5.000000000000000888, 22.50000000000000000 ) ) ;
#165 = ORIENTED_EDGE ( 'NONE', *, *, #414, .F. ) ;
#166 = DIRECTION ( 'NONE',  ( 0.000000000000000000, 0.000000000000000000, 1.000000000000000000 ) ) ;
#167 = DIRECTION ( 'NONE',  ( -0.000000000000000000, 1.000000000000000000, -0.000000000000000000 ) ) ;
#168 = CIRCLE ( 'NONE', #798, 3.049999999999999822 ) ;
#169 = ORIENTED_EDGE ( 'NONE', *, *, #897, .F. ) ;
#170 = FACE_OUTER_BOUND ( 'NONE', #31, .T. ) ;
#171 = EDGE_LOOP ( 'NONE', ( #70, #935 ) ) ;
#172 = DIRECTION ( 'NONE',  ( 1.000000000000000000, 0.000000000000000000, 0.000000000000000000 ) ) ;
#173 = CARTESIAN_POINT ( 'NONE',  ( -5.000000000000000888, 3.049999999999999378, -0.6000000000000134115 ) ) ;
#174 = VERTEX_POINT ( 'NONE', #699 ) ;
#175 = DIRECTION ( 'NONE',  ( -0.000000000000000000, 1.000000000000000000, -0.000000000000000000 ) ) ;
#176 = ORIENTED_EDGE ( 'NONE', *, *, #262, .T. ) ;
#177 = EDGE_CURVE ( 'NONE', #750, #670, #903, .T. ) ;
#178 = CARTESIAN_POINT ( 'NONE',  ( -5.000000000000000888, -3.049999999999998490, 40.25000000000000000 ) ) ;
#179 = EDGE_CURVE ( 'NONE', #801, #284, #714, .T. ) ;
#180 = LINE ( 'NONE', #925, #319 ) ;
#181 = CARTESIAN_POINT ( 'NONE',  ( 4.000000000000003553, 3.469446951953617147E-16, 40.25000000000000000 ) ) ;
#182 = AXIS2_PLACEMENT_3D ( 'NONE', #181, #331, #251 ) ;
#183 = DIRECTION ( 'NONE',  ( 0.000000000000000000, -1.000000000000000000, 0.000000000000000000 ) ) ;
#184 = DIRECTION ( 'NONE',  ( -1.000000000000000000, 0.000000000000000000, 0.000000000000000000 ) ) ;
#185 = VECTOR ( 'NONE', #800, 1000.000000000000000 ) ;
#186 = CARTESIAN_POINT ( 'NONE',  ( 0.000000000000000000, -16.00000000000001066, 11.24999999999999645 ) ) ;
#187 = VERTEX_POINT ( 'NONE', #178 ) ;
#188 = PRODUCT_DEFINITION_CONTEXT ( 'detailed design', #941, 'design' ) ;
#189 = EDGE_CURVE ( 'NONE', #307, #87, #304, .T. ) ;
#190 = DIRECTION ( 'NONE',  ( 0.000000000000000000, -1.000000000000000000, 0.000000000000000000 ) ) ;
#191 = AXIS2_PLACEMENT_3D ( 'NONE', #606, #296, #681 ) ;
#192 = DIRECTION ( 'NONE',  ( 0.000000000000000000, -1.000000000000000000, 0.000000000000000000 ) ) ;
#193 = PRESENTATION_LAYER_ASSIGNMENT (  '', '', ( #586 ) ) ;
#194 = EDGE_CURVE ( 'NONE', #916, #299, #900, .T. ) ;
#195 = VECTOR ( 'NONE', #651, 1000.000000000000000 ) ;
#196 = DIRECTION ( 'NONE',  ( -1.000000000000000000, -0.000000000000000000, -0.000000000000000000 ) ) ;
#197 = CIRCLE ( 'NONE', #263, 0.7500000000000006661 ) ;
#198 = CYLINDRICAL_SURFACE ( 'NONE', #923, 0.7500000000000006661 ) ;
#199 = FACE_OUTER_BOUND ( 'NONE', #99, .T. ) ;
#200 = ORIENTED_EDGE ( 'NONE', *, *, #646, .T. ) ;
#201 = CIRCLE ( 'NONE', #793, 0.7500000000000006661 ) ;
#202 = LINE ( 'NONE', #428, #381 ) ;
#203 = ADVANCED_FACE ( 'NONE', ( #300 ), #72, .F. ) ;
#204 = ADVANCED_FACE ( 'NONE', ( #228 ), #309, .F. ) ;
#205 = CARTESIAN_POINT ( 'NONE',  ( -5.000000000000000888, 5.000000000000000000, 50.00000000000000000 ) ) ;
#206 = ORIENTED_EDGE ( 'NONE', *, *, #177, .T. ) ;
#207 = CARTESIAN_POINT ( 'NONE',  ( 3.999999999999998224, 3.469446951953613203E-16, -0.6000000000000137446 ) ) ;
#208 = CIRCLE ( 'NONE', #44, 3.049999999999998046 ) ;
#209 = LINE ( 'NONE', #576, #147 ) ;
#210 = VERTEX_POINT ( 'NONE', #532 ) ;
#211 = DIRECTION ( 'NONE',  ( 0.000000000000000000, 1.000000000000000000, 0.000000000000000000 ) ) ;
#212 = AXIS2_PLACEMENT_3D ( 'NONE', #295, #884, #140 ) ;
#213 = SURFACE_STYLE_USAGE ( .BOTH. , #456 ) ;
#214 = CARTESIAN_POINT ( 'NONE',  ( -5.000000000000000000, -5.000000000000000000, 8.999999999999987566 ) ) ;
#215 = EDGE_LOOP ( 'NONE', ( #480, #10 ) ) ;
#216 = DIRECTION ( 'NONE',  ( 0.000000000000000000, 0.000000000000000000, 1.000000000000000000 ) ) ;
#217 = EDGE_CURVE ( 'NONE', #753, #777, #126, .T. ) ;
#218 = CARTESIAN_POINT ( 'NONE',  ( 3.999999999999998224, 3.469446951953613203E-16, -0.6000000000000137446 ) ) ;
#219 = ADVANCED_FACE ( 'NONE', ( #234 ), #603, .F. ) ;
#220 = AXIS2_PLACEMENT_3D ( 'NONE', #328, #332, #554 ) ;
#221 = ORIENTED_EDGE ( 'NONE', *, *, #602, .T. ) ;
#222 = AXIS2_PLACEMENT_3D ( 'NONE', #218, #967, #239 ) ;
#223 = CARTESIAN_POINT ( 'NONE',  ( 0.000000000000000000, -16.00000000000001066, 14.24999999999999822 ) ) ;
#224 = VERTEX_POINT ( 'NONE', #539 ) ;
#225 = DIRECTION ( 'NONE',  ( 0.000000000000000000, 1.000000000000000000, 0.000000000000000000 ) ) ;
#226 = CARTESIAN_POINT ( 'NONE',  ( 0.000000000000000000, -5.000000000000000888, 16.49999999999999645 ) ) ;
#227 = VERTEX_POINT ( 'NONE', #454 ) ;
#228 = FACE_OUTER_BOUND ( 'NONE', #883, .T. ) ;
#229 = EDGE_LOOP ( 'NONE', ( #679, #405, #407, #919 ) ) ;
#230 = ADVANCED_FACE ( 'NONE', ( #676 ), #755, .F. ) ;
#231 = DIRECTION ( 'NONE',  ( 0.000000000000000000, 1.000000000000000000, 0.000000000000000000 ) ) ;
#232 = ADVANCED_BREP_SHAPE_REPRESENTATION ( 'CarriageAnchor', ( #238, #837 ), #955 ) ;
#233 = EDGE_LOOP ( 'NONE', ( #326, #310 ) ) ;
#234 = FACE_OUTER_BOUND ( 'NONE', #313, .T. ) ;
#235 = CARTESIAN_POINT ( 'NONE',  ( 0.000000000000000000, 5.000000000000000000, 25.50000000000000000 ) ) ;
#236 = EDGE_CURVE ( 'NONE', #784, #289, #650, .T. ) ;
#237 = VERTEX_POINT ( 'NONE', #894 ) ;
#238 = MANIFOLD_SOLID_BREP ( 'Chamfer1', #950 ) ;
#239 = DIRECTION ( 'NONE',  ( 0.000000000000000000, 1.000000000000000000, 0.000000000000000000 ) ) ;
#240 = ORIENTED_EDGE ( 'NONE', *, *, #252, .T. ) ;
#241 = DIRECTION ( 'NONE',  ( 0.000000000000000000, 0.000000000000000000, 1.000000000000000000 ) ) ;
#242 = DIRECTION ( 'NONE',  ( 0.000000000000000000, 0.000000000000000000, 1.000000000000000000 ) ) ;
#243 = AXIS2_PLACEMENT_3D ( 'NONE', #656, #939, #277 ) ;
#244 = ORIENTED_EDGE ( 'NONE', *, *, #384, .F. ) ;
#245 = CARTESIAN_POINT ( 'NONE',  ( 0.000000000000000000, -5.000000000000000888, 16.49999999999999645 ) ) ;
#246 = EDGE_LOOP ( 'NONE', ( #833, #769 ) ) ;
#247 = DIRECTION ( 'NONE',  ( -0.000000000000000000, 1.000000000000000000, -0.000000000000000000 ) ) ;
#248 = FACE_OUTER_BOUND ( 'NONE', #370, .T. ) ;
#249 = AXIS2_PLACEMENT_3D ( 'NONE', #442, #742, #363 ) ;
#250 = ORIENTED_EDGE ( 'NONE', *, *, #3, .F. ) ;
#251 = DIRECTION ( 'NONE',  ( 0.000000000000000000, 1.000000000000000000, 0.000000000000000000 ) ) ;
#252 = EDGE_CURVE ( 'NONE', #51, #237, #449, .T. ) ;
#253 = DIRECTION ( 'NONE',  ( 0.000000000000000000, 1.000000000000000000, 0.000000000000000000 ) ) ;
#254 = CARTESIAN_POINT ( 'NONE',  ( 4.000000000000003553, 3.469446951953617147E-16, 40.25000000000000000 ) ) ;
#255 = CARTESIAN_POINT ( 'NONE',  ( 0.000000000000000000, -5.000000000000000888, 23.25000000000000000 ) ) ;
#256 = PRESENTATION_LAYER_ASSIGNMENT (  '', '', ( #427 ) ) ;
#257 = AXIS2_PLACEMENT_3D ( 'NONE', #481, #402, #632 ) ;
#258 = CARTESIAN_POINT ( 'NONE',  ( -5.000000000000000888, 5.000000000000000000, 50.00000000000000000 ) ) ;
#259 = CARTESIAN_POINT ( 'NONE',  ( 0.000000000000000000, -5.000000000000000888, 11.24999999999999645 ) ) ;
#260 = CARTESIAN_POINT ( 'NONE',  ( 0.000000000000000000, -16.00000000000001066, 22.50000000000000000 ) ) ;
#261 = VECTOR ( 'NONE', #439, 1000.000000000000000 ) ;
#262 = EDGE_CURVE ( 'NONE', #784, #284, #151, .T. ) ;
#263 = AXIS2_PLACEMENT_3D ( 'NONE', #551, #472, #711 ) ;
#264 = CARTESIAN_POINT ( 'NONE',  ( 4.999999999999999112, 5.000000000000000000, -11.00000000000001243 ) ) ;
#265 = ORIENTED_EDGE ( 'NONE', *, *, #133, .T. ) ;
#266 = ADVANCED_FACE ( 'NONE', ( #80 ), #643, .F. ) ;
#267 = PLANE ( 'NONE',  #590 ) ;
#268 = DIRECTION ( 'NONE',  ( 0.000000000000000000, -1.000000000000000000, 0.000000000000000000 ) ) ;
#269 = CARTESIAN_POINT ( 'NONE',  ( 0.000000000000000000, 5.000000000000000000, 20.24999999999999645 ) ) ;
#270 = DIRECTION ( 'NONE',  ( 0.7071067811865461294, -0.7071067811865489050, 8.659560562354952580E-17 ) ) ;
#271 =( GEOMETRIC_REPRESENTATION_CONTEXT ( 3 ) GLOBAL_UNCERTAINTY_ASSIGNED_CONTEXT ( ( #127 ) ) GLOBAL_UNIT_ASSIGNED_CONTEXT ( ( #518, #365, #936 ) ) REPRESENTATION_CONTEXT ( 'NONE', 'WORKASPACE' ) );
#272 = LINE ( 'NONE', #924, #761 ) ;
#273 = CARTESIAN_POINT ( 'NONE',  ( 4.999999999999999112, 5.000000000000000000, -11.00000000000001243 ) ) ;
#274 = ORIENTED_EDGE ( 'NONE', *, *, #870, .T. ) ;
#275 = ADVANCED_FACE ( 'NONE', ( #170 ), #859, .F. ) ;
#276 = DIRECTION ( 'NONE',  ( 0.000000000000000000, 1.000000000000000000, 0.000000000000000000 ) ) ;
#277 = DIRECTION ( 'NONE',  ( 0.000000000000000000, 0.000000000000000000, -1.000000000000000000 ) ) ;
#278 = CARTESIAN_POINT ( 'NONE',  ( 9.184850993605150903E-17, -5.000000000000000888, 24.74999999999999645 ) ) ;
#279 = EDGE_LOOP ( 'NONE', ( #533, #888 ) ) ;
#280 = LINE ( 'NONE', #131, #73 ) ;
#281 = VECTOR ( 'NONE', #772, 1000.000000000000000 ) ;
#282 = UNCERTAINTY_MEASURE_WITH_UNIT (LENGTH_MEASURE( 1.000000000000000082E-05 ), #344, 'distance_accuracy_value', 'NONE');
#283 = FACE_BOUND ( 'NONE', #593, .T. ) ;
#284 = VERTEX_POINT ( 'NONE', #922 ) ;
#285 = CARTESIAN_POINT ( 'NONE',  ( 3.999999999999998224, -3.049999999999999378, -0.6000000000000134115 ) ) ;
#286 = AXIS2_PLACEMENT_3D ( 'NONE', #20, #620, #547 ) ;
#287 = EDGE_CURVE ( 'NONE', #658, #750, #788, .T. ) ;
#288 = FACE_BOUND ( 'NONE', #644, .T. ) ;
#289 = VERTEX_POINT ( 'NONE', #255 ) ;
#290 = DIRECTION ( 'NONE',  ( 1.000000000000000000, 8.673617379884033007E-17, 0.000000000000000000 ) ) ;
#291 = AXIS2_PLACEMENT_3D ( 'NONE', #453, #747, #589 ) ;
#292 = ORIENTED_EDGE ( 'NONE', *, *, #782, .F. ) ;
#293 = DIRECTION ( 'NONE',  ( 0.000000000000000000, -0.000000000000000000, -1.000000000000000000 ) ) ;
#294 = ORIENTED_EDGE ( 'NONE', *, *, #706, .F. ) ;
#295 = CARTESIAN_POINT ( 'NONE',  ( 4.999999999999999112, 4.336808689942017736E-16, 40.25000000000000000 ) ) ;
#296 = DIRECTION ( 'NONE',  ( -1.000000000000000000, -8.673617379884034239E-17, -0.000000000000000000 ) ) ;
#297 = CARTESIAN_POINT ( 'NONE',  ( 4.999999999999999112, -4.049999999999998046, 40.25000000000000000 ) ) ;
#298 = VECTOR ( 'NONE', #528, 1000.000000000000000 ) ;
#299 = VERTEX_POINT ( 'NONE', #335 ) ;
#300 = FACE_OUTER_BOUND ( 'NONE', #534, .T. ) ;
#301 = AXIS2_PLACEMENT_3D ( 'NONE', #730, #347, #865 ) ;
#302 = ORIENTED_EDGE ( 'NONE', *, *, #908, .T. ) ;
#303 = ORIENTED_EDGE ( 'NONE', *, *, #489, .F. ) ;
#304 = LINE ( 'NONE', #904, #359 ) ;
#305 = EDGE_CURVE ( 'NONE', #91, #689, #110, .T. ) ;
#306 = CIRCLE ( 'NONE', #339, 0.7500000000000006661 ) ;
#307 = VERTEX_POINT ( 'NONE', #556 ) ;
#308 = ORIENTED_EDGE ( 'NONE', *, *, #557, .T. ) ;
#309 = CYLINDRICAL_SURFACE ( 'NONE', #49, 0.7500000000000006661 ) ;
#310 = ORIENTED_EDGE ( 'NONE', *, *, #38, .F. ) ;
#311 = ORIENTED_EDGE ( 'NONE', *, *, #498, .F. ) ;
#312 = DIRECTION ( 'NONE',  ( 0.000000000000000000, 0.000000000000000000, 1.000000000000000000 ) ) ;
#313 = EDGE_LOOP ( 'NONE', ( #473, #169, #839, #762 ) ) ;
#314 = DIRECTION ( 'NONE',  ( -0.000000000000000000, 1.000000000000000000, -0.000000000000000000 ) ) ;
#315 = ORIENTED_EDGE ( 'NONE', *, *, #76, .T. ) ;
#316 = FACE_BOUND ( 'NONE', #376, .T. ) ;
#317 = DIRECTION ( 'NONE',  ( -1.000000000000000000, -8.673617379884034239E-17, -0.000000000000000000 ) ) ;
#318 = EDGE_CURVE ( 'NONE', #227, #174, #776, .T. ) ;
#319 = VECTOR ( 'NONE', #42, 1000.000000000000000 ) ;
#320 = EDGE_LOOP ( 'NONE', ( #824, #741, #506, #878 ) ) ;
#321 = DIRECTION ( 'NONE',  ( -1.000000000000000000, -8.673617379884034239E-17, -0.000000000000000000 ) ) ;
#322 = EDGE_LOOP ( 'NONE', ( #899, #89, #526, #18 ) ) ;
#323 = CYLINDRICAL_SURFACE ( 'NONE', #636, 0.7500000000000006661 ) ;
#324 = FACE_OUTER_BOUND ( 'NONE', #158, .T. ) ;
#325 = VECTOR ( 'NONE', #317, 1000.000000000000000 ) ;
#326 = ORIENTED_EDGE ( 'NONE', *, *, #177, .F. ) ;
#327 = CARTESIAN_POINT ( 'NONE',  ( 0.000000000000000000, -16.00000000000001066, 28.49999999999999645 ) ) ;
#328 = CARTESIAN_POINT ( 'NONE',  ( -5.000000000000000888, 5.000000000000000000, 8.999999999999987566 ) ) ;
#329 = DIRECTION ( 'NONE',  ( 0.000000000000000000, 1.000000000000000000, 0.000000000000000000 ) ) ;
#330 = CIRCLE ( 'NONE', #698, 0.7500000000000006661 ) ;
#331 = DIRECTION ( 'NONE',  ( 1.000000000000000000, 8.673617379884033007E-17, 0.000000000000000000 ) ) ;
#332 = DIRECTION ( 'NONE',  ( -1.000000000000000000, -8.673617379884034239E-17, 0.000000000000000000 ) ) ;
#333 = DIRECTION ( 'NONE',  ( 0.7071067811865462405, 0.7071067811865489050, 0.000000000000000000 ) ) ;
#334 = CIRCLE ( 'NONE', #570, 3.049999999999998046 ) ;
#335 = CARTESIAN_POINT ( 'NONE',  ( 9.184850993605150903E-17, 5.000000000000000000, 24.74999999999999645 ) ) ;
#336 = CIRCLE ( 'NONE', #433, 0.7500000000000006661 ) ;
#337 = EDGE_LOOP ( 'NONE', ( #308, #303, #160, #631 ) ) ;
#338 = EDGE_CURVE ( 'NONE', #756, #452, #406, .T. ) ;
#339 = AXIS2_PLACEMENT_3D ( 'NONE', #421, #952, #341 ) ;
#340 = FACE_OUTER_BOUND ( 'NONE', #320, .T. ) ;
#341 = DIRECTION ( 'NONE',  ( 0.000000000000000000, 0.000000000000000000, -1.000000000000000000 ) ) ;
#342 = ORIENTED_EDGE ( 'NONE', *, *, #897, .T. ) ;
#343 = LINE ( 'NONE', #350, #195 ) ;
#344 =( LENGTH_UNIT ( ) NAMED_UNIT ( * ) SI_UNIT ( .MILLI., .METRE. ) );
#345 = COLOUR_RGB ( '',0.7921568627450980005, 0.8196078431372548767, 0.9333333333333333481 ) ;
#346 = ADVANCED_FACE ( 'NONE', ( #854 ), #707, .F. ) ;
#347 = DIRECTION ( 'NONE',  ( 0.000000000000000000, -1.000000000000000000, 0.000000000000000000 ) ) ;
#348 = ADVANCED_FACE ( 'NONE', ( #712 ), #43, .F. ) ;
#349 = PLANE ( 'NONE',  #478 ) ;
#350 = CARTESIAN_POINT ( 'NONE',  ( -5.000000000000000888, 5.000000000000000000, 8.999999999999987566 ) ) ;
#351 = DIRECTION ( 'NONE',  ( -0.000000000000000000, 1.000000000000000000, -0.000000000000000000 ) ) ;
#352 = ORIENTED_EDGE ( 'NONE', *, *, #469, .T. ) ;
#353 = CARTESIAN_POINT ( 'NONE',  ( 9.184850993605154600E-17, -16.00000000000001066, 12.74999999999999822 ) ) ;
#354 = AXIS2_PLACEMENT_3D ( 'NONE', #260, #792, #33 ) ;
#355 = CARTESIAN_POINT ( 'NONE',  ( 0.000000000000000000, -16.00000000000001066, 13.49999999999999822 ) ) ;
#356 = FILL_AREA_STYLE ('',( #435 ) ) ;
#357 = ORIENTED_EDGE ( 'NONE', *, *, #910, .F. ) ;
#358 = CARTESIAN_POINT ( 'NONE',  ( 9.184850993605150903E-17, -5.000000000000000888, 21.75000000000000000 ) ) ;
#359 = VECTOR ( 'NONE', #961, 1000.000000000000000 ) ;
#360 = EDGE_CURVE ( 'NONE', #187, #536, #816, .T. ) ;
#361 = CARTESIAN_POINT ( 'NONE',  ( 0.000000000000000000, 5.000000000000000000, 14.24999999999999822 ) ) ;
#362 = EDGE_LOOP ( 'NONE', ( #820, #836 ) ) ;
#363 = DIRECTION ( 'NONE',  ( 0.000000000000000000, 1.000000000000000000, 0.000000000000000000 ) ) ;
#364 = DIRECTION ( 'NONE',  ( 0.000000000000000000, -1.000000000000000000, 0.000000000000000000 ) ) ;
#365 =( NAMED_UNIT ( * ) PLANE_ANGLE_UNIT ( ) SI_UNIT ( $, .RADIAN. ) );
#366 = AXIS2_PLACEMENT_3D ( 'NONE', #494, #868, #796 ) ;
#367 = ADVANCED_FACE ( 'NONE', ( #94 ), #626, .F. ) ;
#368 = CARTESIAN_POINT ( 'NONE',  ( 4.999999999999999112, 5.000000000000000000, 8.999999999999987566 ) ) ;
#369 = DIRECTION ( 'NONE',  ( -0.000000000000000000, 1.000000000000000000, -0.000000000000000000 ) ) ;
#370 = EDGE_LOOP ( 'NONE', ( #759, #520, #953, #892 ) ) ;
#371 = CARTESIAN_POINT ( 'NONE',  ( 0.000000000000000000, -5.000000000000000888, 29.25000000000000000 ) ) ;
#372 = DIRECTION ( 'NONE',  ( 0.000000000000000000, 0.000000000000000000, 1.000000000000000000 ) ) ;
#373 = AXIS2_PLACEMENT_3D ( 'NONE', #512, #812, #79 ) ;
#374 = ORIENTED_EDGE ( 'NONE', *, *, #765, .T. ) ;
#375 = FACE_BOUND ( 'NONE', #246, .T. ) ;
#376 = EDGE_LOOP ( 'NONE', ( #391, #81 ) ) ;
#377 = CARTESIAN_POINT ( 'NONE',  ( -5.000000000000000888, 5.000000000000000000, -11.00000000000001243 ) ) ;
#378 = AXIS2_PLACEMENT_3D ( 'NONE', #717, #561, #486 ) ;
#379 = PRESENTATION_STYLE_ASSIGNMENT (( #595 ) ) ;
#380 = ORIENTED_EDGE ( 'NONE', *, *, #398, .F. ) ;
#381 = VECTOR ( 'NONE', #774, 1000.000000000000000 ) ;
#382 = ORIENTED_EDGE ( 'NONE', *, *, #287, .F. ) ;
#383 = ORIENTED_EDGE ( 'NONE', *, *, #179, .F. ) ;
#384 = EDGE_CURVE ( 'NONE', #284, #801, #336, .T. ) ;
#385 =( NAMED_UNIT ( * ) SI_UNIT ( $, .STERADIAN. ) SOLID_ANGLE_UNIT ( ) );
#386 = EDGE_CURVE ( 'NONE', #155, #763, #464, .T. ) ;
#387 = ORIENTED_EDGE ( 'NONE', *, *, #318, .T. ) ;
#388 = VECTOR ( 'NONE', #138, 1000.000000000000000 ) ;
#389 = DIRECTION ( 'NONE',  ( 0.000000000000000000, -1.000000000000000000, 0.000000000000000000 ) ) ;
#390 = ORIENTED_EDGE ( 'NONE', *, *, #846, .F. ) ;
#391 = ORIENTED_EDGE ( 'NONE', *, *, #360, .F. ) ;
#392 = AXIS2_PLACEMENT_3D ( 'NONE', #254, #290, #437 ) ;
#393 = ORIENTED_EDGE ( 'NONE', *, *, #194, .F. ) ;
#394 = ORIENTED_EDGE ( 'NONE', *, *, #6, .F. ) ;
#395 = DIRECTION ( 'NONE',  ( 0.000000000000000000, -1.000000000000000000, 0.000000000000000000 ) ) ;
#396 = VERTEX_POINT ( 'NONE', #492 ) ;
#397 = FACE_OUTER_BOUND ( 'NONE', #789, .T. ) ;
#398 = EDGE_CURVE ( 'NONE', #658, #965, #86, .T. ) ;
#399 = AXIS2_PLACEMENT_3D ( 'NONE', #408, #247, #728 ) ;
#400 = LINE ( 'NONE', #704, #325 ) ;
#401 = ORIENTED_EDGE ( 'NONE', *, *, #611, .T. ) ;
#402 = DIRECTION ( 'NONE',  ( -1.000000000000000000, -8.673617379884034239E-17, 0.000000000000000000 ) ) ;
#403 = CARTESIAN_POINT ( 'NONE',  ( 0.000000000000000000, 5.000000000000000000, 10.49999999999999467 ) ) ;
#404 = DIRECTION ( 'NONE',  ( -1.000000000000000000, -8.673617379884034239E-17, -0.000000000000000000 ) ) ;
#405 = ORIENTED_EDGE ( 'NONE', *, *, #90, .T. ) ;
#406 = LINE ( 'NONE', #264, #460 ) ;
#407 = ORIENTED_EDGE ( 'NONE', *, *, #529, .T. ) ;
#408 = CARTESIAN_POINT ( 'NONE',  ( 0.000000000000000000, -16.00000000000001066, 25.50000000000000000 ) ) ;
#409 = CYLINDRICAL_SURFACE ( 'NONE', #153, 3.049999999999999822 ) ;
#410 = DIRECTION ( 'NONE',  ( 0.000000000000000000, 1.000000000000000000, 0.000000000000000000 ) ) ;
#411 = CARTESIAN_POINT ( 'NONE',  ( 5.000000000000000000, 5.000000000000000000, 50.00000000000000000 ) ) ;
#412 = CARTESIAN_POINT ( 'NONE',  ( 4.999999999999999112, 4.336808689942017736E-16, 40.25000000000000000 ) ) ;
#413 = DIRECTION ( 'NONE',  ( 1.000000000000000000, -0.000000000000000000, -0.000000000000000000 ) ) ;
#414 = EDGE_CURVE ( 'NONE', #916, #65, #573, .T. ) ;
#415 = AXIS2_PLACEMENT_3D ( 'NONE', #653, #351, #866 ) ;
#416 = DIRECTION ( 'NONE',  ( 0.000000000000000000, -1.000000000000000000, 0.000000000000000000 ) ) ;
#417 = CIRCLE ( 'NONE', #957, 3.049999999999998046 ) ;
#418 = ORIENTED_EDGE ( 'NONE', *, *, #565, .T. ) ;
#419 = AXIS2_PLACEMENT_3D ( 'NONE', #56, #827, #879 ) ;
#420 = CARTESIAN_POINT ( 'NONE',  ( -5.000000000000000888, -3.050000000000000266, -0.6000000000000137446 ) ) ;
#421 = CARTESIAN_POINT ( 'NONE',  ( 0.000000000000000000, -5.000000000000000888, 13.49999999999999822 ) ) ;
#422 = ORIENTED_EDGE ( 'NONE', *, *, #617, .F. ) ;
#423 = DIRECTION ( 'NONE',  ( 0.000000000000000000, 0.000000000000000000, 1.000000000000000000 ) ) ;
#424 = EDGE_CURVE ( 'NONE', #8, #530, #918, .T. ) ;
#425 = CYLINDRICAL_SURFACE ( 'NONE', #913, 0.7500000000000006661 ) ;
#426 =( NAMED_UNIT ( * ) SI_UNIT ( $, .STERADIAN. ) SOLID_ANGLE_UNIT ( ) );
#427 = STYLED_ITEM ( 'NONE', ( #379 ), #238 ) ;
#428 = CARTESIAN_POINT ( 'NONE',  ( -5.000000000000000888, 5.000000000000000000, -11.00000000000001243 ) ) ;
#429 = FACE_OUTER_BOUND ( 'NONE', #337, .T. ) ;
#430 = PRODUCT_CONTEXT ( 'NONE', #30, 'mechanical' ) ;
#431 = ORIENTED_EDGE ( 'NONE', *, *, #718, .F. ) ;
#432 = FACE_OUTER_BOUND ( 'NONE', #811, .T. ) ;
#433 = AXIS2_PLACEMENT_3D ( 'NONE', #563, #37, #863 ) ;
#434 = LINE ( 'NONE', #720, #927 ) ;
#435 = FILL_AREA_STYLE_COLOUR ( '', #105 ) ;
#436 = ORIENTED_EDGE ( 'NONE', *, *, #940, .T. ) ;
#437 = DIRECTION ( 'NONE',  ( 0.000000000000000000, 1.000000000000000000, 0.000000000000000000 ) ) ;
#438 = ADVANCED_FACE ( 'NONE', ( #474 ), #768, .F. ) ;
#439 = DIRECTION ( 'NONE',  ( -0.000000000000000000, 1.000000000000000000, -0.000000000000000000 ) ) ;
#440 = PRODUCT ( 'CarriageAnchor', 'CarriageAnchor', '', ( #430 ) ) ;
#441 = EDGE_LOOP ( 'NONE', ( #390, #912 ) ) ;
#442 = CARTESIAN_POINT ( 'NONE',  ( 3.999999999999998224, 3.469446951953613203E-16, -0.6000000000000137446 ) ) ;
#443 = EDGE_CURVE ( 'NONE', #701, #530, #867, .T. ) ;
#444 = VECTOR ( 'NONE', #604, 1000.000000000000000 ) ;
#445 = CARTESIAN_POINT ( 'NONE',  ( 0.000000000000000000, -16.00000000000001066, 16.49999999999999645 ) ) ;
#446 = EDGE_LOOP ( 'NONE', ( #25, #959, #104, #475 ) ) ;
#447 = FACE_OUTER_BOUND ( 'NONE', #322, .T. ) ;
#448 = PRODUCT_DEFINITION_FORMATION_WITH_SPECIFIED_SOURCE ( 'ANY', '', #440, .NOT_KNOWN. ) ;
#449 = LINE ( 'NONE', #691, #4 ) ;
#450 = VERTEX_POINT ( 'NONE', #882 ) ;
#451 = FACE_BOUND ( 'NONE', #74, .T. ) ;
#452 = VERTEX_POINT ( 'NONE', #273 ) ;
#453 = CARTESIAN_POINT ( 'NONE',  ( 0.000000000000000000, 0.000000000000000000, -11.00000000000001243 ) ) ;
#454 = CARTESIAN_POINT ( 'NONE',  ( 4.999999999999999112, -4.050000000000003375, -0.6000000000000133005 ) ) ;
#455 = CIRCLE ( 'NONE', #917, 0.7500000000000006661 ) ;
#456 = SURFACE_SIDE_STYLE ('',( #7 ) ) ;
#457 = DIRECTION ( 'NONE',  ( 0.000000000000000000, 0.000000000000000000, -1.000000000000000000 ) ) ;
#458 = ADVANCED_FACE ( 'NONE', ( #199 ), #810, .F. ) ;
#459 = ORIENTED_EDGE ( 'NONE', *, *, #858, .T. ) ;
#460 = VECTOR ( 'NONE', #413, 1000.000000000000000 ) ;
#461 = CARTESIAN_POINT ( 'NONE',  ( 0.000000000000000000, 5.000000000000000000, 10.49999999999999467 ) ) ;
#462 = ORIENTED_EDGE ( 'NONE', *, *, #706, .T. ) ;
#463 = SURFACE_SIDE_STYLE ('',( #669 ) ) ;
#464 = CIRCLE ( 'NONE', #496, 0.7500000000000006661 ) ;
#465 = ORIENTED_EDGE ( 'NONE', *, *, #194, .T. ) ;
#466 = ORIENTED_EDGE ( 'NONE', *, *, #910, .T. ) ;
#467 = CARTESIAN_POINT ( 'NONE',  ( 9.184850993605154600E-17, -16.00000000000001066, 24.74999999999999645 ) ) ;
#468 = VERTEX_POINT ( 'NONE', #115 ) ;
#469 = EDGE_CURVE ( 'NONE', #65, #916, #881, .T. ) ;
#470 = VECTOR ( 'NONE', #907, 1000.000000000000000 ) ;
#471 = FACE_OUTER_BOUND ( 'NONE', #446, .T. ) ;
#472 = DIRECTION ( 'NONE',  ( 0.000000000000000000, 1.000000000000000000, 0.000000000000000000 ) ) ;
#473 = ORIENTED_EDGE ( 'NONE', *, *, #870, .F. ) ;
#474 = FACE_OUTER_BOUND ( 'NONE', #142, .T. ) ;
#475 = ORIENTED_EDGE ( 'NONE', *, *, #507, .F. ) ;
#476 = EDGE_CURVE ( 'NONE', #452, #807, #209, .T. ) ;
#477 = LINE ( 'NONE', #640, #661 ) ;
#478 = AXIS2_PLACEMENT_3D ( 'NONE', #578, #856, #172 ) ;
#479 = CYLINDRICAL_SURFACE ( 'NONE', #885, 3.049999999999998046 ) ;
#480 = ORIENTED_EDGE ( 'NONE', *, *, #804, .F. ) ;
#481 = CARTESIAN_POINT ( 'NONE',  ( -5.000000000000000888, -4.336808689942017736E-16, 40.25000000000000000 ) ) ;
#482 = DIRECTION ( 'NONE',  ( 1.000000000000000000, 8.673617379884034239E-17, -0.000000000000000000 ) ) ;
#483 = CARTESIAN_POINT ( 'NONE',  ( 9.184850993605150903E-17, 5.000000000000000000, 9.749999999999994671 ) ) ;
#484 = AXIS2_PLACEMENT_3D ( 'NONE', #946, #122, #501 ) ;
#485 = APPLICATION_PROTOCOL_DEFINITION ( 'draft international standard', 'automotive_design', 1998, #941 ) ;
#486 = DIRECTION ( 'NONE',  ( 0.000000000000000000, 0.000000000000000000, 1.000000000000000000 ) ) ;
#487 = DIRECTION ( 'NONE',  ( 0.000000000000000000, 0.000000000000000000, -1.000000000000000000 ) ) ;
#488 = CARTESIAN_POINT ( 'NONE',  ( 4.999999999999999112, -5.000000000000000000, -11.00000000000001243 ) ) ;
#489 = EDGE_CURVE ( 'NONE', #807, #51, #876, .T. ) ;
#490 = DIRECTION ( 'NONE',  ( -0.000000000000000000, 1.000000000000000000, -0.000000000000000000 ) ) ;
#491 = ORIENTED_EDGE ( 'NONE', *, *, #687, .F. ) ;
#492 = CARTESIAN_POINT ( 'NONE',  ( 3.999999999999998224, 3.050000000000000711, -0.6000000000000134115 ) ) ;
#493 = CYLINDRICAL_SURFACE ( 'NONE', #415, 0.7500000000000006661 ) ;
#494 = CARTESIAN_POINT ( 'NONE',  ( 4.999999999999999112, 4.336808689942017736E-16, -0.6000000000000137446 ) ) ;
#495 = CARTESIAN_POINT ( 'NONE',  ( 0.000000000000000000, -5.000000000000000888, 19.49999999999999645 ) ) ;
#496 = AXIS2_PLACEMENT_3D ( 'NONE', #245, #190, #702 ) ;
#497 = ORIENTED_EDGE ( 'NONE', *, *, #734, .T. ) ;
#498 = EDGE_CURVE ( 'NONE', #307, #468, #208, .T. ) ;
#499 = EDGE_CURVE ( 'NONE', #174, #227, #27, .T. ) ;
#500 = AXIS2_PLACEMENT_3D ( 'NONE', #889, #225, #242 ) ;
#501 = DIRECTION ( 'NONE',  ( 0.000000000000000000, -1.000000000000000000, 0.000000000000000000 ) ) ;
#502 = CARTESIAN_POINT ( 'NONE',  ( 0.000000000000000000, -16.00000000000001066, 16.49999999999999645 ) ) ;
#503 = FACE_BOUND ( 'NONE', #152, .T. ) ;
#504 = CARTESIAN_POINT ( 'NONE',  ( 0.000000000000000000, -16.00000000000001066, 26.25000000000000000 ) ) ;
#505 = VERTEX_POINT ( 'NONE', #794 ) ;
#506 = ORIENTED_EDGE ( 'NONE', *, *, #23, .T. ) ;
#507 = EDGE_CURVE ( 'NONE', #452, #91, #434, .T. ) ;
#508 = CARTESIAN_POINT ( 'NONE',  ( 0.000000000000000000, -5.000000000000000888, 14.24999999999999822 ) ) ;
#509 = DIRECTION ( 'NONE',  ( 0.000000000000000000, 0.000000000000000000, -1.000000000000000000 ) ) ;
#510 = SHAPE_DEFINITION_REPRESENTATION ( #731, #232 ) ;
#511 = ORIENTED_EDGE ( 'NONE', *, *, #529, .F. ) ;
#512 = CARTESIAN_POINT ( 'NONE',  ( -5.000000000000000888, -4.336808689942017736E-16, -0.6000000000000137446 ) ) ;
#513 = AXIS2_PLACEMENT_3D ( 'NONE', #445, #369, #591 ) ;
#514 = ADVANCED_FACE ( 'NONE', ( #340 ), #425, .F. ) ;
#515 = LINE ( 'NONE', #223, #261 ) ;
#516 = ORIENTED_EDGE ( 'NONE', *, *, #846, .T. ) ;
#517 = DIRECTION ( 'NONE',  ( -0.000000000000000000, 1.000000000000000000, -0.000000000000000000 ) ) ;
#518 =( LENGTH_UNIT ( ) NAMED_UNIT ( * ) SI_UNIT ( .MILLI., .METRE. ) );
#519 = CYLINDRICAL_SURFACE ( 'NONE', #513, 0.7500000000000006661 ) ;
#520 = ORIENTED_EDGE ( 'NONE', *, *, #498, .T. ) ;
#521 = CARTESIAN_POINT ( 'NONE',  ( 0.000000000000000000, 5.000000000000000000, 23.25000000000000000 ) ) ;
#522 = DIRECTION ( 'NONE',  ( 0.000000000000000000, -1.000000000000000000, 0.000000000000000000 ) ) ;
#523 = CIRCLE ( 'NONE', #864, 0.7500000000000006661 ) ;
#524 = EDGE_LOOP ( 'NONE', ( #491, #677 ) ) ;
#525 = DIRECTION ( 'NONE',  ( 0.000000000000000000, 0.000000000000000000, -1.000000000000000000 ) ) ;
#526 = ORIENTED_EDGE ( 'NONE', *, *, #163, .T. ) ;
#527 = CARTESIAN_POINT ( 'NONE',  ( 9.184850993605150903E-17, 5.000000000000000000, 18.74999999999999645 ) ) ;
#528 = DIRECTION ( 'NONE',  ( -0.000000000000000000, 1.000000000000000000, -0.000000000000000000 ) ) ;
#529 = EDGE_CURVE ( 'NONE', #797, #577, #53, .T. ) ;
#530 = VERTEX_POINT ( 'NONE', #420 ) ;
#531 = VERTEX_POINT ( 'NONE', #508 ) ;
#532 = CARTESIAN_POINT ( 'NONE',  ( 9.184850993605150903E-17, -5.000000000000000888, 12.74999999999999822 ) ) ;
#533 = ORIENTED_EDGE ( 'NONE', *, *, #217, .F. ) ;
#534 = EDGE_LOOP ( 'NONE', ( #814, #221, #713, #250 ) ) ;
#535 = DIRECTION ( 'NONE',  ( 0.000000000000000000, 0.000000000000000000, -1.000000000000000000 ) ) ;
#536 = VERTEX_POINT ( 'NONE', #951 ) ;
#537 = ADVANCED_FACE ( 'NONE', ( #50, #503, #799, #283, #587, #942, #727, #429 ), #267, .T. ) ;
#538 = EDGE_LOOP ( 'NONE', ( #55, #654, #12, #826 ) ) ;
#539 = CARTESIAN_POINT ( 'NONE',  ( 9.184850993605150903E-17, -5.000000000000000888, 18.74999999999999645 ) ) ;
#540 = EDGE_LOOP ( 'NONE', ( #548, #431 ) ) ;
#541 = MECHANICAL_DESIGN_GEOMETRIC_PRESENTATION_REPRESENTATION (  '', ( #586 ), #271 ) ;
#542 = VECTOR ( 'NONE', #333, 1000.000000000000000 ) ;
#543 = FACE_BOUND ( 'NONE', #746, .T. ) ;
#544 = DIRECTION ( 'NONE',  ( -0.000000000000000000, 1.000000000000000000, -0.000000000000000000 ) ) ;
#545 = ORIENTED_EDGE ( 'NONE', *, *, #557, .F. ) ;
#546 = EDGE_CURVE ( 'NONE', #531, #210, #560, .T. ) ;
#547 = DIRECTION ( 'NONE',  ( 0.000000000000000000, 0.000000000000000000, -1.000000000000000000 ) ) ;
#548 = ORIENTED_EDGE ( 'NONE', *, *, #862, .F. ) ;
#549 = CIRCLE ( 'NONE', #735, 0.7500000000000006661 ) ;
#550 = CARTESIAN_POINT ( 'NONE',  ( 0.000000000000000000, -16.00000000000001066, 10.49999999999999467 ) ) ;
#551 = CARTESIAN_POINT ( 'NONE',  ( 0.000000000000000000, 5.000000000000000000, 28.49999999999999645 ) ) ;
#552 = EDGE_LOOP ( 'NONE', ( #683, #342, #135, #516 ) ) ;
#553 = DIRECTION ( 'NONE',  ( 0.000000000000000000, 0.000000000000000000, 1.000000000000000000 ) ) ;
#554 = DIRECTION ( 'NONE',  ( 8.673617379884034239E-17, -1.000000000000000000, 0.000000000000000000 ) ) ;
#555 = LINE ( 'NONE', #641, #137 ) ;
#556 = CARTESIAN_POINT ( 'NONE',  ( 4.000000000000003553, 3.049999999999998934, 40.25000000000000000 ) ) ;
#557 = EDGE_CURVE ( 'NONE', #756, #51, #343, .T. ) ;
#558 = FACE_OUTER_BOUND ( 'NONE', #705, .T. ) ;
#559 = LINE ( 'NONE', #488, #46 ) ;
#560 = CIRCLE ( 'NONE', #301, 0.7500000000000006661 ) ;
#561 = DIRECTION ( 'NONE',  ( -0.000000000000000000, 1.000000000000000000, -0.000000000000000000 ) ) ;
#562 = CIRCLE ( 'NONE', #752, 0.7500000000000006661 ) ;
#563 = CARTESIAN_POINT ( 'NONE',  ( 0.000000000000000000, 5.000000000000000000, 22.50000000000000000 ) ) ;
#564 = VECTOR ( 'NONE', #790, 1000.000000000000000 ) ;
#565 = EDGE_CURVE ( 'NONE', #777, #753, #855, .T. ) ;
#566 = DIRECTION ( 'NONE',  ( 0.000000000000000000, 0.000000000000000000, 1.000000000000000000 ) ) ;
#567 = DIRECTION ( 'NONE',  ( 0.000000000000000000, -1.000000000000000000, 0.000000000000000000 ) ) ;
#568 = ORIENTED_EDGE ( 'NONE', *, *, #189, .F. ) ;
#569 = CARTESIAN_POINT ( 'NONE',  ( 0.000000000000000000, 0.000000000000000000, 0.000000000000000000 ) ) ;
#570 = AXIS2_PLACEMENT_3D ( 'NONE', #59, #721, #567 ) ;
#571 = CARTESIAN_POINT ( 'NONE',  ( 0.000000000000000000, -5.000000000000000888, 19.49999999999999645 ) ) ;
#572 = LINE ( 'NONE', #504, #185 ) ;
#573 = CIRCLE ( 'NONE', #286, 0.7500000000000006661 ) ;
#574 = CARTESIAN_POINT ( 'NONE',  ( 4.999999999999999112, -5.000000000000000000, -11.00000000000001243 ) ) ;
#575 = VECTOR ( 'NONE', #270, 1000.000000000000114 ) ;
#576 = CARTESIAN_POINT ( 'NONE',  ( 4.999999999999999112, 5.000000000000000000, 8.999999999999987566 ) ) ;
#577 = VERTEX_POINT ( 'NONE', #269 ) ;
#578 = CARTESIAN_POINT ( 'NONE',  ( 0.000000000000000000, 0.000000000000000000, 50.00000000000000000 ) ) ;
#579 = EDGE_CURVE ( 'NONE', #450, #224, #161, .T. ) ;
#580 = VECTOR ( 'NONE', #920, 1000.000000000000000 ) ;
#581 = DIRECTION ( 'NONE',  ( 0.000000000000000000, 1.000000000000000000, 0.000000000000000000 ) ) ;
#582 = ORIENTED_EDGE ( 'NONE', *, *, #489, .T. ) ;
#583 = DIRECTION ( 'NONE',  ( 1.000000000000000000, 8.673617379884025611E-17, 0.000000000000000000 ) ) ;
#584 = ADVANCED_FACE ( 'NONE', ( #745, #451, #751, #69, #288, #375, #813, #77 ), #672, .T. ) ;
#585 = ADVANCED_FACE ( 'NONE', ( #825 ), #519, .F. ) ;
#586 = STYLED_ITEM ( 'NONE', ( #757 ), #232 ) ;
#587 = FACE_BOUND ( 'NONE', #215, .T. ) ;
#588 = ORIENTED_EDGE ( 'NONE', *, *, #779, .T. ) ;
#589 = DIRECTION ( 'NONE',  ( -1.000000000000000000, 0.000000000000000000, 0.000000000000000000 ) ) ;
#590 = AXIS2_PLACEMENT_3D ( 'NONE', #54, #724, #48 ) ;
#591 = DIRECTION ( 'NONE',  ( 0.000000000000000000, 0.000000000000000000, 1.000000000000000000 ) ) ;
#592 = AXIS2_PLACEMENT_3D ( 'NONE', #412, #716, #98 ) ;
#593 = EDGE_LOOP ( 'NONE', ( #614, #511 ) ) ;
#594 = CARTESIAN_POINT ( 'NONE',  ( 0.000000000000000000, -5.000000000000000888, 17.24999999999999645 ) ) ;
#595 = SURFACE_STYLE_USAGE ( .BOTH. , #463 ) ;
#596 = EDGE_LOOP ( 'NONE', ( #393, #84, #684, #842 ) ) ;
#597 = LINE ( 'NONE', #964, #809 ) ;
#598 = ORIENTED_EDGE ( 'NONE', *, *, #782, .T. ) ;
#599 = CARTESIAN_POINT ( 'NONE',  ( 0.000000000000000000, 5.000000000000000000, 11.24999999999999645 ) ) ;
#600 = EDGE_CURVE ( 'NONE', #531, #627, #515, .T. ) ;
#601 = DIRECTION ( 'NONE',  ( -0.000000000000000000, 1.000000000000000000, -0.000000000000000000 ) ) ;
#602 = EDGE_CURVE ( 'NONE', #307, #536, #597, .T. ) ;
#603 = CONICAL_SURFACE ( 'NONE', #222, 3.049999999999999822, 0.7853981633974500554 ) ;
#604 = DIRECTION ( 'NONE',  ( -1.000000000000000000, -8.673617379884034239E-17, -0.000000000000000000 ) ) ;
#605 = VERTEX_POINT ( 'NONE', #819 ) ;
#606 = CARTESIAN_POINT ( 'NONE',  ( 15.00000000000000000, 1.301042606982605124E-15, 40.25000000000000000 ) ) ;
#607 = CARTESIAN_POINT ( 'NONE',  ( 15.00000000000000000, -3.049999999999996714, 40.25000000000000000 ) ) ;
#608 = ORIENTED_EDGE ( 'NONE', *, *, #928, .F. ) ;
#609 = CONICAL_SURFACE ( 'NONE', #392, 3.049999999999998046, 0.7853981633974503884 ) ;
#610 = CARTESIAN_POINT ( 'NONE',  ( 0.000000000000000000, -16.00000000000001066, 10.49999999999999467 ) ) ;
#611 = EDGE_CURVE ( 'NONE', #965, #670, #887, .T. ) ;
#612 = VERTEX_POINT ( 'NONE', #148 ) ;
#613 = ORIENTED_EDGE ( 'NONE', *, *, #646, .F. ) ;
#614 = ORIENTED_EDGE ( 'NONE', *, *, #779, .F. ) ;
#615 = CIRCLE ( 'NONE', #818, 0.7500000000000006661 ) ;
#616 = ORIENTED_EDGE ( 'NONE', *, *, #386, .F. ) ;
#617 = EDGE_CURVE ( 'NONE', #237, #689, #740, .T. ) ;
#618 = DIRECTION ( 'NONE',  ( 0.000000000000000000, 0.000000000000000000, -1.000000000000000000 ) ) ;
#619 = ORIENTED_EDGE ( 'NONE', *, *, #635, .F. ) ;
#620 = DIRECTION ( 'NONE',  ( 0.000000000000000000, -1.000000000000000000, 0.000000000000000000 ) ) ;
#621 = EDGE_LOOP ( 'NONE', ( #963, #686, #947, #722 ) ) ;
#622 = AXIS2_PLACEMENT_3D ( 'NONE', #128, #45, #662 ) ;
#623 = CARTESIAN_POINT ( 'NONE',  ( 0.000000000000000000, -16.00000000000001066, 20.24999999999999645 ) ) ;
#624 = LINE ( 'NONE', #638, #118 ) ;
#625 = ORIENTED_EDGE ( 'NONE', *, *, #163, .F. ) ;
#626 = CYLINDRICAL_SURFACE ( 'NONE', #68, 0.7500000000000006661 ) ;
#627 = VERTEX_POINT ( 'NONE', #361 ) ;
#628 = VECTOR ( 'NONE', #167, 1000.000000000000000 ) ;
#629 = DIRECTION ( 'NONE',  ( 0.000000000000000000, 0.000000000000000000, 1.000000000000000000 ) ) ;
#630 = CARTESIAN_POINT ( 'NONE',  ( 3.999999999999998224, 3.050000000000000266, -0.6000000000000137446 ) ) ;
#631 = ORIENTED_EDGE ( 'NONE', *, *, #338, .F. ) ;
#632 = DIRECTION ( 'NONE',  ( 0.000000000000000000, -1.000000000000000000, 0.000000000000000000 ) ) ;
#633 = ORIENTED_EDGE ( 'NONE', *, *, #611, .F. ) ;
#634 = EDGE_CURVE ( 'NONE', #468, #307, #417, .T. ) ;
#635 = EDGE_CURVE ( 'NONE', #396, #174, #109, .T. ) ;
#636 = AXIS2_PLACEMENT_3D ( 'NONE', #550, #52, #710 ) ;
#637 = FACE_OUTER_BOUND ( 'NONE', #162, .T. ) ;
#638 = CARTESIAN_POINT ( 'NONE',  ( 0.000000000000000000, -16.00000000000001066, 29.25000000000000000 ) ) ;
#639 = DIRECTION ( 'NONE',  ( -0.000000000000000000, 1.000000000000000000, -0.000000000000000000 ) ) ;
#640 = CARTESIAN_POINT ( 'NONE',  ( 9.184850993605154600E-17, -16.00000000000001066, 18.74999999999999645 ) ) ;
#641 = CARTESIAN_POINT ( 'NONE',  ( 0.000000000000000000, -16.00000000000001066, 17.24999999999999645 ) ) ;
#642 = AXIS2_PLACEMENT_3D ( 'NONE', #26, #395, #696 ) ;
#643 = CYLINDRICAL_SURFACE ( 'NONE', #682, 0.7500000000000006661 ) ;
#644 = EDGE_LOOP ( 'NONE', ( #394, #616 ) ) ;
#645 = CONICAL_SURFACE ( 'NONE', #57, 3.049999999999999822, 0.7853981633974500554 ) ;
#646 = EDGE_CURVE ( 'NONE', #753, #95, #624, .T. ) ;
#647 = DIRECTION ( 'NONE',  ( 0.000000000000000000, 0.000000000000000000, -1.000000000000000000 ) ) ;
#648 = EDGE_CURVE ( 'NONE', #155, #612, #180, .T. ) ;
#649 = AXIS2_PLACEMENT_3D ( 'NONE', #235, #231, #688 ) ;
#650 = CIRCLE ( 'NONE', #780, 0.7500000000000006661 ) ;
#651 = DIRECTION ( 'NONE',  ( 0.000000000000000000, 0.000000000000000000, 1.000000000000000000 ) ) ;
#652 = DIRECTION ( 'NONE',  ( 0.000000000000000000, -1.000000000000000000, 0.000000000000000000 ) ) ;
#653 = CARTESIAN_POINT ( 'NONE',  ( 0.000000000000000000, -16.00000000000001066, 19.49999999999999645 ) ) ;
#654 = ORIENTED_EDGE ( 'NONE', *, *, #386, .T. ) ;
#655 = LINE ( 'NONE', #623, #564 ) ;
#656 = CARTESIAN_POINT ( 'NONE',  ( 0.000000000000000000, -5.000000000000000888, 28.49999999999999645 ) ) ;
#657 = CARTESIAN_POINT ( 'NONE',  ( 4.000000000000003553, -3.049999999999997602, 40.25000000000000000 ) ) ;
#658 = VERTEX_POINT ( 'NONE', #259 ) ;
#659 = DIRECTION ( 'NONE',  ( 1.000000000000000000, 8.673617379884025611E-17, 0.000000000000000000 ) ) ;
#660 = ADVANCED_FACE ( 'NONE', ( #700 ), #409, .F. ) ;
#661 = VECTOR ( 'NONE', #35, 1000.000000000000000 ) ;
#662 = DIRECTION ( 'NONE',  ( 0.000000000000000000, 0.000000000000000000, 1.000000000000000000 ) ) ;
#663 = ORIENTED_EDGE ( 'NONE', *, *, #136, .F. ) ;
#664 = CARTESIAN_POINT ( 'NONE',  ( 0.000000000000000000, 5.000000000000000000, 28.49999999999999645 ) ) ;
#665 = CARTESIAN_POINT ( 'NONE',  ( -5.000000000000000888, -5.000000000000000000, 50.00000000000000000 ) ) ;
#666 = ORIENTED_EDGE ( 'NONE', *, *, #687, .T. ) ;
#667 = CARTESIAN_POINT ( 'NONE',  ( 0.000000000000000000, 5.000000000000000000, 26.25000000000000000 ) ) ;
#668 = AXIS2_PLACEMENT_3D ( 'NONE', #134, #192, #647 ) ;
#669 = SURFACE_STYLE_FILL_AREA ( #5 ) ;
#670 = VERTEX_POINT ( 'NONE', #483 ) ;
#671 = EDGE_CURVE ( 'NONE', #91, #697, #559, .T. ) ;
#672 = PLANE ( 'NONE',  #132 ) ;
#673 = CIRCLE ( 'NONE', #592, 4.049999999999999822 ) ;
#674 = EDGE_LOOP ( 'NONE', ( #732, #462, #944, #613 ) ) ;
#675 = CARTESIAN_POINT ( 'NONE',  ( 9.184850993605150903E-17, -5.000000000000000888, 27.74999999999999645 ) ) ;
#676 = FACE_OUTER_BOUND ( 'NONE', #895, .T. ) ;
#677 = ORIENTED_EDGE ( 'NONE', *, *, #23, .F. ) ;
#678 = DIRECTION ( 'NONE',  ( 0.000000000000000000, -1.000000000000000000, 0.000000000000000000 ) ) ;
#679 = ORIENTED_EDGE ( 'NONE', *, *, #579, .T. ) ;
#680 = DIRECTION ( 'NONE',  ( 0.000000000000000000, -1.000000000000000000, 0.000000000000000000 ) ) ;
#681 = DIRECTION ( 'NONE',  ( 0.000000000000000000, -1.000000000000000000, 0.000000000000000000 ) ) ;
#682 = AXIS2_PLACEMENT_3D ( 'NONE', #778, #175, #101 ) ;
#683 = ORIENTED_EDGE ( 'NONE', *, *, #734, .F. ) ;
#684 = ORIENTED_EDGE ( 'NONE', *, *, #928, .T. ) ;
#685 = DIRECTION ( 'NONE',  ( 0.000000000000000000, 0.000000000000000000, 1.000000000000000000 ) ) ;
#686 = ORIENTED_EDGE ( 'NONE', *, *, #236, .T. ) ;
#687 = EDGE_CURVE ( 'NONE', #627, #605, #562, .T. ) ;
#688 = DIRECTION ( 'NONE',  ( 0.000000000000000000, 0.000000000000000000, 1.000000000000000000 ) ) ;
#689 = VERTEX_POINT ( 'NONE', #848 ) ;
#690 = AXIS2_PLACEMENT_3D ( 'NONE', #815, #680, #618 ) ;
#691 = CARTESIAN_POINT ( 'NONE',  ( -5.000000000000000888, 5.000000000000000000, 50.00000000000000000 ) ) ;
#692 = ORIENTED_EDGE ( 'NONE', *, *, #579, .F. ) ;
#693 = EDGE_CURVE ( 'NONE', #763, #505, #555, .T. ) ;
#694 = ORIENTED_EDGE ( 'NONE', *, *, #144, .T. ) ;
#695 = ORIENTED_EDGE ( 'NONE', *, *, #424, .F. ) ;
#696 = DIRECTION ( 'NONE',  ( 0.000000000000000000, 0.000000000000000000, -1.000000000000000000 ) ) ;
#697 = VERTEX_POINT ( 'NONE', #787 ) ;
#698 = AXIS2_PLACEMENT_3D ( 'NONE', #828, #898, #241 ) ;
#699 = CARTESIAN_POINT ( 'NONE',  ( 4.999999999999999112, 4.050000000000005151, -0.6000000000000137446 ) ) ;
#700 = FACE_OUTER_BOUND ( 'NONE', #552, .T. ) ;
#701 = VERTEX_POINT ( 'NONE', #173 ) ;
#702 = DIRECTION ( 'NONE',  ( 0.000000000000000000, 0.000000000000000000, -1.000000000000000000 ) ) ;
#703 = DIRECTION ( 'NONE',  ( 0.000000000000000000, 0.000000000000000000, 1.000000000000000000 ) ) ;
#704 = CARTESIAN_POINT ( 'NONE',  ( 15.00000000000000000, 3.050000000000001155, -0.6000000000000134115 ) ) ;
#705 = EDGE_LOOP ( 'NONE', ( #352, #465, #315, #608 ) ) ;
#706 = EDGE_CURVE ( 'NONE', #777, #21, #841, .T. ) ;
#707 = CYLINDRICAL_SURFACE ( 'NONE', #354, 0.7500000000000006661 ) ;
#708 = ORIENTED_EDGE ( 'NONE', *, *, #671, .F. ) ;
#709 = CIRCLE ( 'NONE', #771, 0.7500000000000006661 ) ;
#710 = DIRECTION ( 'NONE',  ( 0.000000000000000000, 0.000000000000000000, 1.000000000000000000 ) ) ;
#711 = DIRECTION ( 'NONE',  ( 0.000000000000000000, 0.000000000000000000, 1.000000000000000000 ) ) ;
#712 = FACE_OUTER_BOUND ( 'NONE', #60, .T. ) ;
#713 = ORIENTED_EDGE ( 'NONE', *, *, #949, .T. ) ;
#714 = CIRCLE ( 'NONE', #875, 0.7500000000000006661 ) ;
#715 = FACE_OUTER_BOUND ( 'NONE', #851, .T. ) ;
#716 = DIRECTION ( 'NONE',  ( -1.000000000000000000, -8.673617379884034239E-17, 0.000000000000000000 ) ) ;
#717 = CARTESIAN_POINT ( 'NONE',  ( 0.000000000000000000, -16.00000000000001066, 19.49999999999999645 ) ) ;
#718 = EDGE_CURVE ( 'NONE', #21, #95, #197, .T. ) ;
#719 = VECTOR ( 'NONE', #64, 1000.000000000000000 ) ;
#720 = CARTESIAN_POINT ( 'NONE',  ( 4.999999999999999112, 5.000000000000000000, -11.00000000000001243 ) ) ;
#721 = DIRECTION ( 'NONE',  ( -1.000000000000000000, -8.673617379884034239E-17, 0.000000000000000000 ) ) ;
#722 = ORIENTED_EDGE ( 'NONE', *, *, #179, .T. ) ;
#723 = EDGE_CURVE ( 'NONE', #1, #87, #673, .T. ) ;
#724 = DIRECTION ( 'NONE',  ( 0.000000000000000000, 1.000000000000000000, 0.000000000000000000 ) ) ;
#725 = FACE_OUTER_BOUND ( 'NONE', #229, .T. ) ;
#726 = MECHANICAL_DESIGN_GEOMETRIC_PRESENTATION_REPRESENTATION (  '', ( #427 ), #877 ) ;
#727 = FACE_BOUND ( 'NONE', #233, .T. ) ;
#728 = DIRECTION ( 'NONE',  ( 0.000000000000000000, 0.000000000000000000, 1.000000000000000000 ) ) ;
#729 = AXIS2_PLACEMENT_3D ( 'NONE', #106, #806, #416 ) ;
#730 = CARTESIAN_POINT ( 'NONE',  ( 0.000000000000000000, -5.000000000000000888, 13.49999999999999822 ) ) ;
#731 = PRODUCT_DEFINITION_SHAPE ( 'NONE', 'NONE',  #930 ) ;
#732 = ORIENTED_EDGE ( 'NONE', *, *, #217, .T. ) ;
#733 = CARTESIAN_POINT ( 'NONE',  ( 3.999999999999998224, 3.469446951953613203E-16, -0.6000000000000137446 ) ) ;
#734 = EDGE_CURVE ( 'NONE', #396, #701, #400, .T. ) ;
#735 = AXIS2_PLACEMENT_3D ( 'NONE', #2, #966, #312 ) ;
#736 = DIRECTION ( 'NONE',  ( 0.000000000000000000, -1.000000000000000000, 0.000000000000000000 ) ) ;
#737 = ORIENTED_EDGE ( 'NONE', *, *, #634, .F. ) ;
#738 = CYLINDRICAL_SURFACE ( 'NONE', #871, 0.7500000000000006661 ) ;
#739 = AXIS2_PLACEMENT_3D ( 'NONE', #327, #639, #850 ) ;
#740 = LINE ( 'NONE', #665, #719 ) ;
#741 = ORIENTED_EDGE ( 'NONE', *, *, #832, .T. ) ;
#742 = DIRECTION ( 'NONE',  ( 1.000000000000000000, 8.673617379884025611E-17, 0.000000000000000000 ) ) ;
#743 = ADVANCED_FACE ( 'NONE', ( #248 ), #479, .F. ) ;
#744 = ADVANCED_FACE ( 'NONE', ( #324 ), #609, .F. ) ;
#745 = FACE_BOUND ( 'NONE', #279, .T. ) ;
#746 = EDGE_LOOP ( 'NONE', ( #968, #387 ) ) ;
#747 = DIRECTION ( 'NONE',  ( -0.000000000000000000, 0.000000000000000000, -1.000000000000000000 ) ) ;
#748 = AXIS2_PLACEMENT_3D ( 'NONE', #571, #652, #525 ) ;
#749 = CARTESIAN_POINT ( 'NONE',  ( 9.184850993605154600E-17, -16.00000000000001066, 21.75000000000000000 ) ) ;
#750 = VERTEX_POINT ( 'NONE', #599 ) ;
#751 = FACE_BOUND ( 'NONE', #362, .T. ) ;
#752 = AXIS2_PLACEMENT_3D ( 'NONE', #791, #24, #775 ) ;
#753 = VERTEX_POINT ( 'NONE', #371 ) ;
#754 = LINE ( 'NONE', #353, #92 ) ;
#755 = CYLINDRICAL_SURFACE ( 'NONE', #805, 0.7500000000000006661 ) ;
#756 = VERTEX_POINT ( 'NONE', #377 ) ;
#757 = PRESENTATION_STYLE_ASSIGNMENT (( #213 ) ) ;
#758 = VECTOR ( 'NONE', #113, 1000.000000000000000 ) ;
#759 = ORIENTED_EDGE ( 'NONE', *, *, #602, .F. ) ;
#760 = ORIENTED_EDGE ( 'NONE', *, *, #693, .F. ) ;
#761 = VECTOR ( 'NONE', #869, 1000.000000000000000 ) ;
#762 = ORIENTED_EDGE ( 'NONE', *, *, #318, .F. ) ;
#763 = VERTEX_POINT ( 'NONE', #594 ) ;
#764 = ORIENTED_EDGE ( 'NONE', *, *, #38, .T. ) ;
#765 = EDGE_CURVE ( 'NONE', #8, #396, #168, .T. ) ;
#766 = PRODUCT_RELATED_PRODUCT_CATEGORY ( 'part', '', ( #440 ) ) ;
#767 = EDGE_LOOP ( 'NONE', ( #692, #357 ) ) ;
#768 = CONICAL_SURFACE ( 'NONE', #182, 3.049999999999998046, 0.7853981633974503884 ) ;
#769 = ORIENTED_EDGE ( 'NONE', *, *, #940, .F. ) ;
#770 = ORIENTED_EDGE ( 'NONE', *, *, #305, .T. ) ;
#771 = AXIS2_PLACEMENT_3D ( 'NONE', #495, #268, #509 ) ;
#772 = DIRECTION ( 'NONE',  ( -0.000000000000000000, 1.000000000000000000, -0.000000000000000000 ) ) ;
#773 = ORIENTED_EDGE ( 'NONE', *, *, #600, .T. ) ;
#774 = DIRECTION ( 'NONE',  ( -0.000000000000000000, 1.000000000000000000, -0.000000000000000000 ) ) ;
#775 = DIRECTION ( 'NONE',  ( 0.000000000000000000, 0.000000000000000000, 1.000000000000000000 ) ) ;
#776 = CIRCLE ( 'NONE', #817, 4.050000000000005151 ) ;
#777 = VERTEX_POINT ( 'NONE', #675 ) ;
#778 = CARTESIAN_POINT ( 'NONE',  ( 0.000000000000000000, -16.00000000000001066, 22.50000000000000000 ) ) ;
#779 = EDGE_CURVE ( 'NONE', #577, #797, #843, .T. ) ;
#780 = AXIS2_PLACEMENT_3D ( 'NONE', #164, #364, #535 ) ;
#781 = CARTESIAN_POINT ( 'NONE',  ( 0.000000000000000000, 5.000000000000000000, 29.25000000000000000 ) ) ;
#782 = EDGE_CURVE ( 'NONE', #697, #237, #280, .T. ) ;
#783 = CARTESIAN_POINT ( 'NONE',  ( 15.00000000000000000, 1.301042606982605124E-15, 40.25000000000000000 ) ) ;
#784 = VERTEX_POINT ( 'NONE', #358 ) ;
#785 = CARTESIAN_POINT ( 'NONE',  ( 0.000000000000000000, -16.00000000000001066, 28.49999999999999645 ) ) ;
#786 = CYLINDRICAL_SURFACE ( 'NONE', #399, 0.7500000000000006661 ) ;
#787 = CARTESIAN_POINT ( 'NONE',  ( -5.000000000000000888, -5.000000000000000000, -11.00000000000001243 ) ) ;
#788 = LINE ( 'NONE', #186, #830 ) ;
#789 = EDGE_LOOP ( 'NONE', ( #82, #873, #130, #760 ) ) ;
#790 = DIRECTION ( 'NONE',  ( -0.000000000000000000, 1.000000000000000000, -0.000000000000000000 ) ) ;
#791 = CARTESIAN_POINT ( 'NONE',  ( 0.000000000000000000, 5.000000000000000000, 13.49999999999999822 ) ) ;
#792 = DIRECTION ( 'NONE',  ( -0.000000000000000000, 1.000000000000000000, -0.000000000000000000 ) ) ;
#793 = AXIS2_PLACEMENT_3D ( 'NONE', #802, #183, #487 ) ;
#794 = CARTESIAN_POINT ( 'NONE',  ( 0.000000000000000000, 5.000000000000000000, 17.24999999999999645 ) ) ;
#795 = VECTOR ( 'NONE', #321, 1000.000000000000000 ) ;
#796 = DIRECTION ( 'NONE',  ( 0.000000000000000000, 1.000000000000000000, 0.000000000000000000 ) ) ;
#797 = VERTEX_POINT ( 'NONE', #527 ) ;
#798 = AXIS2_PLACEMENT_3D ( 'NONE', #207, #583, #893 ) ;
#799 = FACE_BOUND ( 'NONE', #34, .T. ) ;
#800 = DIRECTION ( 'NONE',  ( -0.000000000000000000, 1.000000000000000000, -0.000000000000000000 ) ) ;
#801 = VERTEX_POINT ( 'NONE', #521 ) ;
#802 = CARTESIAN_POINT ( 'NONE',  ( 0.000000000000000000, -5.000000000000000888, 10.49999999999999467 ) ) ;
#803 = ADVANCED_FACE ( 'NONE', ( #821 ), #738, .F. ) ;
#804 = EDGE_CURVE ( 'NONE', #505, #612, #933, .T. ) ;
#805 = AXIS2_PLACEMENT_3D ( 'NONE', #838, #11, #685 ) ;
#806 = DIRECTION ( 'NONE',  ( -1.000000000000000000, -8.673617379884034239E-17, 0.000000000000000000 ) ) ;
#807 = VERTEX_POINT ( 'NONE', #66 ) ;
#808 = UNCERTAINTY_MEASURE_WITH_UNIT (LENGTH_MEASURE( 1.000000000000000082E-05 ), #156, 'distance_accuracy_value', 'NONE');
#809 = VECTOR ( 'NONE', #891, 1000.000000000000000 ) ;
#810 = CYLINDRICAL_SURFACE ( 'NONE', #484, 3.049999999999999822 ) ;
#811 = EDGE_LOOP ( 'NONE', ( #116, #274, #146, #619 ) ) ;
#812 = DIRECTION ( 'NONE',  ( -1.000000000000000000, -8.673617379884034239E-17, 0.000000000000000000 ) ) ;
#813 = FACE_BOUND ( 'NONE', #107, .T. ) ;
#814 = ORIENTED_EDGE ( 'NONE', *, *, #634, .T. ) ;
#815 = CARTESIAN_POINT ( 'NONE',  ( 0.000000000000000000, -5.000000000000000888, 22.50000000000000000 ) ) ;
#816 = CIRCLE ( 'NONE', #257, 3.049999999999998046 ) ;
#817 = AXIS2_PLACEMENT_3D ( 'NONE', #911, #931, #410 ) ;
#818 = AXIS2_PLACEMENT_3D ( 'NONE', #461, #835, #166 ) ;
#819 = CARTESIAN_POINT ( 'NONE',  ( 9.184850993605150903E-17, 5.000000000000000000, 12.74999999999999822 ) ) ;
#820 = ORIENTED_EDGE ( 'NONE', *, *, #858, .F. ) ;
#821 = FACE_OUTER_BOUND ( 'NONE', #596, .T. ) ;
#822 = FILL_AREA_STYLE_COLOUR ( '', #345 ) ;
#823 = ADVANCED_FACE ( 'NONE', ( #447 ), #150, .T. ) ;
#824 = ORIENTED_EDGE ( 'NONE', *, *, #546, .T. ) ;
#825 = FACE_OUTER_BOUND ( 'NONE', #538, .T. ) ;
#826 = ORIENTED_EDGE ( 'NONE', *, *, #804, .T. ) ;
#827 = DIRECTION ( 'NONE',  ( 0.000000000000000000, 1.000000000000000000, 0.000000000000000000 ) ) ;
#828 = CARTESIAN_POINT ( 'NONE',  ( 0.000000000000000000, 5.000000000000000000, 13.49999999999999822 ) ) ;
#829 = ORIENTED_EDGE ( 'NONE', *, *, #617, .T. ) ;
#830 = VECTOR ( 'NONE', #490, 1000.000000000000000 ) ;
#831 = ORIENTED_EDGE ( 'NONE', *, *, #832, .F. ) ;
#832 = EDGE_CURVE ( 'NONE', #210, #605, #754, .T. ) ;
#833 = ORIENTED_EDGE ( 'NONE', *, *, #546, .F. ) ;
#834 = DIRECTION ( 'NONE',  ( 0.000000000000000000, 0.000000000000000000, -1.000000000000000000 ) ) ;
#835 = DIRECTION ( 'NONE',  ( 0.000000000000000000, 1.000000000000000000, 0.000000000000000000 ) ) ;
#836 = ORIENTED_EDGE ( 'NONE', *, *, #236, .F. ) ;
#837 = AXIS2_PLACEMENT_3D ( 'NONE', #569, #423, #124 ) ;
#838 = CARTESIAN_POINT ( 'NONE',  ( 0.000000000000000000, -16.00000000000001066, 13.49999999999999822 ) ) ;
#839 = ORIENTED_EDGE ( 'NONE', *, *, #635, .T. ) ;
#840 = FACE_BOUND ( 'NONE', #171, .T. ) ;
#841 = LINE ( 'NONE', #103, #628 ) ;
#842 = ORIENTED_EDGE ( 'NONE', *, *, #40, .T. ) ;
#843 = CIRCLE ( 'NONE', #500, 0.7500000000000006661 ) ;
#844 = CARTESIAN_POINT ( 'NONE',  ( 15.00000000000000000, -3.049999999999998490, -0.6000000000000137446 ) ) ;
#845 = ORIENTED_EDGE ( 'NONE', *, *, #40, .F. ) ;
#846 = EDGE_CURVE ( 'NONE', #530, #701, #962, .T. ) ;
#847 = CARTESIAN_POINT ( 'NONE',  ( 0.000000000000000000, 5.000000000000000000, 25.50000000000000000 ) ) ;
#848 = CARTESIAN_POINT ( 'NONE',  ( 5.000000000000000000, -5.000000000000000000, 50.00000000000000000 ) ) ;
#849 = ORIENTED_EDGE ( 'NONE', *, *, #862, .T. ) ;
#850 = DIRECTION ( 'NONE',  ( 0.000000000000000000, 0.000000000000000000, 1.000000000000000000 ) ) ;
#851 = EDGE_LOOP ( 'NONE', ( #598, #909, #545, #625 ) ) ;
#852 = DIRECTION ( 'NONE',  ( 0.000000000000000000, 0.000000000000000000, 1.000000000000000000 ) ) ;
#853 = CARTESIAN_POINT ( 'NONE',  ( 15.00000000000000000, 1.301042606982605124E-15, -0.6000000000000137446 ) ) ;
#854 = FACE_OUTER_BOUND ( 'NONE', #154, .T. ) ;
#855 = CIRCLE ( 'NONE', #243, 0.7500000000000006661 ) ;
#856 = DIRECTION ( 'NONE',  ( -0.000000000000000000, 0.000000000000000000, 1.000000000000000000 ) ) ;
#857 = DIRECTION ( 'NONE',  ( -1.000000000000000000, -8.673617379884034239E-17, -0.000000000000000000 ) ) ;
#858 = EDGE_CURVE ( 'NONE', #289, #784, #13, .T. ) ;
#859 = CYLINDRICAL_SURFACE ( 'NONE', #378, 0.7500000000000006661 ) ;
#860 = ORIENTED_EDGE ( 'NONE', *, *, #189, .T. ) ;
#861 = EDGE_CURVE ( 'NONE', #612, #505, #549, .T. ) ;
#862 = EDGE_CURVE ( 'NONE', #95, #21, #455, .T. ) ;
#863 = DIRECTION ( 'NONE',  ( 0.000000000000000000, 0.000000000000000000, 1.000000000000000000 ) ) ;
#864 = AXIS2_PLACEMENT_3D ( 'NONE', #226, #389, #457 ) ;
#865 = DIRECTION ( 'NONE',  ( 0.000000000000000000, 0.000000000000000000, -1.000000000000000000 ) ) ;
#866 = DIRECTION ( 'NONE',  ( 0.000000000000000000, 0.000000000000000000, 1.000000000000000000 ) ) ;
#867 = CIRCLE ( 'NONE', #729, 3.049999999999999822 ) ;
#868 = DIRECTION ( 'NONE',  ( -1.000000000000000000, -8.673617379884034239E-17, 0.000000000000000000 ) ) ;
#869 = DIRECTION ( 'NONE',  ( -0.000000000000000000, 1.000000000000000000, -0.000000000000000000 ) ) ;
#870 = EDGE_CURVE ( 'NONE', #8, #227, #71, .T. ) ;
#871 = AXIS2_PLACEMENT_3D ( 'NONE', #143, #517, #61 ) ;
#872 = CARTESIAN_POINT ( 'NONE',  ( 4.000000000000003553, 3.469446951953617147E-16, 40.25000000000000000 ) ) ;
#873 = ORIENTED_EDGE ( 'NONE', *, *, #648, .T. ) ;
#874 = FACE_BOUND ( 'NONE', #441, .T. ) ;
#875 = AXIS2_PLACEMENT_3D ( 'NONE', #28, #253, #852 ) ;
#876 = LINE ( 'NONE', #205, #9 ) ;
#877 =( GEOMETRIC_REPRESENTATION_CONTEXT ( 3 ) GLOBAL_UNCERTAINTY_ASSIGNED_CONTEXT ( ( #808 ) ) GLOBAL_UNIT_ASSIGNED_CONTEXT ( ( #156, #88, #385 ) ) REPRESENTATION_CONTEXT ( 'NONE', 'WORKASPACE' ) );
#878 = ORIENTED_EDGE ( 'NONE', *, *, #600, .F. ) ;
#879 = DIRECTION ( 'NONE',  ( 0.000000000000000000, 0.000000000000000000, 1.000000000000000000 ) ) ;
#880 = EDGE_CURVE ( 'NONE', #87, #1, #32, .T. ) ;
#881 = CIRCLE ( 'NONE', #668, 0.7500000000000006661 ) ;
#882 = CARTESIAN_POINT ( 'NONE',  ( 0.000000000000000000, -5.000000000000000888, 20.24999999999999645 ) ) ;
#883 = EDGE_LOOP ( 'NONE', ( #633, #265, #14, #206 ) ) ;
#884 = DIRECTION ( 'NONE',  ( -1.000000000000000000, -8.673617379884034239E-17, 0.000000000000000000 ) ) ;
#885 = AXIS2_PLACEMENT_3D ( 'NONE', #783, #404, #29 ) ;
#886 = ADVANCED_FACE ( 'NONE', ( #432 ), #645, .F. ) ;
#887 = LINE ( 'NONE', #958, #388 ) ;
#888 = ORIENTED_EDGE ( 'NONE', *, *, #565, .F. ) ;
#889 = CARTESIAN_POINT ( 'NONE',  ( 0.000000000000000000, 5.000000000000000000, 19.49999999999999645 ) ) ;
#890 = ORIENTED_EDGE ( 'NONE', *, *, #90, .F. ) ;
#891 = DIRECTION ( 'NONE',  ( -1.000000000000000000, -8.673617379884034239E-17, -0.000000000000000000 ) ) ;
#892 = ORIENTED_EDGE ( 'NONE', *, *, #360, .T. ) ;
#893 = DIRECTION ( 'NONE',  ( 0.000000000000000000, 1.000000000000000000, 0.000000000000000000 ) ) ;
#894 = CARTESIAN_POINT ( 'NONE',  ( -5.000000000000000888, -5.000000000000000000, 50.00000000000000000 ) ) ;
#895 = EDGE_LOOP ( 'NONE', ( #831, #436, #773, #666 ) ) ;
#896 = ORIENTED_EDGE ( 'NONE', *, *, #443, .T. ) ;
#897 = EDGE_CURVE ( 'NONE', #396, #8, #121, .T. ) ;
#898 = DIRECTION ( 'NONE',  ( 0.000000000000000000, 1.000000000000000000, 0.000000000000000000 ) ) ;
#899 = ORIENTED_EDGE ( 'NONE', *, *, #507, .T. ) ;
#900 = LINE ( 'NONE', #467, #281 ) ;
#901 = CARTESIAN_POINT ( 'NONE',  ( 3.999999999999998224, -3.049999999999999378, -0.6000000000000137446 ) ) ;
#902 = ORIENTED_EDGE ( 'NONE', *, *, #880, .F. ) ;
#903 = CIRCLE ( 'NONE', #83, 0.7500000000000006661 ) ;
#904 = CARTESIAN_POINT ( 'NONE',  ( 4.000000000000003553, 3.049999999999998490, 40.25000000000000000 ) ) ;
#905 = VERTEX_POINT ( 'NONE', #667 ) ;
#906 = CARTESIAN_POINT ( 'NONE',  ( 9.184850993605150903E-17, 5.000000000000000000, 27.74999999999999645 ) ) ;
#907 = DIRECTION ( 'NONE',  ( 0.7071067811865464625, -0.7071067811865486830, 8.659560562354948882E-17 ) ) ;
#908 = EDGE_CURVE ( 'NONE', #468, #1, #960, .T. ) ;
#909 = ORIENTED_EDGE ( 'NONE', *, *, #252, .F. ) ;
#910 = EDGE_CURVE ( 'NONE', #224, #450, #709, .T. ) ;
#911 = CARTESIAN_POINT ( 'NONE',  ( 4.999999999999999112, 4.336808689942017736E-16, -0.6000000000000137446 ) ) ;
#912 = ORIENTED_EDGE ( 'NONE', *, *, #443, .F. ) ;
#913 = AXIS2_PLACEMENT_3D ( 'NONE', #355, #119, #934 ) ;
#914 = FACE_OUTER_BOUND ( 'NONE', #932, .T. ) ;
#915 = DIRECTION ( 'NONE',  ( 0.000000000000000000, -1.000000000000000000, 0.000000000000000000 ) ) ;
#916 = VERTEX_POINT ( 'NONE', #278 ) ;
#917 = AXIS2_PLACEMENT_3D ( 'NONE', #664, #211, #954 ) ;
#918 = LINE ( 'NONE', #844, #795 ) ;
#919 = ORIENTED_EDGE ( 'NONE', *, *, #62, .F. ) ;
#920 = DIRECTION ( 'NONE',  ( -0.000000000000000000, 1.000000000000000000, -0.000000000000000000 ) ) ;
#921 = DIRECTION ( 'NONE',  ( -0.000000000000000000, 1.000000000000000000, -0.000000000000000000 ) ) ;
#922 = CARTESIAN_POINT ( 'NONE',  ( 9.184850993605150903E-17, 5.000000000000000000, 21.75000000000000000 ) ) ;
#923 = AXIS2_PLACEMENT_3D ( 'NONE', #502, #22, #102 ) ;
#924 = CARTESIAN_POINT ( 'NONE',  ( 0.000000000000000000, -16.00000000000001066, 23.25000000000000000 ) ) ;
#925 = CARTESIAN_POINT ( 'NONE',  ( 9.184850993605154600E-17, -16.00000000000001066, 15.74999999999999645 ) ) ;
#926 = CARTESIAN_POINT ( 'NONE',  ( 5.000000000000000000, -5.000000000000000000, 8.999999999999987566 ) ) ;
#927 = VECTOR ( 'NONE', #736, 1000.000000000000000 ) ;
#928 = EDGE_CURVE ( 'NONE', #65, #905, #572, .T. ) ;
#929 = PLANE ( 'NONE',  #220 ) ;
#930 = PRODUCT_DEFINITION ( 'UNKNOWN', '', #448, #188 ) ;
#931 = DIRECTION ( 'NONE',  ( -1.000000000000000000, -8.673617379884034239E-17, 0.000000000000000000 ) ) ;
#932 = EDGE_LOOP ( 'NONE', ( #240, #829, #694, #582 ) ) ;
#933 = CIRCLE ( 'NONE', #419, 0.7500000000000006661 ) ;
#934 = DIRECTION ( 'NONE',  ( 0.000000000000000000, 0.000000000000000000, 1.000000000000000000 ) ) ;
#935 = ORIENTED_EDGE ( 'NONE', *, *, #723, .T. ) ;
#936 =( NAMED_UNIT ( * ) SI_UNIT ( $, .STERADIAN. ) SOLID_ANGLE_UNIT ( ) );
#937 = AXIS2_PLACEMENT_3D ( 'NONE', #847, #276, #629 ) ;
#938 = AXIS2_PLACEMENT_3D ( 'NONE', #159, #15, #834 ) ;
#939 = DIRECTION ( 'NONE',  ( 0.000000000000000000, -1.000000000000000000, 0.000000000000000000 ) ) ;
#940 = EDGE_CURVE ( 'NONE', #210, #531, #306, .T. ) ;
#941 = APPLICATION_CONTEXT ( 'automotive_design' ) ;
#942 = FACE_BOUND ( 'NONE', #524, .T. ) ;
#943 =( NAMED_UNIT ( * ) PLANE_ANGLE_UNIT ( ) SI_UNIT ( $, .RADIAN. ) );
#944 = ORIENTED_EDGE ( 'NONE', *, *, #718, .T. ) ;
#945 = CARTESIAN_POINT ( 'NONE',  ( 4.999999999999999112, 4.049999999999998046, 40.25000000000000000 ) ) ;
#946 = CARTESIAN_POINT ( 'NONE',  ( 15.00000000000000000, 1.301042606982605124E-15, -0.6000000000000137446 ) ) ;
#947 = ORIENTED_EDGE ( 'NONE', *, *, #136, .T. ) ;
#948 = DIRECTION ( 'NONE',  ( 0.000000000000000000, 1.000000000000000000, 0.000000000000000000 ) ) ;
#949 = EDGE_CURVE ( 'NONE', #536, #187, #334, .T. ) ;
#950 = CLOSED_SHELL ( 'NONE', ( #438, #886, #458, #203, #367, #63, #346, #956, #145, #514, #75, #96, #537, #47, #584, #204, #230, #585, #275, #266, #803, #348, #117, #823, #743, #660, #219, #744 ) ) ;
#951 = CARTESIAN_POINT ( 'NONE',  ( -5.000000000000000888, 3.049999999999997602, 40.25000000000000000 ) ) ;
#952 = DIRECTION ( 'NONE',  ( 0.000000000000000000, -1.000000000000000000, 0.000000000000000000 ) ) ;
#953 = ORIENTED_EDGE ( 'NONE', *, *, #3, .T. ) ;
#954 = DIRECTION ( 'NONE',  ( 0.000000000000000000, 0.000000000000000000, 1.000000000000000000 ) ) ;
#955 =( GEOMETRIC_REPRESENTATION_CONTEXT ( 3 ) GLOBAL_UNCERTAINTY_ASSIGNED_CONTEXT ( ( #282 ) ) GLOBAL_UNIT_ASSIGNED_CONTEXT ( ( #344, #943, #426 ) ) REPRESENTATION_CONTEXT ( 'NONE', 'WORKASPACE' ) );
#956 = ADVANCED_FACE ( 'NONE', ( #725 ), #493, .F. ) ;
#957 = AXIS2_PLACEMENT_3D ( 'NONE', #141, #36, #329 ) ;
#958 = CARTESIAN_POINT ( 'NONE',  ( 9.184850993605154600E-17, -16.00000000000001066, 9.749999999999994671 ) ) ;
#959 = ORIENTED_EDGE ( 'NONE', *, *, #144, .F. ) ;
#960 = LINE ( 'NONE', #657, #575 ) ;
#961 = DIRECTION ( 'NONE',  ( 0.7071067811865459074, 0.7071067811865491270, 0.000000000000000000 ) ) ;
#962 = CIRCLE ( 'NONE', #373, 3.049999999999999822 ) ;
#963 = ORIENTED_EDGE ( 'NONE', *, *, #262, .F. ) ;
#964 = CARTESIAN_POINT ( 'NONE',  ( 15.00000000000000000, 3.049999999999999378, 40.25000000000000000 ) ) ;
#965 = VERTEX_POINT ( 'NONE', #123 ) ;
#966 = DIRECTION ( 'NONE',  ( 0.000000000000000000, 1.000000000000000000, 0.000000000000000000 ) ) ;
#967 = DIRECTION ( 'NONE',  ( 1.000000000000000000, 8.673617379884025611E-17, 0.000000000000000000 ) ) ;
#968 = ORIENTED_EDGE ( 'NONE', *, *, #499, .T. ) ;
ENDSEC;
END-ISO-10303-21;
