ISO-10303-21;
HEADER;
FILE_DESCRIPTION (( 'STEP AP214' ),
    '1' );
FILE_NAME ('StaticAnchor.STEP',
    '2024-04-22T20:38:33',
    ( '' ),
    ( '' ),
    'SwSTEP 2.0',
    'SolidWorks 2022',
    '' );
FILE_SCHEMA (( 'AUTOMOTIVE_DESIGN' ));
ENDSEC;

DATA;
#1 = ORIENTED_EDGE ( 'NONE', *, *, #668, .F. ) ;
#2 = EDGE_LOOP ( 'NONE', ( #377, #157, #531, #74 ) ) ;
#3 = DIRECTION ( 'NONE',  ( -0.000000000000000000, 1.000000000000000000, -0.000000000000000000 ) ) ;
#4 = CYLINDRICAL_SURFACE ( 'NONE', #540, 0.7500000000000006661 ) ;
#5 = ORIENTED_EDGE ( 'NONE', *, *, #250, .F. ) ;
#6 = ORIENTED_EDGE ( 'NONE', *, *, #110, .F. ) ;
#7 = DIRECTION ( 'NONE',  ( -0.000000000000000000, 1.000000000000000000, -0.000000000000000000 ) ) ;
#8 = DIRECTION ( 'NONE',  ( 0.000000000000000000, 0.000000000000000000, -1.000000000000000000 ) ) ;
#9 = EDGE_CURVE ( 'NONE', #576, #430, #704, .T. ) ;
#10 = DIRECTION ( 'NONE',  ( 0.000000000000000000, 0.000000000000000000, 1.000000000000000000 ) ) ;
#11 = VERTEX_POINT ( 'NONE', #189 ) ;
#12 = ORIENTED_EDGE ( 'NONE', *, *, #965, .T. ) ;
#13 = VECTOR ( 'NONE', #801, 1000.000000000000000 ) ;
#14 = DIRECTION ( 'NONE',  ( 0.000000000000000000, 0.000000000000000000, 1.000000000000000000 ) ) ;
#15 = AXIS2_PLACEMENT_3D ( 'NONE', #755, #608, #518 ) ;
#16 = CARTESIAN_POINT ( 'NONE',  ( 0.000000000000000000, -5.000000000000000888, 16.49999999999999645 ) ) ;
#17 = ADVANCED_FACE ( 'NONE', ( #765 ), #856, .F. ) ;
#18 = EDGE_LOOP ( 'NONE', ( #964, #874, #807, #435 ) ) ;
#19 = CARTESIAN_POINT ( 'NONE',  ( 0.000000000000000000, -16.00000000000001066, 19.49999999999999645 ) ) ;
#20 = ORIENTED_EDGE ( 'NONE', *, *, #459, .F. ) ;
#21 = DIRECTION ( 'NONE',  ( 0.000000000000000000, -1.000000000000000000, 0.000000000000000000 ) ) ;
#22 = EDGE_CURVE ( 'NONE', #932, #85, #148, .T. ) ;
#23 = CARTESIAN_POINT ( 'NONE',  ( 4.000000000000003553, 3.049999999999998490, 45.00000000000000711 ) ) ;
#24 = DIRECTION ( 'NONE',  ( -8.673617379884034239E-17, 1.000000000000000000, 0.000000000000000000 ) ) ;
#25 = ORIENTED_EDGE ( 'NONE', *, *, #329, .T. ) ;
#26 = CARTESIAN_POINT ( 'NONE',  ( -5.000000000000000888, -3.050000000000000266, -6.000000000000013323 ) ) ;
#27 = CIRCLE ( 'NONE', #322, 3.049999999999998046 ) ;
#28 = ADVANCED_FACE ( 'NONE', ( #99 ), #400, .F. ) ;
#29 = CIRCLE ( 'NONE', #643, 3.049999999999998046 ) ;
#30 = AXIS2_PLACEMENT_3D ( 'NONE', #72, #670, #832 ) ;
#31 = DIRECTION ( 'NONE',  ( 0.000000000000000000, 0.000000000000000000, 1.000000000000000000 ) ) ;
#32 = AXIS2_PLACEMENT_3D ( 'NONE', #194, #491, #716 ) ;
#33 = ORIENTED_EDGE ( 'NONE', *, *, #409, .F. ) ;
#34 = CARTESIAN_POINT ( 'NONE',  ( -5.000000000000000888, -4.336808689942017736E-16, 45.00000000000000711 ) ) ;
#35 = CARTESIAN_POINT ( 'NONE',  ( 0.000000000000000000, 5.000000000000000000, 13.49999999999999822 ) ) ;
#36 = CARTESIAN_POINT ( 'NONE',  ( 0.000000000000000000, 5.000000000000000000, 29.25000000000000000 ) ) ;
#37 = LINE ( 'NONE', #103, #818 ) ;
#38 = CYLINDRICAL_SURFACE ( 'NONE', #376, 0.7500000000000006661 ) ;
#39 = EDGE_CURVE ( 'NONE', #318, #746, #410, .T. ) ;
#40 = CARTESIAN_POINT ( 'NONE',  ( 4.999999999999999112, 4.049999999999998046, 45.00000000000000711 ) ) ;
#41 = CARTESIAN_POINT ( 'NONE',  ( 0.000000000000000000, -5.000000000000000888, 13.49999999999999822 ) ) ;
#42 = VECTOR ( 'NONE', #63, 1000.000000000000000 ) ;
#43 = AXIS2_PLACEMENT_3D ( 'NONE', #205, #865, #949 ) ;
#44 = FACE_BOUND ( 'NONE', #246, .T. ) ;
#45 = CIRCLE ( 'NONE', #761, 4.050000000000005151 ) ;
#46 = CARTESIAN_POINT ( 'NONE',  ( 0.000000000000000000, -16.00000000000001066, 11.24999999999999645 ) ) ;
#47 = ORIENTED_EDGE ( 'NONE', *, *, #506, .F. ) ;
#48 = DIRECTION ( 'NONE',  ( 0.000000000000000000, 1.000000000000000000, 0.000000000000000000 ) ) ;
#49 = CARTESIAN_POINT ( 'NONE',  ( 4.999999999999999112, 5.000000000000000000, -11.00000000000001243 ) ) ;
#50 = LINE ( 'NONE', #722, #13 ) ;
#51 = EDGE_CURVE ( 'NONE', #228, #825, #546, .T. ) ;
#52 = CARTESIAN_POINT ( 'NONE',  ( 3.999999999999998224, 3.050000000000000711, -6.000000000000013323 ) ) ;
#53 = DIRECTION ( 'NONE',  ( 0.000000000000000000, 1.000000000000000000, 0.000000000000000000 ) ) ;
#54 = DIRECTION ( 'NONE',  ( 0.000000000000000000, 0.000000000000000000, -1.000000000000000000 ) ) ;
#55 = EDGE_LOOP ( 'NONE', ( #76, #141, #767, #131 ) ) ;
#56 = CIRCLE ( 'NONE', #769, 0.7500000000000006661 ) ;
#57 = DIRECTION ( 'NONE',  ( -0.000000000000000000, 1.000000000000000000, -0.000000000000000000 ) ) ;
#58 = FACE_OUTER_BOUND ( 'NONE', #305, .T. ) ;
#59 = CIRCLE ( 'NONE', #412, 0.7500000000000006661 ) ;
#60 = CARTESIAN_POINT ( 'NONE',  ( 9.184850993605150903E-17, -5.000000000000000888, 18.74999999999999645 ) ) ;
#61 = EDGE_LOOP ( 'NONE', ( #607, #1, #470, #391 ) ) ;
#62 = FACE_OUTER_BOUND ( 'NONE', #617, .T. ) ;
#63 = DIRECTION ( 'NONE',  ( -0.000000000000000000, 1.000000000000000000, -0.000000000000000000 ) ) ;
#64 = EDGE_CURVE ( 'NONE', #127, #793, #73, .T. ) ;
#65 = VERTEX_POINT ( 'NONE', #26 ) ;
#66 = DIRECTION ( 'NONE',  ( 0.000000000000000000, 1.000000000000000000, 0.000000000000000000 ) ) ;
#67 = ORIENTED_EDGE ( 'NONE', *, *, #356, .F. ) ;
#68 = DIRECTION ( 'NONE',  ( -0.000000000000000000, 1.000000000000000000, -0.000000000000000000 ) ) ;
#69 = ORIENTED_EDGE ( 'NONE', *, *, #854, .T. ) ;
#70 = DIRECTION ( 'NONE',  ( 0.000000000000000000, 1.000000000000000000, 0.000000000000000000 ) ) ;
#71 = ORIENTED_EDGE ( 'NONE', *, *, #93, .F. ) ;
#72 = CARTESIAN_POINT ( 'NONE',  ( 3.999999999999998224, 3.469446951953613203E-16, -6.000000000000013323 ) ) ;
#73 = CIRCLE ( 'NONE', #462, 0.7500000000000006661 ) ;
#74 = ORIENTED_EDGE ( 'NONE', *, *, #64, .T. ) ;
#75 = AXIS2_PLACEMENT_3D ( 'NONE', #736, #438, #8 ) ;
#76 = ORIENTED_EDGE ( 'NONE', *, *, #636, .F. ) ;
#77 = FILL_AREA_STYLE_COLOUR ( '', #788 ) ;
#78 = CARTESIAN_POINT ( 'NONE',  ( 0.000000000000000000, 5.000000000000000000, 17.24999999999999645 ) ) ;
#79 = VERTEX_POINT ( 'NONE', #40 ) ;
#80 = EDGE_LOOP ( 'NONE', ( #520, #385, #320, #67 ) ) ;
#81 = EDGE_CURVE ( 'NONE', #545, #79, #461, .T. ) ;
#82 = CARTESIAN_POINT ( 'NONE',  ( 5.000000000000000000, 5.000000000000000000, 50.00000000000000000 ) ) ;
#83 = LINE ( 'NONE', #675, #357 ) ;
#84 = ORIENTED_EDGE ( 'NONE', *, *, #122, .F. ) ;
#85 = VERTEX_POINT ( 'NONE', #618 ) ;
#86 = DIRECTION ( 'NONE',  ( -0.000000000000000000, 1.000000000000000000, -0.000000000000000000 ) ) ;
#87 = EDGE_CURVE ( 'NONE', #893, #226, #739, .T. ) ;
#88 = CARTESIAN_POINT ( 'NONE',  ( 4.999999999999999112, 4.336808689942017736E-16, -6.000000000000013323 ) ) ;
#89 = VECTOR ( 'NONE', #172, 1000.000000000000000 ) ;
#90 = EDGE_LOOP ( 'NONE', ( #890, #310 ) ) ;
#91 = VECTOR ( 'NONE', #164, 1000.000000000000000 ) ;
#92 = CARTESIAN_POINT ( 'NONE',  ( 15.00000000000000000, 3.050000000000001155, -6.000000000000013323 ) ) ;
#93 = EDGE_CURVE ( 'NONE', #515, #198, #27, .T. ) ;
#94 = DIRECTION ( 'NONE',  ( -1.000000000000000000, -8.673617379884034239E-17, 0.000000000000000000 ) ) ;
#95 = ORIENTED_EDGE ( 'NONE', *, *, #685, .T. ) ;
#96 = DIRECTION ( 'NONE',  ( 0.000000000000000000, 0.000000000000000000, 1.000000000000000000 ) ) ;
#97 = EDGE_CURVE ( 'NONE', #326, #746, #247, .T. ) ;
#98 = ORIENTED_EDGE ( 'NONE', *, *, #908, .T. ) ;
#99 = FACE_OUTER_BOUND ( 'NONE', #2, .T. ) ;
#100 = CARTESIAN_POINT ( 'NONE',  ( 4.000000000000003553, 3.469446951953617147E-16, 45.00000000000000711 ) ) ;
#101 =( GEOMETRIC_REPRESENTATION_CONTEXT ( 3 ) GLOBAL_UNCERTAINTY_ASSIGNED_CONTEXT ( ( #325 ) ) GLOBAL_UNIT_ASSIGNED_CONTEXT ( ( #657, #138, #601 ) ) REPRESENTATION_CONTEXT ( 'NONE', 'WORKASPACE' ) );
#102 = ORIENTED_EDGE ( 'NONE', *, *, #191, .F. ) ;
#103 = CARTESIAN_POINT ( 'NONE',  ( 4.999999999999999112, 5.000000000000000000, -11.00000000000001243 ) ) ;
#104 = CIRCLE ( 'NONE', #182, 3.049999999999999822 ) ;
#105 = AXIS2_PLACEMENT_3D ( 'NONE', #939, #494, #718 ) ;
#106 = CARTESIAN_POINT ( 'NONE',  ( 0.000000000000000000, -5.000000000000000888, 10.49999999999999467 ) ) ;
#107 = CIRCLE ( 'NONE', #913, 0.7500000000000006661 ) ;
#108 = CARTESIAN_POINT ( 'NONE',  ( 9.184850993605150903E-17, 5.000000000000000000, 9.749999999999994671 ) ) ;
#109 = CARTESIAN_POINT ( 'NONE',  ( 5.000000000000000000, -5.000000000000000000, 8.999999999999987566 ) ) ;
#110 = EDGE_CURVE ( 'NONE', #452, #123, #691, .T. ) ;
#111 = CARTESIAN_POINT ( 'NONE',  ( 0.000000000000000000, -5.000000000000000888, 17.24999999999999645 ) ) ;
#112 = DIRECTION ( 'NONE',  ( 0.000000000000000000, 0.000000000000000000, 1.000000000000000000 ) ) ;
#113 = APPLICATION_CONTEXT ( 'automotive_design' ) ;
#114 = DIRECTION ( 'NONE',  ( -0.000000000000000000, 1.000000000000000000, -0.000000000000000000 ) ) ;
#115 = EDGE_CURVE ( 'NONE', #729, #468, #37, .T. ) ;
#116 = DIRECTION ( 'NONE',  ( 0.000000000000000000, 0.000000000000000000, 1.000000000000000000 ) ) ;
#117 = DIRECTION ( 'NONE',  ( -1.000000000000000000, -8.673617379884034239E-17, 0.000000000000000000 ) ) ;
#118 = CIRCLE ( 'NONE', #134, 0.7500000000000006661 ) ;
#119 = CIRCLE ( 'NONE', #292, 0.7500000000000006661 ) ;
#120 = FACE_BOUND ( 'NONE', #451, .T. ) ;
#121 = VECTOR ( 'NONE', #354, 1000.000000000000000 ) ;
#122 = EDGE_CURVE ( 'NONE', #510, #65, #104, .T. ) ;
#123 = VERTEX_POINT ( 'NONE', #556 ) ;
#124 = CARTESIAN_POINT ( 'NONE',  ( -5.000000000000000888, 5.000000000000000000, 8.999999999999987566 ) ) ;
#125 = CYLINDRICAL_SURFACE ( 'NONE', #706, 0.7500000000000006661 ) ;
#126 = DIRECTION ( 'NONE',  ( 0.000000000000000000, -1.000000000000000000, 0.000000000000000000 ) ) ;
#127 = VERTEX_POINT ( 'NONE', #853 ) ;
#128 = DIRECTION ( 'NONE',  ( 0.000000000000000000, 1.000000000000000000, 0.000000000000000000 ) ) ;
#129 = CARTESIAN_POINT ( 'NONE',  ( 0.000000000000000000, 5.000000000000000000, 22.50000000000000000 ) ) ;
#130 = CARTESIAN_POINT ( 'NONE',  ( 0.000000000000000000, -16.00000000000001066, 13.49999999999999822 ) ) ;
#131 = ORIENTED_EDGE ( 'NONE', *, *, #942, .F. ) ;
#132 = DIRECTION ( 'NONE',  ( -0.000000000000000000, 1.000000000000000000, -0.000000000000000000 ) ) ;
#133 = DIRECTION ( 'NONE',  ( 1.000000000000000000, 0.000000000000000000, 0.000000000000000000 ) ) ;
#134 = AXIS2_PLACEMENT_3D ( 'NONE', #277, #860, #792 ) ;
#135 = ORIENTED_EDGE ( 'NONE', *, *, #187, .T. ) ;
#136 = VECTOR ( 'NONE', #466, 1000.000000000000000 ) ;
#137 = ORIENTED_EDGE ( 'NONE', *, *, #459, .T. ) ;
#138 =( NAMED_UNIT ( * ) PLANE_ANGLE_UNIT ( ) SI_UNIT ( $, .RADIAN. ) );
#139 = ADVANCED_FACE ( 'NONE', ( #186 ), #483, .F. ) ;
#140 = LINE ( 'NONE', #806, #290 ) ;
#141 = ORIENTED_EDGE ( 'NONE', *, *, #9, .T. ) ;
#142 = DIRECTION ( 'NONE',  ( 0.000000000000000000, 1.000000000000000000, 0.000000000000000000 ) ) ;
#143 = VERTEX_POINT ( 'NONE', #660 ) ;
#144 = DIRECTION ( 'NONE',  ( 0.000000000000000000, 0.000000000000000000, 1.000000000000000000 ) ) ;
#145 = ORIENTED_EDGE ( 'NONE', *, *, #797, .T. ) ;
#146 = ORIENTED_EDGE ( 'NONE', *, *, #780, .F. ) ;
#147 = DIRECTION ( 'NONE',  ( 0.000000000000000000, 1.000000000000000000, 0.000000000000000000 ) ) ;
#148 = CIRCLE ( 'NONE', #165, 0.7500000000000006661 ) ;
#149 = EDGE_LOOP ( 'NONE', ( #751, #844, #306, #366 ) ) ;
#150 = AXIS2_PLACEMENT_3D ( 'NONE', #800, #286, #10 ) ;
#151 = EDGE_CURVE ( 'NONE', #613, #198, #365, .T. ) ;
#152 = CIRCLE ( 'NONE', #75, 0.7500000000000006661 ) ;
#153 = ORIENTED_EDGE ( 'NONE', *, *, #780, .T. ) ;
#154 = VECTOR ( 'NONE', #948, 1000.000000000000000 ) ;
#155 = DIRECTION ( 'NONE',  ( 0.000000000000000000, -1.000000000000000000, 0.000000000000000000 ) ) ;
#156 = ORIENTED_EDGE ( 'NONE', *, *, #574, .F. ) ;
#157 = ORIENTED_EDGE ( 'NONE', *, *, #703, .T. ) ;
#158 = EDGE_LOOP ( 'NONE', ( #719, #137, #12, #407 ) ) ;
#159 = EDGE_CURVE ( 'NONE', #672, #613, #29, .T. ) ;
#160 = CARTESIAN_POINT ( 'NONE',  ( 9.184850993605150903E-17, -5.000000000000000888, 27.74999999999999645 ) ) ;
#161 = CARTESIAN_POINT ( 'NONE',  ( 0.000000000000000000, -16.00000000000001066, 16.49999999999999645 ) ) ;
#162 = EDGE_LOOP ( 'NONE', ( #898, #885, #214, #511 ) ) ;
#163 = EDGE_CURVE ( 'NONE', #532, #11, #195, .T. ) ;
#164 = DIRECTION ( 'NONE',  ( -0.000000000000000000, 1.000000000000000000, -0.000000000000000000 ) ) ;
#165 = AXIS2_PLACEMENT_3D ( 'NONE', #405, #486, #781 ) ;
#166 = ORIENTED_EDGE ( 'NONE', *, *, #93, .T. ) ;
#167 = AXIS2_PLACEMENT_3D ( 'NONE', #665, #147, #658 ) ;
#168 = FACE_OUTER_BOUND ( 'NONE', #921, .T. ) ;
#169 = EDGE_CURVE ( 'NONE', #293, #143, #118, .T. ) ;
#170 = VERTEX_POINT ( 'NONE', #353 ) ;
#171 = CARTESIAN_POINT ( 'NONE',  ( -5.000000000000000888, -4.336808689942017736E-16, -6.000000000000013323 ) ) ;
#172 = DIRECTION ( 'NONE',  ( 1.000000000000000000, 0.000000000000000000, 0.000000000000000000 ) ) ;
#173 = DIRECTION ( 'NONE',  ( 1.000000000000000000, 0.000000000000000000, 0.000000000000000000 ) ) ;
#174 = DIRECTION ( 'NONE',  ( 0.000000000000000000, 1.000000000000000000, 0.000000000000000000 ) ) ;
#175 = EDGE_LOOP ( 'NONE', ( #838, #102, #752, #230 ) ) ;
#176 = DIRECTION ( 'NONE',  ( 0.000000000000000000, -1.000000000000000000, 0.000000000000000000 ) ) ;
#177 = CARTESIAN_POINT ( 'NONE',  ( 15.00000000000000000, 1.301042606982605124E-15, -6.000000000000013323 ) ) ;
#178 = FACE_OUTER_BOUND ( 'NONE', #61, .T. ) ;
#179 = ORIENTED_EDGE ( 'NONE', *, *, #555, .F. ) ;
#180 = EDGE_CURVE ( 'NONE', #326, #300, #50, .T. ) ;
#181 = CARTESIAN_POINT ( 'NONE',  ( 0.000000000000000000, 5.000000000000000000, 19.49999999999999645 ) ) ;
#182 = AXIS2_PLACEMENT_3D ( 'NONE', #332, #775, #626 ) ;
#183 = VECTOR ( 'NONE', #808, 1000.000000000000114 ) ;
#184 = VECTOR ( 'NONE', #114, 1000.000000000000000 ) ;
#185 = CARTESIAN_POINT ( 'NONE',  ( 9.184850993605150903E-17, 5.000000000000000000, 21.75000000000000000 ) ) ;
#186 = FACE_OUTER_BOUND ( 'NONE', #904, .T. ) ;
#187 = EDGE_CURVE ( 'NONE', #733, #667, #773, .T. ) ;
#188 = CARTESIAN_POINT ( 'NONE',  ( 4.999999999999999112, 4.336808689942017736E-16, 45.00000000000000711 ) ) ;
#189 = CARTESIAN_POINT ( 'NONE',  ( 9.184850993605150903E-17, 5.000000000000000000, 12.74999999999999822 ) ) ;
#190 = CARTESIAN_POINT ( 'NONE',  ( 0.000000000000000000, 0.000000000000000000, -11.00000000000001243 ) ) ;
#191 = EDGE_CURVE ( 'NONE', #926, #530, #575, .T. ) ;
#192 = CARTESIAN_POINT ( 'NONE',  ( 0.000000000000000000, 0.000000000000000000, 50.00000000000000000 ) ) ;
#193 = ORIENTED_EDGE ( 'NONE', *, *, #920, .T. ) ;
#194 = CARTESIAN_POINT ( 'NONE',  ( 15.00000000000000000, 1.301042606982605124E-15, 45.00000000000000711 ) ) ;
#195 = CIRCLE ( 'NONE', #834, 0.7500000000000006661 ) ;
#196 = VECTOR ( 'NONE', #558, 1000.000000000000000 ) ;
#197 = DIRECTION ( 'NONE',  ( -0.000000000000000000, 1.000000000000000000, -0.000000000000000000 ) ) ;
#198 = VERTEX_POINT ( 'NONE', #873 ) ;
#199 = CARTESIAN_POINT ( 'NONE',  ( 5.000000000000000000, 5.000000000000000000, 50.00000000000000000 ) ) ;
#200 = DIRECTION ( 'NONE',  ( 0.000000000000000000, -1.000000000000000000, 0.000000000000000000 ) ) ;
#201 = CARTESIAN_POINT ( 'NONE',  ( 0.000000000000000000, -16.00000000000001066, 20.24999999999999645 ) ) ;
#202 = CARTESIAN_POINT ( 'NONE',  ( 9.184850993605154600E-17, -16.00000000000001066, 15.74999999999999645 ) ) ;
#203 = VERTEX_POINT ( 'NONE', #883 ) ;
#204 = CARTESIAN_POINT ( 'NONE',  ( 0.000000000000000000, 5.000000000000000000, 22.50000000000000000 ) ) ;
#205 = CARTESIAN_POINT ( 'NONE',  ( 3.999999999999998224, 3.469446951953613203E-16, -6.000000000000013323 ) ) ;
#206 = DIRECTION ( 'NONE',  ( -0.000000000000000000, 1.000000000000000000, -0.000000000000000000 ) ) ;
#207 = EDGE_LOOP ( 'NONE', ( #267, #271 ) ) ;
#208 = SURFACE_SIDE_STYLE ('',( #455 ) ) ;
#209 = CARTESIAN_POINT ( 'NONE',  ( 0.000000000000000000, 5.000000000000000000, 19.49999999999999645 ) ) ;
#210 = VECTOR ( 'NONE', #783, 1000.000000000000000 ) ;
#211 = ORIENTED_EDGE ( 'NONE', *, *, #302, .F. ) ;
#212 = CIRCLE ( 'NONE', #710, 0.7500000000000006661 ) ;
#213 = CARTESIAN_POINT ( 'NONE',  ( 0.000000000000000000, -5.000000000000000888, 22.50000000000000000 ) ) ;
#214 = ORIENTED_EDGE ( 'NONE', *, *, #629, .F. ) ;
#215 =( NAMED_UNIT ( * ) SI_UNIT ( $, .STERADIAN. ) SOLID_ANGLE_UNIT ( ) );
#216 = FACE_OUTER_BOUND ( 'NONE', #55, .T. ) ;
#217 = ORIENTED_EDGE ( 'NONE', *, *, #340, .F. ) ;
#218 = ORIENTED_EDGE ( 'NONE', *, *, #402, .F. ) ;
#219 = SURFACE_SIDE_STYLE ('',( #967 ) ) ;
#220 = DIRECTION ( 'NONE',  ( 0.000000000000000000, 1.000000000000000000, 0.000000000000000000 ) ) ;
#221 = EDGE_CURVE ( 'NONE', #85, #932, #884, .T. ) ;
#222 = EDGE_LOOP ( 'NONE', ( #369, #598, #166, #639 ) ) ;
#223 = ORIENTED_EDGE ( 'NONE', *, *, #784, .T. ) ;
#224 = DIRECTION ( 'NONE',  ( 0.000000000000000000, 1.000000000000000000, 0.000000000000000000 ) ) ;
#225 = EDGE_CURVE ( 'NONE', #667, #688, #642, .T. ) ;
#226 = VERTEX_POINT ( 'NONE', #60 ) ;
#227 = AXIS2_PLACEMENT_3D ( 'NONE', #130, #419, #359 ) ;
#228 = VERTEX_POINT ( 'NONE', #649 ) ;
#229 = AXIS2_PLACEMENT_3D ( 'NONE', #315, #679, #220 ) ;
#230 = ORIENTED_EDGE ( 'NONE', *, *, #115, .F. ) ;
#231 = CYLINDRICAL_SURFACE ( 'NONE', #664, 0.7500000000000006661 ) ;
#232 = DIRECTION ( 'NONE',  ( 0.000000000000000000, 1.000000000000000000, 0.000000000000000000 ) ) ;
#233 = ORIENTED_EDGE ( 'NONE', *, *, #221, .F. ) ;
#234 = EDGE_LOOP ( 'NONE', ( #686, #590, #447, #753 ) ) ;
#235 = DIRECTION ( 'NONE',  ( 0.000000000000000000, -1.000000000000000000, 0.000000000000000000 ) ) ;
#236 = DIRECTION ( 'NONE',  ( 0.000000000000000000, 0.000000000000000000, 1.000000000000000000 ) ) ;
#237 = ORIENTED_EDGE ( 'NONE', *, *, #87, .T. ) ;
#238 = PRODUCT_DEFINITION ( 'UNKNOWN', '', #239, #252 ) ;
#239 = PRODUCT_DEFINITION_FORMATION_WITH_SPECIFIED_SOURCE ( 'ANY', '', #481, .NOT_KNOWN. ) ;
#240 = CARTESIAN_POINT ( 'NONE',  ( 4.000000000000003553, 3.049999999999998934, 45.00000000000000711 ) ) ;
#241 = ORIENTED_EDGE ( 'NONE', *, *, #409, .T. ) ;
#242 = AXIS2_PLACEMENT_3D ( 'NONE', #35, #333, #547 ) ;
#243 = AXIS2_PLACEMENT_3D ( 'NONE', #909, #174, #256 ) ;
#244 = PRESENTATION_LAYER_ASSIGNMENT (  '', '', ( #413 ) ) ;
#245 = CARTESIAN_POINT ( 'NONE',  ( 0.000000000000000000, 5.000000000000000000, 28.49999999999999645 ) ) ;
#246 = EDGE_LOOP ( 'NONE', ( #828, #514 ) ) ;
#247 = LINE ( 'NONE', #109, #864 ) ;
#248 = CARTESIAN_POINT ( 'NONE',  ( 4.999999999999999112, -5.000000000000000000, -11.00000000000001243 ) ) ;
#249 = CARTESIAN_POINT ( 'NONE',  ( 4.999999999999999112, 5.000000000000000000, 8.999999999999987566 ) ) ;
#250 = EDGE_CURVE ( 'NONE', #613, #545, #955, .T. ) ;
#251 = EDGE_LOOP ( 'NONE', ( #424, #211 ) ) ;
#252 = PRODUCT_DEFINITION_CONTEXT ( 'detailed design', #831, 'design' ) ;
#253 = ORIENTED_EDGE ( 'NONE', *, *, #903, .T. ) ;
#254 =( NAMED_UNIT ( * ) PLANE_ANGLE_UNIT ( ) SI_UNIT ( $, .RADIAN. ) );
#255 = DIRECTION ( 'NONE',  ( 0.000000000000000000, 0.000000000000000000, -1.000000000000000000 ) ) ;
#256 = DIRECTION ( 'NONE',  ( 0.000000000000000000, 0.000000000000000000, 1.000000000000000000 ) ) ;
#257 = EDGE_CURVE ( 'NONE', #300, #729, #282, .T. ) ;
#258 = DIRECTION ( 'NONE',  ( 0.000000000000000000, 0.000000000000000000, -1.000000000000000000 ) ) ;
#259 = CIRCLE ( 'NONE', #242, 0.7500000000000006661 ) ;
#260 = DIRECTION ( 'NONE',  ( 0.000000000000000000, -1.000000000000000000, 0.000000000000000000 ) ) ;
#261 = LINE ( 'NONE', #612, #196 ) ;
#262 = ORIENTED_EDGE ( 'NONE', *, *, #110, .T. ) ;
#263 = EDGE_CURVE ( 'NONE', #430, #600, #355, .T. ) ;
#264 = CYLINDRICAL_SURFACE ( 'NONE', #32, 3.049999999999998046 ) ;
#265 = CYLINDRICAL_SURFACE ( 'NONE', #944, 0.7500000000000006661 ) ;
#266 = CARTESIAN_POINT ( 'NONE',  ( 0.000000000000000000, -5.000000000000000888, 19.49999999999999645 ) ) ;
#267 = ORIENTED_EDGE ( 'NONE', *, *, #87, .F. ) ;
#268 = ADVANCED_FACE ( 'NONE', ( #504 ), #311, .F. ) ;
#269 = DIRECTION ( 'NONE',  ( 1.000000000000000000, 8.673617379884033007E-17, 0.000000000000000000 ) ) ;
#270 = DIRECTION ( 'NONE',  ( 0.000000000000000000, 1.000000000000000000, 0.000000000000000000 ) ) ;
#271 = ORIENTED_EDGE ( 'NONE', *, *, #703, .F. ) ;
#272 = AXIS2_PLACEMENT_3D ( 'NONE', #922, #845, #258 ) ;
#273 = LINE ( 'NONE', #199, #542 ) ;
#274 = CIRCLE ( 'NONE', #632, 3.049999999999998046 ) ;
#275 = FACE_OUTER_BOUND ( 'NONE', #878, .T. ) ;
#276 = VECTOR ( 'NONE', #3, 1000.000000000000000 ) ;
#277 = CARTESIAN_POINT ( 'NONE',  ( 0.000000000000000000, -5.000000000000000888, 25.50000000000000000 ) ) ;
#278 = ORIENTED_EDGE ( 'NONE', *, *, #225, .T. ) ;
#279 = LINE ( 'NONE', #496, #184 ) ;
#280 = LINE ( 'NONE', #418, #42 ) ;
#281 = EDGE_CURVE ( 'NONE', #170, #203, #478, .T. ) ;
#282 = LINE ( 'NONE', #579, #523 ) ;
#283 = ORIENTED_EDGE ( 'NONE', *, *, #281, .T. ) ;
#284 = CARTESIAN_POINT ( 'NONE',  ( 9.184850993605154600E-17, -16.00000000000001066, 27.74999999999999645 ) ) ;
#285 = DIRECTION ( 'NONE',  ( 0.000000000000000000, 0.000000000000000000, 1.000000000000000000 ) ) ;
#286 = DIRECTION ( 'NONE',  ( 0.000000000000000000, 1.000000000000000000, 0.000000000000000000 ) ) ;
#287 = ORIENTED_EDGE ( 'NONE', *, *, #891, .F. ) ;
#288 = EDGE_CURVE ( 'NONE', #729, #530, #684, .T. ) ;
#289 = ORIENTED_EDGE ( 'NONE', *, *, #22, .T. ) ;
#290 = VECTOR ( 'NONE', #433, 1000.000000000000000 ) ;
#291 = DIRECTION ( 'NONE',  ( 0.000000000000000000, 0.000000000000000000, -1.000000000000000000 ) ) ;
#292 = AXIS2_PLACEMENT_3D ( 'NONE', #855, #764, #544 ) ;
#293 = VERTEX_POINT ( 'NONE', #304 ) ;
#294 = VECTOR ( 'NONE', #301, 1000.000000000000000 ) ;
#295 = ORIENTED_EDGE ( 'NONE', *, *, #439, .T. ) ;
#296 = ADVANCED_FACE ( 'NONE', ( #309 ), #316, .F. ) ;
#297 = CARTESIAN_POINT ( 'NONE',  ( 0.000000000000000000, 5.000000000000000000, 10.49999999999999467 ) ) ;
#298 = LINE ( 'NONE', #592, #945 ) ;
#299 = ORIENTED_EDGE ( 'NONE', *, *, #439, .F. ) ;
#300 = VERTEX_POINT ( 'NONE', #337 ) ;
#301 = DIRECTION ( 'NONE',  ( -1.000000000000000000, -8.673617379884034239E-17, -0.000000000000000000 ) ) ;
#302 = EDGE_CURVE ( 'NONE', #11, #532, #259, .T. ) ;
#303 = CARTESIAN_POINT ( 'NONE',  ( 0.000000000000000000, -16.00000000000001066, 23.25000000000000000 ) ) ;
#304 = CARTESIAN_POINT ( 'NONE',  ( 0.000000000000000000, -5.000000000000000888, 26.25000000000000000 ) ) ;
#305 = EDGE_LOOP ( 'NONE', ( #796, #253, #416, #609 ) ) ;
#306 = ORIENTED_EDGE ( 'NONE', *, *, #151, .T. ) ;
#307 = FILL_AREA_STYLE ('',( #77 ) ) ;
#308 = DIRECTION ( 'NONE',  ( 0.000000000000000000, 0.000000000000000000, 1.000000000000000000 ) ) ;
#309 = FACE_OUTER_BOUND ( 'NONE', #336, .T. ) ;
#310 = ORIENTED_EDGE ( 'NONE', *, *, #681, .F. ) ;
#311 = CONICAL_SURFACE ( 'NONE', #929, 3.049999999999999822, 0.7853981633974500554 ) ;
#312 = CIRCLE ( 'NONE', #822, 3.049999999999999822 ) ;
#313 = EDGE_LOOP ( 'NONE', ( #331, #644 ) ) ;
#314 = LINE ( 'NONE', #826, #837 ) ;
#315 = CARTESIAN_POINT ( 'NONE',  ( 4.000000000000003553, 3.469446951953617147E-16, 45.00000000000000711 ) ) ;
#316 = CYLINDRICAL_SURFACE ( 'NONE', #389, 0.7500000000000006661 ) ;
#317 = EDGE_CURVE ( 'NONE', #143, #293, #785, .T. ) ;
#318 = VERTEX_POINT ( 'NONE', #627 ) ;
#319 = CARTESIAN_POINT ( 'NONE',  ( -5.000000000000000888, 5.000000000000000000, 8.999999999999987566 ) ) ;
#320 = ORIENTED_EDGE ( 'NONE', *, *, #797, .F. ) ;
#321 = FACE_OUTER_BOUND ( 'NONE', #437, .T. ) ;
#322 = AXIS2_PLACEMENT_3D ( 'NONE', #34, #918, #176 ) ;
#323 = ORIENTED_EDGE ( 'NONE', *, *, #9, .F. ) ;
#324 = CIRCLE ( 'NONE', #758, 0.7500000000000006661 ) ;
#325 = UNCERTAINTY_MEASURE_WITH_UNIT (LENGTH_MEASURE( 1.000000000000000082E-05 ), #657, 'distance_accuracy_value', 'NONE');
#326 = VERTEX_POINT ( 'NONE', #248 ) ;
#327 = CONICAL_SURFACE ( 'NONE', #867, 3.049999999999998046, 0.7853981633974503884 ) ;
#328 = AXIS2_PLACEMENT_3D ( 'NONE', #487, #712, #779 ) ;
#329 = EDGE_CURVE ( 'NONE', #569, #228, #568, .T. ) ;
#330 = DIRECTION ( 'NONE',  ( 0.000000000000000000, 1.000000000000000000, 0.000000000000000000 ) ) ;
#331 = ORIENTED_EDGE ( 'NONE', *, *, #169, .F. ) ;
#332 = CARTESIAN_POINT ( 'NONE',  ( -5.000000000000000888, -4.336808689942017736E-16, -6.000000000000013323 ) ) ;
#333 = DIRECTION ( 'NONE',  ( 0.000000000000000000, 1.000000000000000000, 0.000000000000000000 ) ) ;
#334 = CARTESIAN_POINT ( 'NONE',  ( -5.000000000000000888, 5.000000000000000000, 50.00000000000000000 ) ) ;
#335 = ADVANCED_FACE ( 'NONE', ( #551 ), #696, .F. ) ;
#336 = EDGE_LOOP ( 'NONE', ( #378, #420, #525, #907 ) ) ;
#337 = CARTESIAN_POINT ( 'NONE',  ( -5.000000000000000888, -5.000000000000000000, -11.00000000000001243 ) ) ;
#338 = FACE_OUTER_BOUND ( 'NONE', #694, .T. ) ;
#339 = PRESENTATION_LAYER_ASSIGNMENT (  '', '', ( #957 ) ) ;
#340 = EDGE_CURVE ( 'NONE', #65, #510, #554, .T. ) ;
#341 = ORIENTED_EDGE ( 'NONE', *, *, #395, .T. ) ;
#342 = VECTOR ( 'NONE', #689, 1000.000000000000000 ) ;
#343 = VECTOR ( 'NONE', #938, 1000.000000000000000 ) ;
#344 = FACE_BOUND ( 'NONE', #453, .T. ) ;
#345 = CARTESIAN_POINT ( 'NONE',  ( 0.000000000000000000, -16.00000000000001066, 26.25000000000000000 ) ) ;
#346 = DIRECTION ( 'NONE',  ( 0.000000000000000000, 1.000000000000000000, 0.000000000000000000 ) ) ;
#347 = VERTEX_POINT ( 'NONE', #839 ) ;
#348 = CARTESIAN_POINT ( 'NONE',  ( 0.000000000000000000, -16.00000000000001066, 17.24999999999999645 ) ) ;
#349 = FACE_BOUND ( 'NONE', #947, .T. ) ;
#350 = ORIENTED_EDGE ( 'NONE', *, *, #533, .F. ) ;
#351 = FACE_BOUND ( 'NONE', #861, .T. ) ;
#352 = CARTESIAN_POINT ( 'NONE',  ( 0.000000000000000000, -16.00000000000001066, 13.49999999999999822 ) ) ;
#353 = CARTESIAN_POINT ( 'NONE',  ( 0.000000000000000000, 5.000000000000000000, 26.25000000000000000 ) ) ;
#354 = DIRECTION ( 'NONE',  ( 0.000000000000000000, 0.000000000000000000, 1.000000000000000000 ) ) ;
#355 = CIRCLE ( 'NONE', #678, 4.050000000000005151 ) ;
#356 = EDGE_CURVE ( 'NONE', #672, #79, #469, .T. ) ;
#357 = VECTOR ( 'NONE', #308, 1000.000000000000000 ) ;
#358 = CARTESIAN_POINT ( 'NONE',  ( 0.000000000000000000, -16.00000000000001066, 22.50000000000000000 ) ) ;
#359 = DIRECTION ( 'NONE',  ( 0.000000000000000000, 0.000000000000000000, 1.000000000000000000 ) ) ;
#360 = EDGE_LOOP ( 'NONE', ( #146, #241, #682, #583 ) ) ;
#361 = CYLINDRICAL_SURFACE ( 'NONE', #328, 0.7500000000000006661 ) ;
#362 = DIRECTION ( 'NONE',  ( 0.000000000000000000, 0.000000000000000000, 1.000000000000000000 ) ) ;
#363 = ADVANCED_FACE ( 'NONE', ( #619 ), #776, .F. ) ;
#364 = ORIENTED_EDGE ( 'NONE', *, *, #512, .T. ) ;
#365 = LINE ( 'NONE', #564, #616 ) ;
#366 = ORIENTED_EDGE ( 'NONE', *, *, #499, .T. ) ;
#367 = CARTESIAN_POINT ( 'NONE',  ( 0.000000000000000000, -16.00000000000001066, 10.49999999999999467 ) ) ;
#368 = LINE ( 'NONE', #303, #91 ) ;
#369 = ORIENTED_EDGE ( 'NONE', *, *, #566, .T. ) ;
#370 = EDGE_CURVE ( 'NONE', #293, #170, #559, .T. ) ;
#371 = DIRECTION ( 'NONE',  ( -1.000000000000000000, -0.000000000000000000, -0.000000000000000000 ) ) ;
#372 = ORIENTED_EDGE ( 'NONE', *, *, #395, .F. ) ;
#373 = AXIS2_PLACEMENT_3D ( 'NONE', #396, #631, #116 ) ;
#374 = CIRCLE ( 'NONE', #911, 0.7500000000000006661 ) ;
#375 = CARTESIAN_POINT ( 'NONE',  ( 0.000000000000000000, 5.000000000000000000, 28.49999999999999645 ) ) ;
#376 = AXIS2_PLACEMENT_3D ( 'NONE', #19, #687, #31 ) ;
#377 = ORIENTED_EDGE ( 'NONE', *, *, #768, .F. ) ;
#378 = ORIENTED_EDGE ( 'NONE', *, *, #533, .T. ) ;
#379 = ADVANCED_FACE ( 'NONE', ( #58 ), #125, .F. ) ;
#380 = FILL_AREA_STYLE ('',( #662 ) ) ;
#381 = CARTESIAN_POINT ( 'NONE',  ( 3.999999999999998224, -3.049999999999999378, -6.000000000000013323 ) ) ;
#382 = ORIENTED_EDGE ( 'NONE', *, *, #329, .F. ) ;
#383 = ORIENTED_EDGE ( 'NONE', *, *, #954, .F. ) ;
#384 = CARTESIAN_POINT ( 'NONE',  ( -5.000000000000000888, 5.000000000000000000, 50.00000000000000000 ) ) ;
#385 = ORIENTED_EDGE ( 'NONE', *, *, #250, .T. ) ;
#386 = ORIENTED_EDGE ( 'NONE', *, *, #872, .T. ) ;
#387 = CYLINDRICAL_SURFACE ( 'NONE', #15, 3.049999999999998046 ) ;
#388 = ADVANCED_FACE ( 'NONE', ( #717 ), #573, .F. ) ;
#389 = AXIS2_PLACEMENT_3D ( 'NONE', #928, #477, #516 ) ;
#390 = CONICAL_SURFACE ( 'NONE', #852, 3.049999999999998046, 0.7853981633974503884 ) ;
#391 = ORIENTED_EDGE ( 'NONE', *, *, #257, .F. ) ;
#392 = CARTESIAN_POINT ( 'NONE',  ( 0.000000000000000000, -16.00000000000001066, 22.50000000000000000 ) ) ;
#393 = EDGE_LOOP ( 'NONE', ( #156, #580 ) ) ;
#394 = DIRECTION ( 'NONE',  ( 0.000000000000000000, 1.000000000000000000, 0.000000000000000000 ) ) ;
#395 = EDGE_CURVE ( 'NONE', #793, #127, #324, .T. ) ;
#396 = CARTESIAN_POINT ( 'NONE',  ( 0.000000000000000000, -16.00000000000001066, 19.49999999999999645 ) ) ;
#397 = APPLICATION_PROTOCOL_DEFINITION ( 'draft international standard', 'automotive_design', 1998, #831 ) ;
#398 = CARTESIAN_POINT ( 'NONE',  ( 0.000000000000000000, 5.000000000000000000, 25.50000000000000000 ) ) ;
#399 = ORIENTED_EDGE ( 'NONE', *, *, #574, .T. ) ;
#400 = CYLINDRICAL_SURFACE ( 'NONE', #373, 0.7500000000000006661 ) ;
#401 = CIRCLE ( 'NONE', #680, 0.7500000000000006661 ) ;
#402 = EDGE_CURVE ( 'NONE', #893, #127, #795, .T. ) ;
#403 = DIRECTION ( 'NONE',  ( 0.000000000000000000, -1.000000000000000000, 0.000000000000000000 ) ) ;
#404 = DIRECTION ( 'NONE',  ( 0.000000000000000000, 1.000000000000000000, 0.000000000000000000 ) ) ;
#405 = CARTESIAN_POINT ( 'NONE',  ( 0.000000000000000000, -5.000000000000000888, 22.50000000000000000 ) ) ;
#406 = DIRECTION ( 'NONE',  ( 0.000000000000000000, 0.000000000000000000, 1.000000000000000000 ) ) ;
#407 = ORIENTED_EDGE ( 'NONE', *, *, #51, .F. ) ;
#408 = CARTESIAN_POINT ( 'NONE',  ( 0.000000000000000000, -5.000000000000000888, 20.24999999999999645 ) ) ;
#409 = EDGE_CURVE ( 'NONE', #789, #576, #463, .T. ) ;
#410 = LINE ( 'NONE', #709, #89 ) ;
#411 = AXIS2_PLACEMENT_3D ( 'NONE', #475, #260, #255 ) ;
#412 = AXIS2_PLACEMENT_3D ( 'NONE', #398, #330, #406 ) ;
#413 = STYLED_ITEM ( 'NONE', ( #887 ), #959 ) ;
#414 = DIRECTION ( 'NONE',  ( 0.000000000000000000, 1.000000000000000000, 0.000000000000000000 ) ) ;
#415 = CARTESIAN_POINT ( 'NONE',  ( -5.000000000000000888, -4.336808689942017736E-16, 45.00000000000000711 ) ) ;
#416 = ORIENTED_EDGE ( 'NONE', *, *, #829, .T. ) ;
#417 = LINE ( 'NONE', #284, #446 ) ;
#418 = CARTESIAN_POINT ( 'NONE',  ( 9.184850993605154600E-17, -16.00000000000001066, 24.74999999999999645 ) ) ;
#419 = DIRECTION ( 'NONE',  ( -0.000000000000000000, 1.000000000000000000, -0.000000000000000000 ) ) ;
#420 = ORIENTED_EDGE ( 'NONE', *, *, #891, .T. ) ;
#421 = DIRECTION ( 'NONE',  ( 0.000000000000000000, -0.000000000000000000, 1.000000000000000000 ) ) ;
#422 = FACE_BOUND ( 'NONE', #457, .T. ) ;
#423 = DIRECTION ( 'NONE',  ( 1.000000000000000000, 8.673617379884033007E-17, 0.000000000000000000 ) ) ;
#424 = ORIENTED_EDGE ( 'NONE', *, *, #163, .F. ) ;
#425 = CLOSED_SHELL ( 'NONE', ( #811, #605, #363, #561, #296, #886, #379, #707, #586, #139, #912, #748, #857, #727, #467, #493, #388, #611, #28, #738, #434, #335, #484, #877, #843, #17, #268, #760 ) ) ;
#426 = LINE ( 'NONE', #870, #121 ) ;
#427 = VECTOR ( 'NONE', #371, 1000.000000000000000 ) ;
#428 = CIRCLE ( 'NONE', #508, 4.049999999999999822 ) ;
#429 = DIRECTION ( 'NONE',  ( 0.000000000000000000, 0.000000000000000000, 1.000000000000000000 ) ) ;
#430 = VERTEX_POINT ( 'NONE', #934 ) ;
#431 = CARTESIAN_POINT ( 'NONE',  ( 3.999999999999998224, 3.469446951953613203E-16, -6.000000000000013323 ) ) ;
#432 = ORIENTED_EDGE ( 'NONE', *, *, #317, .T. ) ;
#433 = DIRECTION ( 'NONE',  ( -0.000000000000000000, 1.000000000000000000, -0.000000000000000000 ) ) ;
#434 = ADVANCED_FACE ( 'NONE', ( #652 ), #265, .F. ) ;
#435 = ORIENTED_EDGE ( 'NONE', *, *, #115, .T. ) ;
#436 = CARTESIAN_POINT ( 'NONE',  ( 4.999999999999999112, 4.336808689942017736E-16, -6.000000000000013323 ) ) ;
#437 = EDGE_LOOP ( 'NONE', ( #448, #289, #650, #465 ) ) ;
#438 = DIRECTION ( 'NONE',  ( 0.000000000000000000, -1.000000000000000000, 0.000000000000000000 ) ) ;
#439 = EDGE_CURVE ( 'NONE', #143, #203, #280, .T. ) ;
#440 = ORIENTED_EDGE ( 'NONE', *, *, #674, .T. ) ;
#441 = ORIENTED_EDGE ( 'NONE', *, *, #805, .F. ) ;
#442 = LINE ( 'NONE', #591, #294 ) ;
#443 = DIRECTION ( 'NONE',  ( -0.000000000000000000, 1.000000000000000000, -0.000000000000000000 ) ) ;
#444 = AXIS2_PLACEMENT_3D ( 'NONE', #204, #875, #863 ) ;
#445 = EDGE_LOOP ( 'NONE', ( #20, #25, #737, #399 ) ) ;
#446 = VECTOR ( 'NONE', #581, 1000.000000000000000 ) ;
#447 = ORIENTED_EDGE ( 'NONE', *, *, #954, .T. ) ;
#448 = ORIENTED_EDGE ( 'NONE', *, *, #903, .F. ) ;
#449 = LINE ( 'NONE', #528, #276 ) ;
#450 = CARTESIAN_POINT ( 'NONE',  ( 0.000000000000000000, 5.000000000000000000, 14.24999999999999822 ) ) ;
#451 = EDGE_LOOP ( 'NONE', ( #47, #382 ) ) ;
#452 = VERTEX_POINT ( 'NONE', #881 ) ;
#453 = EDGE_LOOP ( 'NONE', ( #501, #813 ) ) ;
#454 = EDGE_CURVE ( 'NONE', #763, #715, #374, .T. ) ;
#455 = SURFACE_STYLE_FILL_AREA ( #307 ) ;
#456 = DIRECTION ( 'NONE',  ( 0.000000000000000000, -1.000000000000000000, 0.000000000000000000 ) ) ;
#457 = EDGE_LOOP ( 'NONE', ( #6, #441 ) ) ;
#458 =( GEOMETRIC_REPRESENTATION_CONTEXT ( 3 ) GLOBAL_UNCERTAINTY_ASSIGNED_CONTEXT ( ( #849 ) ) GLOBAL_UNIT_ASSIGNED_CONTEXT ( ( #905, #254, #536 ) ) REPRESENTATION_CONTEXT ( 'NONE', 'WORKASPACE' ) );
#459 = EDGE_CURVE ( 'NONE', #569, #756, #140, .T. ) ;
#460 = LINE ( 'NONE', #92, #708 ) ;
#461 = CIRCLE ( 'NONE', #772, 4.049999999999999822 ) ;
#462 = AXIS2_PLACEMENT_3D ( 'NONE', #181, #346, #635 ) ;
#463 = CIRCLE ( 'NONE', #43, 3.049999999999999822 ) ;
#464 = CIRCLE ( 'NONE', #587, 0.7500000000000006661 ) ;
#465 = ORIENTED_EDGE ( 'NONE', *, *, #454, .T. ) ;
#466 = DIRECTION ( 'NONE',  ( 0.000000000000000000, -1.000000000000000000, 0.000000000000000000 ) ) ;
#467 = ADVANCED_FACE ( 'NONE', ( #349, #799, #578, #943, #44, #422, #120, #634 ), #728, .T. ) ;
#468 = VERTEX_POINT ( 'NONE', #49 ) ;
#469 = LINE ( 'NONE', #23, #962 ) ;
#470 = ORIENTED_EDGE ( 'NONE', *, *, #288, .F. ) ;
#471 = DIRECTION ( 'NONE',  ( -1.000000000000000000, -8.673617379884034239E-17, -0.000000000000000000 ) ) ;
#472 = FACE_BOUND ( 'NONE', #589, .T. ) ;
#473 = EDGE_LOOP ( 'NONE', ( #299, #432, #747, #283 ) ) ;
#474 = DIRECTION ( 'NONE',  ( 0.000000000000000000, -1.000000000000000000, 0.000000000000000000 ) ) ;
#475 = CARTESIAN_POINT ( 'NONE',  ( 0.000000000000000000, -5.000000000000000888, 25.50000000000000000 ) ) ;
#476 = PLANE ( 'NONE',  #490 ) ;
#477 = DIRECTION ( 'NONE',  ( -0.000000000000000000, 1.000000000000000000, -0.000000000000000000 ) ) ;
#478 = CIRCLE ( 'NONE', #150, 0.7500000000000006661 ) ;
#479 = DIRECTION ( 'NONE',  ( 0.000000000000000000, -1.000000000000000000, 0.000000000000000000 ) ) ;
#480 = CIRCLE ( 'NONE', #167, 0.7500000000000006661 ) ;
#481 = PRODUCT ( 'StaticAnchor', 'StaticAnchor', '', ( #830 ) ) ;
#482 = PLANE ( 'NONE',  #786 ) ;
#483 = CYLINDRICAL_SURFACE ( 'NONE', #227, 0.7500000000000006661 ) ;
#484 = ADVANCED_FACE ( 'NONE', ( #275 ), #859, .T. ) ;
#485 = DIRECTION ( 'NONE',  ( 0.000000000000000000, 0.000000000000000000, -1.000000000000000000 ) ) ;
#486 = DIRECTION ( 'NONE',  ( 0.000000000000000000, -1.000000000000000000, 0.000000000000000000 ) ) ;
#487 = CARTESIAN_POINT ( 'NONE',  ( 0.000000000000000000, -16.00000000000001066, 25.50000000000000000 ) ) ;
#488 = DIRECTION ( 'NONE',  ( -0.000000000000000000, 0.000000000000000000, 1.000000000000000000 ) ) ;
#489 = AXIS2_PLACEMENT_3D ( 'NONE', #713, #567, #563 ) ;
#490 = AXIS2_PLACEMENT_3D ( 'NONE', #319, #766, #702 ) ;
#491 = DIRECTION ( 'NONE',  ( -1.000000000000000000, -8.673617379884034239E-17, -0.000000000000000000 ) ) ;
#492 = DIRECTION ( 'NONE',  ( 0.000000000000000000, -1.000000000000000000, 0.000000000000000000 ) ) ;
#493 = ADVANCED_FACE ( 'NONE', ( #721 ), #876, .F. ) ;
#494 = DIRECTION ( 'NONE',  ( 0.000000000000000000, -1.000000000000000000, 0.000000000000000000 ) ) ;
#495 = EDGE_LOOP ( 'NONE', ( #677, #71 ) ) ;
#496 = CARTESIAN_POINT ( 'NONE',  ( 0.000000000000000000, -16.00000000000001066, 29.25000000000000000 ) ) ;
#497 = CARTESIAN_POINT ( 'NONE',  ( 0.000000000000000000, -16.00000000000001066, 25.50000000000000000 ) ) ;
#498 = DIRECTION ( 'NONE',  ( 1.000000000000000000, 8.673617379884025611E-17, 0.000000000000000000 ) ) ;
#499 = EDGE_CURVE ( 'NONE', #198, #515, #274, .T. ) ;
#500 = DIRECTION ( 'NONE',  ( -0.000000000000000000, 1.000000000000000000, -0.000000000000000000 ) ) ;
#501 = ORIENTED_EDGE ( 'NONE', *, *, #454, .F. ) ;
#502 = FACE_OUTER_BOUND ( 'NONE', #149, .T. ) ;
#503 = CARTESIAN_POINT ( 'NONE',  ( 0.000000000000000000, -16.00000000000001066, 10.49999999999999467 ) ) ;
#504 = FACE_OUTER_BOUND ( 'NONE', #585, .T. ) ;
#505 = ORIENTED_EDGE ( 'NONE', *, *, #281, .F. ) ;
#506 = EDGE_CURVE ( 'NONE', #228, #569, #604, .T. ) ;
#507 = AXIS2_PLACEMENT_3D ( 'NONE', #543, #917, #236 ) ;
#508 = AXIS2_PLACEMENT_3D ( 'NONE', #188, #117, #48 ) ;
#509 = DIRECTION ( 'NONE',  ( 0.000000000000000000, 0.000000000000000000, 1.000000000000000000 ) ) ;
#510 = VERTEX_POINT ( 'NONE', #895 ) ;
#511 = ORIENTED_EDGE ( 'NONE', *, *, #180, .F. ) ;
#512 = EDGE_CURVE ( 'NONE', #600, #430, #45, .T. ) ;
#513 = DIRECTION ( 'NONE',  ( -1.000000000000000000, -8.673617379884034239E-17, 0.000000000000000000 ) ) ;
#514 = ORIENTED_EDGE ( 'NONE', *, *, #597, .F. ) ;
#515 = VERTEX_POINT ( 'NONE', #810 ) ;
#516 = DIRECTION ( 'NONE',  ( 0.000000000000000000, 0.000000000000000000, 1.000000000000000000 ) ) ;
#517 = SURFACE_STYLE_USAGE ( .BOTH. , #219 ) ;
#518 = DIRECTION ( 'NONE',  ( 0.000000000000000000, -1.000000000000000000, 0.000000000000000000 ) ) ;
#519 = ORIENTED_EDGE ( 'NONE', *, *, #97, .F. ) ;
#520 = ORIENTED_EDGE ( 'NONE', *, *, #566, .F. ) ;
#521 =( NAMED_UNIT ( * ) PLANE_ANGLE_UNIT ( ) SI_UNIT ( $, .RADIAN. ) );
#522 = AXIS2_PLACEMENT_3D ( 'NONE', #623, #770, #474 ) ;
#523 = VECTOR ( 'NONE', #206, 1000.000000000000000 ) ;
#524 = DIRECTION ( 'NONE',  ( 0.000000000000000000, 0.000000000000000000, 1.000000000000000000 ) ) ;
#525 = ORIENTED_EDGE ( 'NONE', *, *, #681, .T. ) ;
#526 = EDGE_CURVE ( 'NONE', #85, #763, #368, .T. ) ;
#527 = ORIENTED_EDGE ( 'NONE', *, *, #263, .T. ) ;
#528 = CARTESIAN_POINT ( 'NONE',  ( 9.184850993605154600E-17, -16.00000000000001066, 12.74999999999999822 ) ) ;
#529 = DIRECTION ( 'NONE',  ( -1.000000000000000000, -8.673617379884034239E-17, -0.000000000000000000 ) ) ;
#530 = VERTEX_POINT ( 'NONE', #384 ) ;
#531 = ORIENTED_EDGE ( 'NONE', *, *, #402, .T. ) ;
#532 = VERTEX_POINT ( 'NONE', #450 ) ;
#533 = EDGE_CURVE ( 'NONE', #347, #953, #152, .T. ) ;
#534 = CARTESIAN_POINT ( 'NONE',  ( 4.999999999999999112, 4.050000000000005151, -6.000000000000013323 ) ) ;
#535 = ORIENTED_EDGE ( 'NONE', *, *, #122, .T. ) ;
#536 =( NAMED_UNIT ( * ) SI_UNIT ( $, .STERADIAN. ) SOLID_ANGLE_UNIT ( ) );
#537 = EDGE_CURVE ( 'NONE', #672, #515, #298, .T. ) ;
#538 = DIRECTION ( 'NONE',  ( 0.000000000000000000, 1.000000000000000000, 0.000000000000000000 ) ) ;
#539 = AXIS2_PLACEMENT_3D ( 'NONE', #177, #471, #200 ) ;
#540 = AXIS2_PLACEMENT_3D ( 'NONE', #732, #68, #144 ) ;
#541 = EDGE_LOOP ( 'NONE', ( #940, #153, #535, #956 ) ) ;
#542 = VECTOR ( 'NONE', #132, 1000.000000000000000 ) ;
#543 = CARTESIAN_POINT ( 'NONE',  ( 0.000000000000000000, -16.00000000000001066, 28.49999999999999645 ) ) ;
#544 = DIRECTION ( 'NONE',  ( 0.000000000000000000, 0.000000000000000000, -1.000000000000000000 ) ) ;
#545 = VERTEX_POINT ( 'NONE', #588 ) ;
#546 = LINE ( 'NONE', #46, #342 ) ;
#547 = DIRECTION ( 'NONE',  ( 0.000000000000000000, 0.000000000000000000, 1.000000000000000000 ) ) ;
#548 = CARTESIAN_POINT ( 'NONE',  ( 0.000000000000000000, 5.000000000000000000, 16.49999999999999645 ) ) ;
#549 = ORIENTED_EDGE ( 'NONE', *, *, #908, .F. ) ;
#550 = ORIENTED_EDGE ( 'NONE', *, *, #159, .F. ) ;
#551 = FACE_OUTER_BOUND ( 'NONE', #894, .T. ) ;
#552 = FACE_OUTER_BOUND ( 'NONE', #833, .T. ) ;
#553 = VECTOR ( 'NONE', #850, 1000.000000000000000 ) ;
#554 = CIRCLE ( 'NONE', #723, 3.049999999999999822 ) ;
#555 = EDGE_CURVE ( 'NONE', #468, #326, #827, .T. ) ;
#556 = CARTESIAN_POINT ( 'NONE',  ( 9.184850993605150903E-17, -5.000000000000000888, 12.74999999999999822 ) ) ;
#557 = VECTOR ( 'NONE', #155, 1000.000000000000000 ) ;
#558 = DIRECTION ( 'NONE',  ( -0.000000000000000000, 1.000000000000000000, -0.000000000000000000 ) ) ;
#559 = LINE ( 'NONE', #345, #210 ) ;
#560 = CARTESIAN_POINT ( 'NONE',  ( 3.999999999999998224, -3.049999999999999378, -6.000000000000013323 ) ) ;
#561 = ADVANCED_FACE ( 'NONE', ( #892 ), #387, .F. ) ;
#562 = FACE_BOUND ( 'NONE', #393, .T. ) ;
#563 = DIRECTION ( 'NONE',  ( 0.000000000000000000, -0.000000000000000000, -1.000000000000000000 ) ) ;
#564 = CARTESIAN_POINT ( 'NONE',  ( 15.00000000000000000, -3.049999999999996714, 45.00000000000000711 ) ) ;
#565 = CARTESIAN_POINT ( 'NONE',  ( 0.000000000000000000, 5.000000000000000000, 11.24999999999999645 ) ) ;
#566 = EDGE_CURVE ( 'NONE', #613, #672, #645, .T. ) ;
#567 = DIRECTION ( 'NONE',  ( 0.000000000000000000, -1.000000000000000000, 0.000000000000000000 ) ) ;
#568 = CIRCLE ( 'NONE', #802, 0.7500000000000006661 ) ;
#569 = VERTEX_POINT ( 'NONE', #906 ) ;
#570 = CIRCLE ( 'NONE', #663, 0.7500000000000006661 ) ;
#571 = VECTOR ( 'NONE', #57, 1000.000000000000000 ) ;
#572 = FACE_BOUND ( 'NONE', #817, .T. ) ;
#573 = CYLINDRICAL_SURFACE ( 'NONE', #692, 0.7500000000000006661 ) ;
#574 = EDGE_CURVE ( 'NONE', #825, #756, #480, .T. ) ;
#575 = LINE ( 'NONE', #655, #427 ) ;
#576 = VERTEX_POINT ( 'NONE', #381 ) ;
#577 = CARTESIAN_POINT ( 'NONE',  ( 4.000000000000003553, 3.469446951953617147E-16, 45.00000000000000711 ) ) ;
#578 = FACE_BOUND ( 'NONE', #711, .T. ) ;
#579 = CARTESIAN_POINT ( 'NONE',  ( -5.000000000000000888, 5.000000000000000000, -11.00000000000001243 ) ) ;
#580 = ORIENTED_EDGE ( 'NONE', *, *, #965, .F. ) ;
#581 = DIRECTION ( 'NONE',  ( -0.000000000000000000, 1.000000000000000000, -0.000000000000000000 ) ) ;
#582 = DIRECTION ( 'NONE',  ( -0.000000000000000000, 1.000000000000000000, -0.000000000000000000 ) ) ;
#583 = ORIENTED_EDGE ( 'NONE', *, *, #340, .T. ) ;
#584 = DIRECTION ( 'NONE',  ( 0.000000000000000000, 0.000000000000000000, 1.000000000000000000 ) ) ;
#585 = EDGE_LOOP ( 'NONE', ( #323, #33, #896, #724 ) ) ;
#586 = ADVANCED_FACE ( 'NONE', ( #815 ), #750, .F. ) ;
#587 = AXIS2_PLACEMENT_3D ( 'NONE', #41, #933, #485 ) ;
#588 = CARTESIAN_POINT ( 'NONE',  ( 4.999999999999999112, -4.049999999999998046, 45.00000000000000711 ) ) ;
#589 = EDGE_LOOP ( 'NONE', ( #217, #84 ) ) ;
#590 = ORIENTED_EDGE ( 'NONE', *, *, #805, .T. ) ;
#591 = CARTESIAN_POINT ( 'NONE',  ( 15.00000000000000000, -3.049999999999998490, -6.000000000000013323 ) ) ;
#592 = CARTESIAN_POINT ( 'NONE',  ( 15.00000000000000000, 3.049999999999999378, 45.00000000000000711 ) ) ;
#593 = EDGE_LOOP ( 'NONE', ( #135, #278, #902, #549 ) ) ;
#594 = ORIENTED_EDGE ( 'NONE', *, *, #39, .T. ) ;
#595 = DIRECTION ( 'NONE',  ( 0.7071067811865462405, 0.7071067811865489050, 0.000000000000000000 ) ) ;
#596 = DIRECTION ( 'NONE',  ( 0.000000000000000000, 0.000000000000000000, -1.000000000000000000 ) ) ;
#597 = EDGE_CURVE ( 'NONE', #667, #733, #212, .T. ) ;
#598 = ORIENTED_EDGE ( 'NONE', *, *, #537, .T. ) ;
#599 =( GEOMETRIC_REPRESENTATION_CONTEXT ( 3 ) GLOBAL_UNCERTAINTY_ASSIGNED_CONTEXT ( ( #622 ) ) GLOBAL_UNIT_ASSIGNED_CONTEXT ( ( #731, #521, #215 ) ) REPRESENTATION_CONTEXT ( 'NONE', 'WORKASPACE' ) );
#600 = VERTEX_POINT ( 'NONE', #534 ) ;
#601 =( NAMED_UNIT ( * ) SI_UNIT ( $, .STERADIAN. ) SOLID_ANGLE_UNIT ( ) );
#602 = VECTOR ( 'NONE', #500, 1000.000000000000000 ) ;
#603 = CARTESIAN_POINT ( 'NONE',  ( 3.999999999999998224, 3.469446951953613203E-16, -6.000000000000013323 ) ) ;
#604 = CIRCLE ( 'NONE', #930, 0.7500000000000006661 ) ;
#605 = ADVANCED_FACE ( 'NONE', ( #216 ), #963, .F. ) ;
#606 = VERTEX_POINT ( 'NONE', #78 ) ;
#607 = ORIENTED_EDGE ( 'NONE', *, *, #629, .T. ) ;
#608 = DIRECTION ( 'NONE',  ( -1.000000000000000000, -8.673617379884034239E-17, -0.000000000000000000 ) ) ;
#609 = ORIENTED_EDGE ( 'NONE', *, *, #526, .F. ) ;
#610 = ORIENTED_EDGE ( 'NONE', *, *, #191, .T. ) ;
#611 = ADVANCED_FACE ( 'NONE', ( #823 ), #4, .F. ) ;
#612 = CARTESIAN_POINT ( 'NONE',  ( 9.184850993605154600E-17, -16.00000000000001066, 18.74999999999999645 ) ) ;
#613 = VERTEX_POINT ( 'NONE', #960 ) ;
#614 = CYLINDRICAL_SURFACE ( 'NONE', #725, 0.7500000000000006661 ) ;
#615 = CARTESIAN_POINT ( 'NONE',  ( -5.000000000000000888, 5.000000000000000000, 8.999999999999987566 ) ) ;
#616 = VECTOR ( 'NONE', #946, 1000.000000000000000 ) ;
#617 = EDGE_LOOP ( 'NONE', ( #666, #295, #824, #889 ) ) ;
#618 = CARTESIAN_POINT ( 'NONE',  ( 0.000000000000000000, -5.000000000000000888, 23.25000000000000000 ) ) ;
#619 = FACE_OUTER_BOUND ( 'NONE', #541, .T. ) ;
#620 = DIRECTION ( 'NONE',  ( 0.000000000000000000, 0.000000000000000000, 1.000000000000000000 ) ) ;
#621 = EDGE_LOOP ( 'NONE', ( #145, #910 ) ) ;
#622 = UNCERTAINTY_MEASURE_WITH_UNIT (LENGTH_MEASURE( 1.000000000000000082E-05 ), #731, 'distance_accuracy_value', 'NONE');
#623 = CARTESIAN_POINT ( 'NONE',  ( 15.00000000000000000, 1.301042606982605124E-15, -6.000000000000013323 ) ) ;
#624 = DIRECTION ( 'NONE',  ( 1.000000000000000000, 8.673617379884034239E-17, -0.000000000000000000 ) ) ;
#625 = EDGE_CURVE ( 'NONE', #762, #812, #570, .T. ) ;
#626 = DIRECTION ( 'NONE',  ( 0.000000000000000000, -1.000000000000000000, 0.000000000000000000 ) ) ;
#627 = CARTESIAN_POINT ( 'NONE',  ( -5.000000000000000888, -5.000000000000000000, 50.00000000000000000 ) ) ;
#628 = CARTESIAN_POINT ( 'NONE',  ( 5.000000000000000000, -5.000000000000000000, 50.00000000000000000 ) ) ;
#629 = EDGE_CURVE ( 'NONE', #300, #318, #83, .T. ) ;
#630 = AXIS2_PLACEMENT_3D ( 'NONE', #213, #126, #54 ) ;
#631 = DIRECTION ( 'NONE',  ( -0.000000000000000000, 1.000000000000000000, -0.000000000000000000 ) ) ;
#632 = AXIS2_PLACEMENT_3D ( 'NONE', #415, #638, #492 ) ;
#633 = DIRECTION ( 'NONE',  ( -1.000000000000000000, -8.673617379884034239E-17, -0.000000000000000000 ) ) ;
#634 = FACE_OUTER_BOUND ( 'NONE', #162, .T. ) ;
#635 = DIRECTION ( 'NONE',  ( 0.000000000000000000, 0.000000000000000000, 1.000000000000000000 ) ) ;
#636 = EDGE_CURVE ( 'NONE', #576, #789, #312, .T. ) ;
#637 = FACE_BOUND ( 'NONE', #251, .T. ) ;
#638 = DIRECTION ( 'NONE',  ( -1.000000000000000000, -8.673617379884034239E-17, 0.000000000000000000 ) ) ;
#639 = ORIENTED_EDGE ( 'NONE', *, *, #151, .F. ) ;
#640 = FACE_BOUND ( 'NONE', #659, .T. ) ;
#641 = DIRECTION ( 'NONE',  ( 0.000000000000000000, 0.000000000000000000, 1.000000000000000000 ) ) ;
#642 = LINE ( 'NONE', #202, #602 ) ;
#643 = AXIS2_PLACEMENT_3D ( 'NONE', #787, #423, #142 ) ;
#644 = ORIENTED_EDGE ( 'NONE', *, *, #317, .F. ) ;
#645 = CIRCLE ( 'NONE', #229, 3.049999999999998046 ) ;
#646 = LINE ( 'NONE', #348, #154 ) ;
#647 = DIRECTION ( 'NONE',  ( -0.000000000000000000, 1.000000000000000000, -0.000000000000000000 ) ) ;
#648 = DIRECTION ( 'NONE',  ( 0.000000000000000000, 1.000000000000000000, 0.000000000000000000 ) ) ;
#649 = CARTESIAN_POINT ( 'NONE',  ( 0.000000000000000000, -5.000000000000000888, 11.24999999999999645 ) ) ;
#650 = ORIENTED_EDGE ( 'NONE', *, *, #526, .T. ) ;
#651 = DIRECTION ( 'NONE',  ( -1.000000000000000000, 0.000000000000000000, 0.000000000000000000 ) ) ;
#652 = FACE_OUTER_BOUND ( 'NONE', #473, .T. ) ;
#653 = EDGE_CURVE ( 'NONE', #688, #606, #835, .T. ) ;
#654 = ORIENTED_EDGE ( 'NONE', *, *, #81, .F. ) ;
#655 = CARTESIAN_POINT ( 'NONE',  ( -5.000000000000000888, 5.000000000000000000, 50.00000000000000000 ) ) ;
#656 = ORIENTED_EDGE ( 'NONE', *, *, #225, .F. ) ;
#657 =( LENGTH_UNIT ( ) NAMED_UNIT ( * ) SI_UNIT ( .MILLI., .METRE. ) );
#658 = DIRECTION ( 'NONE',  ( 0.000000000000000000, 0.000000000000000000, 1.000000000000000000 ) ) ;
#659 = EDGE_LOOP ( 'NONE', ( #961, #916 ) ) ;
#660 = CARTESIAN_POINT ( 'NONE',  ( 9.184850993605150903E-17, -5.000000000000000888, 24.74999999999999645 ) ) ;
#661 = EDGE_LOOP ( 'NONE', ( #656, #819, #98, #95 ) ) ;
#662 = FILL_AREA_STYLE_COLOUR ( '', #848 ) ;
#663 = AXIS2_PLACEMENT_3D ( 'NONE', #375, #224, #524 ) ;
#664 = AXIS2_PLACEMENT_3D ( 'NONE', #367, #7, #673 ) ;
#665 = CARTESIAN_POINT ( 'NONE',  ( 0.000000000000000000, 5.000000000000000000, 10.49999999999999467 ) ) ;
#666 = ORIENTED_EDGE ( 'NONE', *, *, #169, .T. ) ;
#667 = VERTEX_POINT ( 'NONE', #690 ) ;
#668 = EDGE_CURVE ( 'NONE', #530, #318, #759, .T. ) ;
#669 = CARTESIAN_POINT ( 'NONE',  ( 9.184850993605150903E-17, -5.000000000000000888, 21.75000000000000000 ) ) ;
#670 = DIRECTION ( 'NONE',  ( 1.000000000000000000, 8.673617379884025611E-17, 0.000000000000000000 ) ) ;
#671 = ORIENTED_EDGE ( 'NONE', *, *, #674, .F. ) ;
#672 = VERTEX_POINT ( 'NONE', #240 ) ;
#673 = DIRECTION ( 'NONE',  ( 0.000000000000000000, 0.000000000000000000, 1.000000000000000000 ) ) ;
#674 = EDGE_CURVE ( 'NONE', #953, #347, #401, .T. ) ;
#675 = CARTESIAN_POINT ( 'NONE',  ( -5.000000000000000000, -5.000000000000000000, 8.999999999999987566 ) ) ;
#676 = ORIENTED_EDGE ( 'NONE', *, *, #854, .F. ) ;
#677 = ORIENTED_EDGE ( 'NONE', *, *, #499, .F. ) ;
#678 = AXIS2_PLACEMENT_3D ( 'NONE', #436, #734, #70 ) ;
#679 = DIRECTION ( 'NONE',  ( 1.000000000000000000, 8.673617379884033007E-17, 0.000000000000000000 ) ) ;
#680 = AXIS2_PLACEMENT_3D ( 'NONE', #698, #914, #777 ) ;
#681 = EDGE_CURVE ( 'NONE', #812, #762, #804, .T. ) ;
#682 = ORIENTED_EDGE ( 'NONE', *, *, #931, .T. ) ;
#683 = DIRECTION ( 'NONE',  ( 1.000000000000000000, 8.673617379884033007E-17, 0.000000000000000000 ) ) ;
#684 = LINE ( 'NONE', #615, #741 ) ;
#685 = EDGE_CURVE ( 'NONE', #606, #688, #107, .T. ) ;
#686 = ORIENTED_EDGE ( 'NONE', *, *, #920, .F. ) ;
#687 = DIRECTION ( 'NONE',  ( -0.000000000000000000, 1.000000000000000000, -0.000000000000000000 ) ) ;
#688 = VERTEX_POINT ( 'NONE', #771 ) ;
#689 = DIRECTION ( 'NONE',  ( -0.000000000000000000, 1.000000000000000000, -0.000000000000000000 ) ) ;
#690 = CARTESIAN_POINT ( 'NONE',  ( 9.184850993605150903E-17, -5.000000000000000888, 15.74999999999999645 ) ) ;
#691 = CIRCLE ( 'NONE', #272, 0.7500000000000006661 ) ;
#692 = AXIS2_PLACEMENT_3D ( 'NONE', #352, #871, #362 ) ;
#693 = AXIS2_PLACEMENT_3D ( 'NONE', #161, #443, #745 ) ;
#694 = EDGE_LOOP ( 'NONE', ( #5, #550, #740, #654 ) ) ;
#695 = DIRECTION ( 'NONE',  ( 1.000000000000000000, -0.000000000000000000, -0.000000000000000000 ) ) ;
#696 = CYLINDRICAL_SURFACE ( 'NONE', #507, 0.7500000000000006661 ) ;
#697 = EDGE_CURVE ( 'NONE', #203, #170, #59, .T. ) ;
#698 = CARTESIAN_POINT ( 'NONE',  ( 0.000000000000000000, -5.000000000000000888, 28.49999999999999645 ) ) ;
#699 = ADVANCED_BREP_SHAPE_REPRESENTATION ( 'StaticAnchor', ( #959, #879 ), #599 ) ;
#700 = CARTESIAN_POINT ( 'NONE',  ( 4.999999999999999112, 4.336808689942017736E-16, 45.00000000000000711 ) ) ;
#701 = DIRECTION ( 'NONE',  ( 0.000000000000000000, 0.000000000000000000, 1.000000000000000000 ) ) ;
#702 = DIRECTION ( 'NONE',  ( 8.673617379884034239E-17, -1.000000000000000000, 0.000000000000000000 ) ) ;
#703 = EDGE_CURVE ( 'NONE', #226, #893, #119, .T. ) ;
#704 = LINE ( 'NONE', #560, #553 ) ;
#705 = CARTESIAN_POINT ( 'NONE',  ( 9.184850993605150903E-17, 5.000000000000000000, 18.74999999999999645 ) ) ;
#706 = AXIS2_PLACEMENT_3D ( 'NONE', #358, #647, #285 ) ;
#707 = ADVANCED_FACE ( 'NONE', ( #552 ), #38, .F. ) ;
#708 = VECTOR ( 'NONE', #633, 1000.000000000000000 ) ;
#709 = CARTESIAN_POINT ( 'NONE',  ( -5.000000000000000888, -5.000000000000000000, 50.00000000000000000 ) ) ;
#710 = AXIS2_PLACEMENT_3D ( 'NONE', #16, #235, #596 ) ;
#711 = EDGE_LOOP ( 'NONE', ( #233, #882 ) ) ;
#712 = DIRECTION ( 'NONE',  ( -0.000000000000000000, 1.000000000000000000, -0.000000000000000000 ) ) ;
#713 = CARTESIAN_POINT ( 'NONE',  ( -5.000000000000000000, -5.000000000000000000, 8.999999999999987566 ) ) ;
#714 = CARTESIAN_POINT ( 'NONE',  ( 0.000000000000000000, 5.000000000000000000, 13.49999999999999822 ) ) ;
#715 = VERTEX_POINT ( 'NONE', #185 ) ;
#716 = DIRECTION ( 'NONE',  ( 0.000000000000000000, -1.000000000000000000, 0.000000000000000000 ) ) ;
#717 = FACE_OUTER_BOUND ( 'NONE', #234, .T. ) ;
#718 = DIRECTION ( 'NONE',  ( 0.000000000000000000, 0.000000000000000000, -1.000000000000000000 ) ) ;
#719 = ORIENTED_EDGE ( 'NONE', *, *, #506, .T. ) ;
#720 = CARTESIAN_POINT ( 'NONE',  ( 9.184850993605154600E-17, -16.00000000000001066, 21.75000000000000000 ) ) ;
#721 = FACE_OUTER_BOUND ( 'NONE', #445, .T. ) ;
#722 = CARTESIAN_POINT ( 'NONE',  ( 4.999999999999999112, -5.000000000000000000, -11.00000000000001243 ) ) ;
#723 = AXIS2_PLACEMENT_3D ( 'NONE', #171, #94, #21 ) ;
#724 = ORIENTED_EDGE ( 'NONE', *, *, #263, .F. ) ;
#725 = AXIS2_PLACEMENT_3D ( 'NONE', #392, #841, #851 ) ;
#726 = FACE_OUTER_BOUND ( 'NONE', #18, .T. ) ;
#727 = ADVANCED_FACE ( 'NONE', ( #836, #919, #168 ), #482, .T. ) ;
#728 = PLANE ( 'NONE',  #489 ) ;
#729 = VERTEX_POINT ( 'NONE', #846 ) ;
#730 = EDGE_LOOP ( 'NONE', ( #364, #527 ) ) ;
#731 =( LENGTH_UNIT ( ) NAMED_UNIT ( * ) SI_UNIT ( .MILLI., .METRE. ) );
#732 = CARTESIAN_POINT ( 'NONE',  ( 0.000000000000000000, -16.00000000000001066, 16.49999999999999645 ) ) ;
#733 = VERTEX_POINT ( 'NONE', #111 ) ;
#734 = DIRECTION ( 'NONE',  ( -1.000000000000000000, -8.673617379884034239E-17, 0.000000000000000000 ) ) ;
#735 = ORIENTED_EDGE ( 'NONE', *, *, #64, .F. ) ;
#736 = CARTESIAN_POINT ( 'NONE',  ( 0.000000000000000000, -5.000000000000000888, 28.49999999999999645 ) ) ;
#737 = ORIENTED_EDGE ( 'NONE', *, *, #51, .T. ) ;
#738 = ADVANCED_FACE ( 'NONE', ( #321 ), #614, .F. ) ;
#739 = CIRCLE ( 'NONE', #897, 0.7500000000000006661 ) ;
#740 = ORIENTED_EDGE ( 'NONE', *, *, #356, .T. ) ;
#741 = VECTOR ( 'NONE', #842, 1000.000000000000000 ) ;
#742 = APPLICATION_PROTOCOL_DEFINITION ( 'draft international standard', 'automotive_design', 1998, #113 ) ;
#743 = CIRCLE ( 'NONE', #444, 0.7500000000000006661 ) ;
#744 = VECTOR ( 'NONE', #86, 1000.000000000000000 ) ;
#745 = DIRECTION ( 'NONE',  ( 0.000000000000000000, 0.000000000000000000, 1.000000000000000000 ) ) ;
#746 = VERTEX_POINT ( 'NONE', #628 ) ;
#747 = ORIENTED_EDGE ( 'NONE', *, *, #370, .T. ) ;
#748 = ADVANCED_FACE ( 'NONE', ( #472, #927, #178 ), #476, .T. ) ;
#749 = CARTESIAN_POINT ( 'NONE',  ( 0.000000000000000000, -16.00000000000001066, 14.24999999999999822 ) ) ;
#750 = CYLINDRICAL_SURFACE ( 'NONE', #693, 0.7500000000000006661 ) ;
#751 = ORIENTED_EDGE ( 'NONE', *, *, #537, .F. ) ;
#752 = ORIENTED_EDGE ( 'NONE', *, *, #872, .F. ) ;
#753 = ORIENTED_EDGE ( 'NONE', *, *, #163, .T. ) ;
#754 = SURFACE_STYLE_USAGE ( .BOTH. , #208 ) ;
#755 = CARTESIAN_POINT ( 'NONE',  ( 15.00000000000000000, 1.301042606982605124E-15, 45.00000000000000711 ) ) ;
#756 = VERTEX_POINT ( 'NONE', #108 ) ;
#757 = CARTESIAN_POINT ( 'NONE',  ( 0.000000000000000000, 0.000000000000000000, 0.000000000000000000 ) ) ;
#758 = AXIS2_PLACEMENT_3D ( 'NONE', #209, #53, #509 ) ;
#759 = LINE ( 'NONE', #334, #136 ) ;
#760 = ADVANCED_FACE ( 'NONE', ( #338 ), #390, .F. ) ;
#761 = AXIS2_PLACEMENT_3D ( 'NONE', #88, #513, #968 ) ;
#762 = VERTEX_POINT ( 'NONE', #36 ) ;
#763 = VERTEX_POINT ( 'NONE', #925 ) ;
#764 = DIRECTION ( 'NONE',  ( 0.000000000000000000, -1.000000000000000000, 0.000000000000000000 ) ) ;
#765 = FACE_OUTER_BOUND ( 'NONE', #360, .T. ) ;
#766 = DIRECTION ( 'NONE',  ( -1.000000000000000000, -8.673617379884034239E-17, 0.000000000000000000 ) ) ;
#767 = ORIENTED_EDGE ( 'NONE', *, *, #512, .F. ) ;
#768 = EDGE_CURVE ( 'NONE', #226, #793, #261, .T. ) ;
#769 = AXIS2_PLACEMENT_3D ( 'NONE', #297, #958, #14 ) ;
#770 = DIRECTION ( 'NONE',  ( -1.000000000000000000, -8.673617379884034239E-17, -0.000000000000000000 ) ) ;
#771 = CARTESIAN_POINT ( 'NONE',  ( 9.184850993605150903E-17, 5.000000000000000000, 15.74999999999999645 ) ) ;
#772 = AXIS2_PLACEMENT_3D ( 'NONE', #700, #778, #935 ) ;
#773 = CIRCLE ( 'NONE', #105, 0.7500000000000006661 ) ;
#774 = PRODUCT_DEFINITION_SHAPE ( 'NONE', 'NONE',  #238 ) ;
#775 = DIRECTION ( 'NONE',  ( -1.000000000000000000, -8.673617379884034239E-17, 0.000000000000000000 ) ) ;
#776 = CYLINDRICAL_SURFACE ( 'NONE', #539, 3.049999999999999822 ) ;
#777 = DIRECTION ( 'NONE',  ( 0.000000000000000000, 0.000000000000000000, -1.000000000000000000 ) ) ;
#778 = DIRECTION ( 'NONE',  ( -1.000000000000000000, -8.673617379884034239E-17, 0.000000000000000000 ) ) ;
#779 = DIRECTION ( 'NONE',  ( 0.000000000000000000, 0.000000000000000000, 1.000000000000000000 ) ) ;
#780 = EDGE_CURVE ( 'NONE', #789, #510, #460, .T. ) ;
#781 = DIRECTION ( 'NONE',  ( 0.000000000000000000, 0.000000000000000000, -1.000000000000000000 ) ) ;
#782 = LINE ( 'NONE', #720, #571 ) ;
#783 = DIRECTION ( 'NONE',  ( -0.000000000000000000, 1.000000000000000000, -0.000000000000000000 ) ) ;
#784 = EDGE_CURVE ( 'NONE', #347, #762, #279, .T. ) ;
#785 = CIRCLE ( 'NONE', #411, 0.7500000000000006661 ) ;
#786 = AXIS2_PLACEMENT_3D ( 'NONE', #249, #624, #24 ) ;
#787 = CARTESIAN_POINT ( 'NONE',  ( 4.000000000000003553, 3.469446951953617147E-16, 45.00000000000000711 ) ) ;
#788 = COLOUR_RGB ( '',0.7921568627450980005, 0.8196078431372548767, 0.9333333333333333481 ) ;
#789 = VERTEX_POINT ( 'NONE', #52 ) ;
#790 = FACE_BOUND ( 'NONE', #90, .T. ) ;
#791 = CARTESIAN_POINT ( 'NONE',  ( 0.000000000000000000, -5.000000000000000888, 10.49999999999999467 ) ) ;
#792 = DIRECTION ( 'NONE',  ( 0.000000000000000000, 0.000000000000000000, -1.000000000000000000 ) ) ;
#793 = VERTEX_POINT ( 'NONE', #705 ) ;
#794 = PLANE ( 'NONE',  #966 ) ;
#795 = LINE ( 'NONE', #201, #343 ) ;
#796 = ORIENTED_EDGE ( 'NONE', *, *, #221, .T. ) ;
#797 = EDGE_CURVE ( 'NONE', #79, #545, #428, .T. ) ;
#798 = CARTESIAN_POINT ( 'NONE',  ( 9.184850993605150903E-17, 5.000000000000000000, 27.74999999999999645 ) ) ;
#799 = FACE_BOUND ( 'NONE', #313, .T. ) ;
#800 = CARTESIAN_POINT ( 'NONE',  ( 0.000000000000000000, 5.000000000000000000, 25.50000000000000000 ) ) ;
#801 = DIRECTION ( 'NONE',  ( -1.000000000000000000, 0.000000000000000000, 0.000000000000000000 ) ) ;
#802 = AXIS2_PLACEMENT_3D ( 'NONE', #106, #403, #924 ) ;
#803 = ORIENTED_EDGE ( 'NONE', *, *, #302, .T. ) ;
#804 = CIRCLE ( 'NONE', #900, 0.7500000000000006661 ) ;
#805 = EDGE_CURVE ( 'NONE', #123, #452, #464, .T. ) ;
#806 = CARTESIAN_POINT ( 'NONE',  ( 9.184850993605154600E-17, -16.00000000000001066, 9.749999999999994671 ) ) ;
#807 = ORIENTED_EDGE ( 'NONE', *, *, #257, .T. ) ;
#808 = DIRECTION ( 'NONE',  ( 0.7071067811865461294, -0.7071067811865489050, 8.659560562354952580E-17 ) ) ;
#809 = ORIENTED_EDGE ( 'NONE', *, *, #768, .T. ) ;
#810 = CARTESIAN_POINT ( 'NONE',  ( -5.000000000000000888, 3.049999999999997602, 45.00000000000000711 ) ) ;
#811 = ADVANCED_FACE ( 'NONE', ( #937 ), #327, .F. ) ;
#812 = VERTEX_POINT ( 'NONE', #798 ) ;
#813 = ORIENTED_EDGE ( 'NONE', *, *, #829, .F. ) ;
#814 = PRESENTATION_STYLE_ASSIGNMENT (( #517 ) ) ;
#815 = FACE_OUTER_BOUND ( 'NONE', #593, .T. ) ;
#816 = PRODUCT_RELATED_PRODUCT_CATEGORY ( 'part', '', ( #481 ) ) ;
#817 = EDGE_LOOP ( 'NONE', ( #735, #372 ) ) ;
#818 = VECTOR ( 'NONE', #695, 1000.000000000000000 ) ;
#819 = ORIENTED_EDGE ( 'NONE', *, *, #597, .T. ) ;
#820 = AXIS2_PLACEMENT_3D ( 'NONE', #503, #197, #429 ) ;
#821 = DIRECTION ( 'NONE',  ( 0.7071067811865459074, 0.7071067811865491270, 0.000000000000000000 ) ) ;
#822 = AXIS2_PLACEMENT_3D ( 'NONE', #603, #901, #232 ) ;
#823 = FACE_OUTER_BOUND ( 'NONE', #661, .T. ) ;
#824 = ORIENTED_EDGE ( 'NONE', *, *, #697, .T. ) ;
#825 = VERTEX_POINT ( 'NONE', #565 ) ;
#826 = CARTESIAN_POINT ( 'NONE',  ( 3.999999999999998224, 3.050000000000000266, -6.000000000000013323 ) ) ;
#827 = LINE ( 'NONE', #888, #557 ) ;
#828 = ORIENTED_EDGE ( 'NONE', *, *, #187, .F. ) ;
#829 = EDGE_CURVE ( 'NONE', #715, #763, #743, .T. ) ;
#830 = PRODUCT_CONTEXT ( 'NONE', #113, 'mechanical' ) ;
#831 = APPLICATION_CONTEXT ( 'automotive_design' ) ;
#832 = DIRECTION ( 'NONE',  ( 0.000000000000000000, 1.000000000000000000, 0.000000000000000000 ) ) ;
#833 = EDGE_LOOP ( 'NONE', ( #237, #809, #341, #218 ) ) ;
#834 = AXIS2_PLACEMENT_3D ( 'NONE', #714, #66, #584 ) ;
#835 = CIRCLE ( 'NONE', #243, 0.7500000000000006661 ) ;
#836 = FACE_BOUND ( 'NONE', #730, .T. ) ;
#837 = VECTOR ( 'NONE', #595, 1000.000000000000000 ) ;
#838 = ORIENTED_EDGE ( 'NONE', *, *, #288, .T. ) ;
#839 = CARTESIAN_POINT ( 'NONE',  ( 0.000000000000000000, -5.000000000000000888, 29.25000000000000000 ) ) ;
#840 = DIRECTION ( 'NONE',  ( 0.000000000000000000, 0.000000000000000000, -1.000000000000000000 ) ) ;
#841 = DIRECTION ( 'NONE',  ( -0.000000000000000000, 1.000000000000000000, -0.000000000000000000 ) ) ;
#842 = DIRECTION ( 'NONE',  ( 0.000000000000000000, 0.000000000000000000, 1.000000000000000000 ) ) ;
#843 = ADVANCED_FACE ( 'NONE', ( #502 ), #264, .F. ) ;
#844 = ORIENTED_EDGE ( 'NONE', *, *, #159, .T. ) ;
#845 = DIRECTION ( 'NONE',  ( 0.000000000000000000, -1.000000000000000000, 0.000000000000000000 ) ) ;
#846 = CARTESIAN_POINT ( 'NONE',  ( -5.000000000000000888, 5.000000000000000000, -11.00000000000001243 ) ) ;
#847 = ORIENTED_EDGE ( 'NONE', *, *, #625, .T. ) ;
#848 = COLOUR_RGB ( '',0.7921568627450980005, 0.8196078431372548767, 0.9333333333333333481 ) ;
#849 = UNCERTAINTY_MEASURE_WITH_UNIT (LENGTH_MEASURE( 1.000000000000000082E-05 ), #905, 'distance_accuracy_value', 'NONE');
#850 = DIRECTION ( 'NONE',  ( 0.7071067811865464625, -0.7071067811865486830, 8.659560562354948882E-17 ) ) ;
#851 = DIRECTION ( 'NONE',  ( 0.000000000000000000, 0.000000000000000000, 1.000000000000000000 ) ) ;
#852 = AXIS2_PLACEMENT_3D ( 'NONE', #100, #683, #404 ) ;
#853 = CARTESIAN_POINT ( 'NONE',  ( 0.000000000000000000, 5.000000000000000000, 20.24999999999999645 ) ) ;
#854 = EDGE_CURVE ( 'NONE', #746, #926, #273, .T. ) ;
#855 = CARTESIAN_POINT ( 'NONE',  ( 0.000000000000000000, -5.000000000000000888, 19.49999999999999645 ) ) ;
#856 = CYLINDRICAL_SURFACE ( 'NONE', #522, 3.049999999999999822 ) ;
#857 = ADVANCED_FACE ( 'NONE', ( #790, #351, #344, #572, #640, #637, #562, #941 ), #794, .T. ) ;
#858 = DIRECTION ( 'NONE',  ( -0.000000000000000000, 0.000000000000000000, -1.000000000000000000 ) ) ;
#859 = PLANE ( 'NONE',  #866 ) ;
#860 = DIRECTION ( 'NONE',  ( 0.000000000000000000, -1.000000000000000000, 0.000000000000000000 ) ) ;
#861 = EDGE_LOOP ( 'NONE', ( #505, #936 ) ) ;
#862 = MECHANICAL_DESIGN_GEOMETRIC_PRESENTATION_REPRESENTATION (  '', ( #957 ), #458 ) ;
#863 = DIRECTION ( 'NONE',  ( 0.000000000000000000, 0.000000000000000000, 1.000000000000000000 ) ) ;
#864 = VECTOR ( 'NONE', #112, 1000.000000000000000 ) ;
#865 = DIRECTION ( 'NONE',  ( 1.000000000000000000, 8.673617379884025611E-17, 0.000000000000000000 ) ) ;
#866 = AXIS2_PLACEMENT_3D ( 'NONE', #192, #488, #133 ) ;
#867 = AXIS2_PLACEMENT_3D ( 'NONE', #577, #269, #414 ) ;
#868 = AXIS2_PLACEMENT_3D ( 'NONE', #190, #858, #651 ) ;
#869 = ORIENTED_EDGE ( 'NONE', *, *, #668, .T. ) ;
#870 = CARTESIAN_POINT ( 'NONE',  ( 4.999999999999999112, 5.000000000000000000, 8.999999999999987566 ) ) ;
#871 = DIRECTION ( 'NONE',  ( -0.000000000000000000, 1.000000000000000000, -0.000000000000000000 ) ) ;
#872 = EDGE_CURVE ( 'NONE', #468, #926, #426, .T. ) ;
#873 = CARTESIAN_POINT ( 'NONE',  ( -5.000000000000000888, -3.049999999999998490, 45.00000000000000711 ) ) ;
#874 = ORIENTED_EDGE ( 'NONE', *, *, #180, .T. ) ;
#875 = DIRECTION ( 'NONE',  ( 0.000000000000000000, 1.000000000000000000, 0.000000000000000000 ) ) ;
#876 = CYLINDRICAL_SURFACE ( 'NONE', #820, 0.7500000000000006661 ) ;
#877 = ADVANCED_FACE ( 'NONE', ( #726 ), #951, .T. ) ;
#878 = EDGE_LOOP ( 'NONE', ( #869, #594, #69, #610 ) ) ;
#879 = AXIS2_PLACEMENT_3D ( 'NONE', #757, #701, #173 ) ;
#880 = LINE ( 'NONE', #749, #744 ) ;
#881 = CARTESIAN_POINT ( 'NONE',  ( 0.000000000000000000, -5.000000000000000888, 14.24999999999999822 ) ) ;
#882 = ORIENTED_EDGE ( 'NONE', *, *, #22, .F. ) ;
#883 = CARTESIAN_POINT ( 'NONE',  ( 9.184850993605150903E-17, 5.000000000000000000, 24.74999999999999645 ) ) ;
#884 = CIRCLE ( 'NONE', #630, 0.7500000000000006661 ) ;
#885 = ORIENTED_EDGE ( 'NONE', *, *, #39, .F. ) ;
#886 = ADVANCED_FACE ( 'NONE', ( #62 ), #361, .F. ) ;
#887 = PRESENTATION_STYLE_ASSIGNMENT (( #754 ) ) ;
#888 = CARTESIAN_POINT ( 'NONE',  ( 4.999999999999999112, 5.000000000000000000, -11.00000000000001243 ) ) ;
#889 = ORIENTED_EDGE ( 'NONE', *, *, #370, .F. ) ;
#890 = ORIENTED_EDGE ( 'NONE', *, *, #625, .F. ) ;
#891 = EDGE_CURVE ( 'NONE', #953, #812, #417, .T. ) ;
#892 = FACE_OUTER_BOUND ( 'NONE', #222, .T. ) ;
#893 = VERTEX_POINT ( 'NONE', #408 ) ;
#894 = EDGE_LOOP ( 'NONE', ( #287, #440, #223, #847 ) ) ;
#895 = CARTESIAN_POINT ( 'NONE',  ( -5.000000000000000888, 3.049999999999999378, -6.000000000000013323 ) ) ;
#896 = ORIENTED_EDGE ( 'NONE', *, *, #942, .T. ) ;
#897 = AXIS2_PLACEMENT_3D ( 'NONE', #266, #479, #840 ) ;
#898 = ORIENTED_EDGE ( 'NONE', *, *, #97, .T. ) ;
#899 = FACE_OUTER_BOUND ( 'NONE', #158, .T. ) ;
#900 = AXIS2_PLACEMENT_3D ( 'NONE', #245, #394, #96 ) ;
#901 = DIRECTION ( 'NONE',  ( 1.000000000000000000, 8.673617379884025611E-17, 0.000000000000000000 ) ) ;
#902 = ORIENTED_EDGE ( 'NONE', *, *, #653, .T. ) ;
#903 = EDGE_CURVE ( 'NONE', #932, #715, #782, .T. ) ;
#904 = EDGE_LOOP ( 'NONE', ( #262, #193, #803, #383 ) ) ;
#905 =( LENGTH_UNIT ( ) NAMED_UNIT ( * ) SI_UNIT ( .MILLI., .METRE. ) );
#906 = CARTESIAN_POINT ( 'NONE',  ( 9.184850993605150903E-17, -5.000000000000000888, 9.749999999999994671 ) ) ;
#907 = ORIENTED_EDGE ( 'NONE', *, *, #784, .F. ) ;
#908 = EDGE_CURVE ( 'NONE', #733, #606, #646, .T. ) ;
#909 = CARTESIAN_POINT ( 'NONE',  ( 0.000000000000000000, 5.000000000000000000, 16.49999999999999645 ) ) ;
#910 = ORIENTED_EDGE ( 'NONE', *, *, #81, .T. ) ;
#911 = AXIS2_PLACEMENT_3D ( 'NONE', #129, #270, #641 ) ;
#912 = ADVANCED_FACE ( 'NONE', ( #899 ), #231, .F. ) ;
#913 = AXIS2_PLACEMENT_3D ( 'NONE', #548, #538, #620 ) ;
#914 = DIRECTION ( 'NONE',  ( 0.000000000000000000, -1.000000000000000000, 0.000000000000000000 ) ) ;
#915 = MECHANICAL_DESIGN_GEOMETRIC_PRESENTATION_REPRESENTATION (  '', ( #413 ), #101 ) ;
#916 = ORIENTED_EDGE ( 'NONE', *, *, #653, .F. ) ;
#917 = DIRECTION ( 'NONE',  ( -0.000000000000000000, 1.000000000000000000, -0.000000000000000000 ) ) ;
#918 = DIRECTION ( 'NONE',  ( -1.000000000000000000, -8.673617379884034239E-17, 0.000000000000000000 ) ) ;
#919 = FACE_BOUND ( 'NONE', #621, .T. ) ;
#920 = EDGE_CURVE ( 'NONE', #123, #11, #449, .T. ) ;
#921 = EDGE_LOOP ( 'NONE', ( #386, #676, #519, #179 ) ) ;
#922 = CARTESIAN_POINT ( 'NONE',  ( 0.000000000000000000, -5.000000000000000888, 13.49999999999999822 ) ) ;
#923 = SHAPE_DEFINITION_REPRESENTATION ( #774, #699 ) ;
#924 = DIRECTION ( 'NONE',  ( 0.000000000000000000, 0.000000000000000000, -1.000000000000000000 ) ) ;
#925 = CARTESIAN_POINT ( 'NONE',  ( 0.000000000000000000, 5.000000000000000000, 23.25000000000000000 ) ) ;
#926 = VERTEX_POINT ( 'NONE', #82 ) ;
#927 = FACE_BOUND ( 'NONE', #495, .T. ) ;
#928 = CARTESIAN_POINT ( 'NONE',  ( 0.000000000000000000, -16.00000000000001066, 28.49999999999999645 ) ) ;
#929 = AXIS2_PLACEMENT_3D ( 'NONE', #431, #498, #648 ) ;
#930 = AXIS2_PLACEMENT_3D ( 'NONE', #791, #456, #291 ) ;
#931 = EDGE_CURVE ( 'NONE', #576, #65, #442, .T. ) ;
#932 = VERTEX_POINT ( 'NONE', #669 ) ;
#933 = DIRECTION ( 'NONE',  ( 0.000000000000000000, -1.000000000000000000, 0.000000000000000000 ) ) ;
#934 = CARTESIAN_POINT ( 'NONE',  ( 4.999999999999999112, -4.050000000000003375, -6.000000000000013323 ) ) ;
#935 = DIRECTION ( 'NONE',  ( 0.000000000000000000, 1.000000000000000000, 0.000000000000000000 ) ) ;
#936 = ORIENTED_EDGE ( 'NONE', *, *, #697, .F. ) ;
#937 = FACE_OUTER_BOUND ( 'NONE', #80, .T. ) ;
#938 = DIRECTION ( 'NONE',  ( -0.000000000000000000, 1.000000000000000000, -0.000000000000000000 ) ) ;
#939 = CARTESIAN_POINT ( 'NONE',  ( 0.000000000000000000, -5.000000000000000888, 16.49999999999999645 ) ) ;
#940 = ORIENTED_EDGE ( 'NONE', *, *, #636, .T. ) ;
#941 = FACE_OUTER_BOUND ( 'NONE', #175, .T. ) ;
#942 = EDGE_CURVE ( 'NONE', #789, #600, #314, .T. ) ;
#943 = FACE_BOUND ( 'NONE', #207, .T. ) ;
#944 = AXIS2_PLACEMENT_3D ( 'NONE', #497, #582, #952 ) ;
#945 = VECTOR ( 'NONE', #529, 1000.000000000000000 ) ;
#946 = DIRECTION ( 'NONE',  ( -1.000000000000000000, -8.673617379884034239E-17, -0.000000000000000000 ) ) ;
#947 = EDGE_LOOP ( 'NONE', ( #350, #671 ) ) ;
#948 = DIRECTION ( 'NONE',  ( -0.000000000000000000, 1.000000000000000000, -0.000000000000000000 ) ) ;
#949 = DIRECTION ( 'NONE',  ( 0.000000000000000000, 1.000000000000000000, 0.000000000000000000 ) ) ;
#950 = CARTESIAN_POINT ( 'NONE',  ( 4.000000000000003553, -3.049999999999997602, 45.00000000000000711 ) ) ;
#951 = PLANE ( 'NONE',  #868 ) ;
#952 = DIRECTION ( 'NONE',  ( 0.000000000000000000, 0.000000000000000000, 1.000000000000000000 ) ) ;
#953 = VERTEX_POINT ( 'NONE', #160 ) ;
#954 = EDGE_CURVE ( 'NONE', #452, #532, #880, .T. ) ;
#955 = LINE ( 'NONE', #950, #183 ) ;
#956 = ORIENTED_EDGE ( 'NONE', *, *, #931, .F. ) ;
#957 = STYLED_ITEM ( 'NONE', ( #814 ), #699 ) ;
#958 = DIRECTION ( 'NONE',  ( 0.000000000000000000, 1.000000000000000000, 0.000000000000000000 ) ) ;
#959 = MANIFOLD_SOLID_BREP ( 'Chamfer1', #425 ) ;
#960 = CARTESIAN_POINT ( 'NONE',  ( 4.000000000000003553, -3.049999999999997602, 45.00000000000000711 ) ) ;
#961 = ORIENTED_EDGE ( 'NONE', *, *, #685, .F. ) ;
#962 = VECTOR ( 'NONE', #821, 1000.000000000000000 ) ;
#963 = CONICAL_SURFACE ( 'NONE', #30, 3.049999999999999822, 0.7853981633974500554 ) ;
#964 = ORIENTED_EDGE ( 'NONE', *, *, #555, .T. ) ;
#965 = EDGE_CURVE ( 'NONE', #756, #825, #56, .T. ) ;
#966 = AXIS2_PLACEMENT_3D ( 'NONE', #124, #128, #421 ) ;
#967 = SURFACE_STYLE_FILL_AREA ( #380 ) ;
#968 = DIRECTION ( 'NONE',  ( 0.000000000000000000, 1.000000000000000000, 0.000000000000000000 ) ) ;
ENDSEC;
END-ISO-10303-21;
