ISO-10303-21;
HEADER;
FILE_DESCRIPTION (( 'STEP AP214' ),
    '1' );
FILE_NAME ('WheelRung.STEP',
    '2024-04-22T21:20:28',
    ( '' ),
    ( '' ),
    'SwSTEP 2.0',
    'SolidWorks 2022',
    '' );
FILE_SCHEMA (( 'AUTOMOTIVE_DESIGN' ));
ENDSEC;

DATA;
#1 = ORIENTED_EDGE ( 'NONE', *, *, #369, .F. ) ;
#2 = DIRECTION ( 'NONE',  ( -1.000000000000000000, -0.000000000000000000, -0.000000000000000000 ) ) ;
#3 = ADVANCED_FACE ( 'NONE', ( #386 ), #580, .T. ) ;
#4 = VECTOR ( 'NONE', #598, 1000.000000000000000 ) ;
#5 = DIRECTION ( 'NONE',  ( -1.000000000000000000, 0.000000000000000000, -0.000000000000000000 ) ) ;
#6 = LINE ( 'NONE', #295, #649 ) ;
#7 = EDGE_CURVE ( 'NONE', #551, #909, #179, .T. ) ;
#8 = AXIS2_PLACEMENT_3D ( 'NONE', #814, #896, #463 ) ;
#9 = CARTESIAN_POINT ( 'NONE',  ( 1.696202531645564227, 1.968911086769600471, 12.67293732017678920 ) ) ;
#10 = ORIENTED_EDGE ( 'NONE', *, *, #156, .T. ) ;
#11 = DIRECTION ( 'NONE',  ( 0.000000000000000000, 0.000000000000000000, -1.000000000000000000 ) ) ;
#12 = DIRECTION ( 'NONE',  ( 1.000000000000000000, 0.000000000000000000, 0.000000000000000000 ) ) ;
#13 = ORIENTED_EDGE ( 'NONE', *, *, #369, .T. ) ;
#14 = DIRECTION ( 'NONE',  ( -1.000000000000000000, 0.000000000000000000, 0.000000000000000000 ) ) ;
#15 = ORIENTED_EDGE ( 'NONE', *, *, #600, .T. ) ;
#16 = CARTESIAN_POINT ( 'NONE',  ( 15.69620253164556800, 5.000000000015145218, 14.92293732017679986 ) ) ;
#17 = FACE_OUTER_BOUND ( 'NONE', #916, .T. ) ;
#18 = DIRECTION ( 'NONE',  ( 0.000000000000000000, 0.000000000000000000, -1.000000000000000000 ) ) ;
#19 = ORIENTED_EDGE ( 'NONE', *, *, #33, .F. ) ;
#20 = ORIENTED_EDGE ( 'NONE', *, *, #740, .T. ) ;
#21 = LINE ( 'NONE', #308, #898 ) ;
#22 = VECTOR ( 'NONE', #44, 1000.000000000000000 ) ;
#23 = CARTESIAN_POINT ( 'NONE',  ( 2.696202531645557343, 5.000000000000000888, -1.139240506329124214 ) ) ;
#24 = EDGE_CURVE ( 'NONE', #635, #839, #817, .T. ) ;
#25 = EDGE_LOOP ( 'NONE', ( #904, #202, #385, #185 ) ) ;
#26 = AXIS2_PLACEMENT_3D ( 'NONE', #16, #376, #576 ) ;
#27 = CARTESIAN_POINT ( 'NONE',  ( 0.000000000000000000, 0.000000000000000000, -1.139240506329124214 ) ) ;
#28 = DIRECTION ( 'NONE',  ( 0.000000000000000000, 0.4999999999999985567, -0.8660254037844393737 ) ) ;
#29 = MANIFOLD_SOLID_BREP ( 'Boss-Extrude5', #455 ) ;
#30 = ORIENTED_EDGE ( 'NONE', *, *, #561, .F. ) ;
#31 = DIRECTION ( 'NONE',  ( 1.214306433183764966E-16, -1.156482317317871725E-16, 1.000000000000000000 ) ) ;
#32 = DIRECTION ( 'NONE',  ( 1.000000000000000000, 0.000000000000000000, 0.000000000000000000 ) ) ;
#33 = EDGE_CURVE ( 'NONE', #489, #776, #863, .T. ) ;
#34 = LINE ( 'NONE', #318, #4 ) ;
#35 = EDGE_CURVE ( 'NONE', #668, #330, #99, .T. ) ;
#36 = CARTESIAN_POINT ( 'NONE',  ( -7.303797468354440880, 5.000000000000000000, -6.139240506329121772 ) ) ;
#37 = AXIS2_PLACEMENT_3D ( 'NONE', #108, #408, #331 ) ;
#38 = ORIENTED_EDGE ( 'NONE', *, *, #656, .F. ) ;
#39 = FACE_OUTER_BOUND ( 'NONE', #711, .T. ) ;
#40 = CARTESIAN_POINT ( 'NONE',  ( 5.696202531645564449, 10.00000000000000000, 8.860759493670880005 ) ) ;
#41 = AXIS2_PLACEMENT_3D ( 'NONE', #592, #315, #405 ) ;
#42 = VERTEX_POINT ( 'NONE', #402 ) ;
#43 = DIRECTION ( 'NONE',  ( -1.000000000000000000, 0.000000000000000000, 0.000000000000000000 ) ) ;
#44 = DIRECTION ( 'NONE',  ( 0.000000000000000000, 1.000000000000000000, 0.000000000000000000 ) ) ;
#45 = CARTESIAN_POINT ( 'NONE',  ( 1.356456569489943753, 10.00000000000000000, -5.478986468484742467 ) ) ;
#46 = ORIENTED_EDGE ( 'NONE', *, *, #246, .F. ) ;
#47 = CARTESIAN_POINT ( 'NONE',  ( -13.91817574601591723, -2.499999999999997780, -1.139240506329124214 ) ) ;
#48 = DIRECTION ( 'NONE',  ( 1.000000000000000000, 0.000000000000000000, 0.000000000000000000 ) ) ;
#49 = EDGE_CURVE ( 'NONE', #74, #839, #34, .T. ) ;
#50 = ORIENTED_EDGE ( 'NONE', *, *, #490, .T. ) ;
#51 = CIRCLE ( 'NONE', #697, 10.00000000000000000 ) ;
#52 = VERTEX_POINT ( 'NONE', #683 ) ;
#53 = DIRECTION ( 'NONE',  ( 0.000000000000000000, -0.4999999999999992784, -0.8660254037844390407 ) ) ;
#54 = CARTESIAN_POINT ( 'NONE',  ( 1.696202531645564227, 7.165063509476238046, 18.67293732017679986 ) ) ;
#55 = ORIENTED_EDGE ( 'NONE', *, *, #517, .F. ) ;
#56 = VECTOR ( 'NONE', #140, 1000.000000000000000 ) ;
#57 = ORIENTED_EDGE ( 'NONE', *, *, #430, .F. ) ;
#58 = CARTESIAN_POINT ( 'NONE',  ( -7.303797468354440880, 5.000000000000000000, -26.13924050632912710 ) ) ;
#59 = DIRECTION ( 'NONE',  ( -1.000000000000000000, 0.000000000000000000, -0.000000000000000000 ) ) ;
#60 = ORIENTED_EDGE ( 'NONE', *, *, #530, .F. ) ;
#61 = ADVANCED_FACE ( 'NONE', ( #39 ), #882, .T. ) ;
#62 = LINE ( 'NONE', #884, #686 ) ;
#63 = ADVANCED_FACE ( 'NONE', ( #470 ), #630, .T. ) ;
#64 = DIRECTION ( 'NONE',  ( 0.000000000000000000, -0.4588886765965577430, 0.8884937717797800616 ) ) ;
#65 = ORIENTED_EDGE ( 'NONE', *, *, #400, .T. ) ;
#66 = CARTESIAN_POINT ( 'NONE',  ( 1.356456569489943753, 0.000000000000000000, -5.478986468484742467 ) ) ;
#67 = AXIS2_PLACEMENT_3D ( 'NONE', #690, #547, #136 ) ;
#68 = PRODUCT_RELATED_PRODUCT_CATEGORY ( 'part', '', ( #483 ) ) ;
#69 = VECTOR ( 'NONE', #657, 1000.000000000000227 ) ;
#70 =( NAMED_UNIT ( * ) PLANE_ANGLE_UNIT ( ) SI_UNIT ( $, .RADIAN. ) );
#71 = CARTESIAN_POINT ( 'NONE',  ( 1.696202531645564227, 0.000000000000000000, 8.860759493670880005 ) ) ;
#72 = CARTESIAN_POINT ( 'NONE',  ( -7.303797468354440880, 5.000000000000000000, -1.139240506329124214 ) ) ;
#73 = CARTESIAN_POINT ( 'NONE',  ( -20.30379746835443555, 0.000000000000000000, -1.139240506329117331 ) ) ;
#74 = VERTEX_POINT ( 'NONE', #827 ) ;
#75 = DIRECTION ( 'NONE',  ( 0.000000000000000000, 0.000000000000000000, -1.000000000000000000 ) ) ;
#76 = VECTOR ( 'NONE', #664, 1000.000000000000000 ) ;
#77 = LINE ( 'NONE', #9, #879 ) ;
#78 = CIRCLE ( 'NONE', #325, 10.00000000000000000 ) ;
#79 = EDGE_LOOP ( 'NONE', ( #273, #469, #428, #650 ) ) ;
#80 = CARTESIAN_POINT ( 'NONE',  ( 1.696202531645564227, 5.000000000015145218, 12.87293732017680625 ) ) ;
#81 = CARTESIAN_POINT ( 'NONE',  ( 1.696202531645564227, 1.968911086769600471, 12.67293732017678920 ) ) ;
#82 = LINE ( 'NONE', #659, #128 ) ;
#83 = ORIENTED_EDGE ( 'NONE', *, *, #600, .F. ) ;
#84 = EDGE_CURVE ( 'NONE', #668, #322, #279, .T. ) ;
#85 = DIRECTION ( 'NONE',  ( 0.000000000000000000, 0.4999999999999992228, 0.8660254037844390407 ) ) ;
#86 = DIRECTION ( 'NONE',  ( -1.000000000000000000, 0.000000000000000000, 1.214306433183764966E-16 ) ) ;
#87 = PLANE ( 'NONE',  #911 ) ;
#88 = VERTEX_POINT ( 'NONE', #559 ) ;
#89 = EDGE_CURVE ( 'NONE', #401, #836, #890, .T. ) ;
#90 = PRESENTATION_LAYER_ASSIGNMENT (  '', '', ( #495 ) ) ;
#91 = LINE ( 'NONE', #526, #69 ) ;
#92 = CARTESIAN_POINT ( 'NONE',  ( 1.356456569489943753, 0.000000000000000000, -1.139240506329124214 ) ) ;
#93 = ORIENTED_EDGE ( 'NONE', *, *, #577, .F. ) ;
#94 = SURFACE_STYLE_USAGE ( .BOTH. , #661 ) ;
#95 = VECTOR ( 'NONE', #364, 1000.000000000000000 ) ;
#96 = DIRECTION ( 'NONE',  ( 1.000000000000000000, 0.000000000000000000, 0.000000000000000000 ) ) ;
#97 = CARTESIAN_POINT ( 'NONE',  ( -15.96405150619882640, 0.000000000000000000, -1.139240506329124214 ) ) ;
#98 = ORIENTED_EDGE ( 'NONE', *, *, #677, .T. ) ;
#99 = LINE ( 'NONE', #397, #277 ) ;
#100 = FACE_OUTER_BOUND ( 'NONE', #286, .T. ) ;
#101 = DIRECTION ( 'NONE',  ( -1.000000000000000000, 0.000000000000000000, 1.214306433183764966E-16 ) ) ;
#102 = ORIENTED_EDGE ( 'NONE', *, *, #388, .F. ) ;
#103 = EDGE_CURVE ( 'NONE', #52, #856, #639, .T. ) ;
#104 =( NAMED_UNIT ( * ) PLANE_ANGLE_UNIT ( ) SI_UNIT ( $, .RADIAN. ) );
#105 = CARTESIAN_POINT ( 'NONE',  ( 5.696202531645564449, 2.834936490554030186, 18.67293732017679986 ) ) ;
#106 = CIRCLE ( 'NONE', #370, 10.00000000000000000 ) ;
#107 = SURFACE_SIDE_STYLE ('',( #666 ) ) ;
#108 = CARTESIAN_POINT ( 'NONE',  ( 1.696202531645564227, 8.031088913260679973, 12.67293732017680163 ) ) ;
#109 = CARTESIAN_POINT ( 'NONE',  ( -20.30379746835443555, 0.000000000000000000, -1.139240506329117109 ) ) ;
#110 = CARTESIAN_POINT ( 'NONE',  ( -0.6894191906929642011, 12.49999999999999645, -26.13924050632912710 ) ) ;
#111 = AXIS2_PLACEMENT_3D ( 'NONE', #497, #145, #14 ) ;
#112 = COLOUR_RGB ( '',0.7921568627450980005, 0.8196078431372548767, 0.9333333333333333481 ) ;
#113 = ORIENTED_EDGE ( 'NONE', *, *, #490, .F. ) ;
#114 = DIRECTION ( 'NONE',  ( 0.000000000000000000, -0.4588886765965577430, 0.8884937717797800616 ) ) ;
#115 = CARTESIAN_POINT ( 'NONE',  ( -15.76409448367392940, 10.34633572234331389, -5.678943491009610156 ) ) ;
#116 = DIRECTION ( 'NONE',  ( 0.000000000000000000, 0.000000000000000000, 1.000000000000000000 ) ) ;
#117 = DIRECTION ( 'NONE',  ( 1.000000000000000000, 0.000000000000000000, 0.000000000000000000 ) ) ;
#118 = EDGE_CURVE ( 'NONE', #341, #503, #767, .T. ) ;
#119 = ORIENTED_EDGE ( 'NONE', *, *, #764, .F. ) ;
#120 = ORIENTED_EDGE ( 'NONE', *, *, #400, .F. ) ;
#121 = DIRECTION ( 'NONE',  ( 0.000000000000000000, -0.4588886765965577985, 0.8884937717797799506 ) ) ;
#122 = CARTESIAN_POINT ( 'NONE',  ( 1.696202531645564227, 0.000000000000000000, 8.860759493670880005 ) ) ;
#123 = EDGE_LOOP ( 'NONE', ( #826, #765 ) ) ;
#124 = AXIS2_PLACEMENT_3D ( 'NONE', #613, #127, #897 ) ;
#125 = ORIENTED_EDGE ( 'NONE', *, *, #830, .T. ) ;
#126 = FACE_OUTER_BOUND ( 'NONE', #79, .T. ) ;
#127 = DIRECTION ( 'NONE',  ( 0.000000000000000000, 0.000000000000000000, -1.000000000000000000 ) ) ;
#128 = VECTOR ( 'NONE', #18, 1000.000000000000000 ) ;
#129 = ADVANCED_FACE ( 'NONE', ( #17 ), #87, .T. ) ;
#130 = VERTEX_POINT ( 'NONE', #383 ) ;
#131 = STYLED_ITEM ( 'NONE', ( #539 ), #135 ) ;
#132 = ORIENTED_EDGE ( 'NONE', *, *, #7, .F. ) ;
#133 = EDGE_CURVE ( 'NONE', #406, #803, #240, .T. ) ;
#134 = DIRECTION ( 'NONE',  ( 1.214306433183764966E-16, -1.156482317317871725E-16, 1.000000000000000000 ) ) ;
#135 = ADVANCED_BREP_SHAPE_REPRESENTATION ( 'WheelRung', ( #29, #443 ), #207 ) ;
#136 = DIRECTION ( 'NONE',  ( 0.000000000000000000, -0.000000000000000000, -1.000000000000000000 ) ) ;
#137 = EDGE_LOOP ( 'NONE', ( #178, #801, #706, #604, #38, #734, #692, #481 ) ) ;
#138 = LINE ( 'NONE', #842, #459 ) ;
#139 = ORIENTED_EDGE ( 'NONE', *, *, #529, .T. ) ;
#140 = DIRECTION ( 'NONE',  ( -1.214306433183764966E-16, -0.000000000000000000, -1.000000000000000000 ) ) ;
#141 = VECTOR ( 'NONE', #578, 1000.000000000000000 ) ;
#142 = LINE ( 'NONE', #71, #702 ) ;
#143 = ORIENTED_EDGE ( 'NONE', *, *, #654, .T. ) ;
#144 = VECTOR ( 'NONE', #535, 1000.000000000000000 ) ;
#145 = DIRECTION ( 'NONE',  ( 0.000000000000000000, 0.000000000000000000, -1.000000000000000000 ) ) ;
#146 = EDGE_CURVE ( 'NONE', #777, #859, #676, .T. ) ;
#147 = CARTESIAN_POINT ( 'NONE',  ( 1.696202531645564227, 8.031088913260679973, 12.67293732017680163 ) ) ;
#148 = CARTESIAN_POINT ( 'NONE',  ( 0.000000000000000000, 0.000000000000000000, 0.000000000000000000 ) ) ;
#149 = FACE_OUTER_BOUND ( 'NONE', #392, .T. ) ;
#150 = VERTEX_POINT ( 'NONE', #169 ) ;
#151 = VECTOR ( 'NONE', #114, 1000.000000000000227 ) ;
#152 = LINE ( 'NONE', #646, #848 ) ;
#153 = ORIENTED_EDGE ( 'NONE', *, *, #35, .T. ) ;
#154 = CARTESIAN_POINT ( 'NONE',  ( -20.30379746835443910, 10.00000000000000000, -41.13924050632912355 ) ) ;
#155 = DIRECTION ( 'NONE',  ( -0.7071067811865485719, -0.000000000000000000, 0.7071067811865465735 ) ) ;
#156 = EDGE_CURVE ( 'NONE', #503, #278, #106, .T. ) ;
#157 = DIRECTION ( 'NONE',  ( 0.7071067811865484609, 0.000000000000000000, -0.7071067811865465735 ) ) ;
#158 = EDGE_CURVE ( 'NONE', #813, #74, #894, .T. ) ;
#159 = CIRCLE ( 'NONE', #864, 10.00000000000000000 ) ;
#160 = ORIENTED_EDGE ( 'NONE', *, *, #375, .T. ) ;
#161 = CARTESIAN_POINT ( 'NONE',  ( -20.30379746835443555, 0.000000000000000000, -1.139240506329117331 ) ) ;
#162 = ORIENTED_EDGE ( 'NONE', *, *, #877, .T. ) ;
#163 = EDGE_CURVE ( 'NONE', #717, #412, #310, .T. ) ;
#164 = LINE ( 'NONE', #27, #742 ) ;
#165 = LINE ( 'NONE', #736, #633 ) ;
#166 = VERTEX_POINT ( 'NONE', #854 ) ;
#167 = VECTOR ( 'NONE', #248, 1000.000000000000000 ) ;
#168 = CARTESIAN_POINT ( 'NONE',  ( -20.30379746835443555, 0.000000000000000000, 2.298325617960834018E-15 ) ) ;
#169 = CARTESIAN_POINT ( 'NONE',  ( 5.696202531645564449, 0.000000000000000000, -1.139240506329110225 ) ) ;
#170 = ORIENTED_EDGE ( 'NONE', *, *, #163, .F. ) ;
#171 = FILL_AREA_STYLE_COLOUR ( '', #183 ) ;
#172 = CARTESIAN_POINT ( 'NONE',  ( 5.696202531645565337, 5.000000000015145218, 14.92293732017679986 ) ) ;
#173 = VECTOR ( 'NONE', #784, 1000.000000000000227 ) ;
#174 = EDGE_CURVE ( 'NONE', #401, #489, #741, .T. ) ;
#175 = CARTESIAN_POINT ( 'NONE',  ( -15.96405150619882640, 0.000000000000000000, -5.478986468484715822 ) ) ;
#176 = CARTESIAN_POINT ( 'NONE',  ( 1.696202531645564227, 0.6698729810929401340, 14.92293732017680163 ) ) ;
#177 = DIRECTION ( 'NONE',  ( 0.000000000000000000, 1.000000000000000000, 0.000000000000000000 ) ) ;
#178 = ORIENTED_EDGE ( 'NONE', *, *, #786, .F. ) ;
#179 = LINE ( 'NONE', #176, #564 ) ;
#180 = CARTESIAN_POINT ( 'NONE',  ( -15.96405150619882640, 10.00000000000000000, -1.139240506329124214 ) ) ;
#181 = DIRECTION ( 'NONE',  ( -0.000000000000000000, -0.000000000000000000, 1.000000000000000000 ) ) ;
#182 = DIRECTION ( 'NONE',  ( 1.000000000000000000, 0.000000000000000000, 0.000000000000000000 ) ) ;
#183 = COLOUR_RGB ( '',0.7921568627450980005, 0.8196078431372548767, 0.9333333333333333481 ) ;
#184 = ORIENTED_EDGE ( 'NONE', *, *, #174, .T. ) ;
#185 = ORIENTED_EDGE ( 'NONE', *, *, #878, .F. ) ;
#186 = DIRECTION ( 'NONE',  ( 0.000000000000000000, 0.000000000000000000, -1.000000000000000000 ) ) ;
#187 = EDGE_CURVE ( 'NONE', #52, #88, #861, .T. ) ;
#188 = CARTESIAN_POINT ( 'NONE',  ( 0.6962025316455660029, 0.000000000000000000, -6.139240506329121772 ) ) ;
#189 = DIRECTION ( 'NONE',  ( 1.214306433183764966E-16, 0.000000000000000000, 1.000000000000000000 ) ) ;
#190 = VECTOR ( 'NONE', #732, 1000.000000000000000 ) ;
#191 = ORIENTED_EDGE ( 'NONE', *, *, #566, .T. ) ;
#192 = DIRECTION ( 'NONE',  ( 1.000000000000000000, 0.000000000000000000, 0.000000000000000000 ) ) ;
#193 = CARTESIAN_POINT ( 'NONE',  ( -7.303797468354440880, 5.000000000000000000, -28.13924050632912000 ) ) ;
#194 = PLANE ( 'NONE',  #417 ) ;
#195 = EDGE_LOOP ( 'NONE', ( #162, #523, #574, #597, #98, #629, #605, #701, #143, #624 ) ) ;
#196 = CARTESIAN_POINT ( 'NONE',  ( 5.696202531645564449, 0.000000000000000000, 8.860759493670880005 ) ) ;
#197 = FACE_OUTER_BOUND ( 'NONE', #557, .T. ) ;
#198 = EDGE_CURVE ( 'NONE', #415, #323, #531, .T. ) ;
#199 = EDGE_CURVE ( 'NONE', #336, #42, #51, .T. ) ;
#200 = ORIENTED_EDGE ( 'NONE', *, *, #118, .T. ) ;
#201 = VECTOR ( 'NONE', #623, 1000.000000000000000 ) ;
#202 = ORIENTED_EDGE ( 'NONE', *, *, #49, .T. ) ;
#203 = CARTESIAN_POINT ( 'NONE',  ( 1.696202531645564227, 10.00000000000000000, 8.860759493670880005 ) ) ;
#204 = PLANE ( 'NONE',  #291 ) ;
#205 = CIRCLE ( 'NONE', #391, 10.00000000000000000 ) ;
#206 = VERTEX_POINT ( 'NONE', #652 ) ;
#207 =( GEOMETRIC_REPRESENTATION_CONTEXT ( 3 ) GLOBAL_UNCERTAINTY_ASSIGNED_CONTEXT ( ( #640 ) ) GLOBAL_UNIT_ASSIGNED_CONTEXT ( ( #492, #70, #917 ) ) REPRESENTATION_CONTEXT ( 'NONE', 'WORKASPACE' ) );
#208 = ORIENTED_EDGE ( 'NONE', *, *, #158, .F. ) ;
#209 = DIRECTION ( 'NONE',  ( 0.000000000000000000, -0.5000000000000003331, 0.8660254037844383745 ) ) ;
#210 = VERTEX_POINT ( 'NONE', #300 ) ;
#211 = DIRECTION ( 'NONE',  ( 1.000000000000000000, 0.000000000000000000, 0.000000000000000000 ) ) ;
#212 = ORIENTED_EDGE ( 'NONE', *, *, #878, .T. ) ;
#213 = AXIS2_PLACEMENT_3D ( 'NONE', #534, #454, #380 ) ;
#214 = EDGE_CURVE ( 'NONE', #887, #401, #521, .T. ) ;
#215 = EDGE_LOOP ( 'NONE', ( #102, #235, #825, #359 ) ) ;
#216 = VECTOR ( 'NONE', #304, 1000.000000000000227 ) ;
#217 = LINE ( 'NONE', #718, #567 ) ;
#218 = ORIENTED_EDGE ( 'NONE', *, *, #33, .T. ) ;
#219 = CARTESIAN_POINT ( 'NONE',  ( 0.000000000000000000, 0.000000000000000000, 0.000000000000000000 ) ) ;
#220 = ORIENTED_EDGE ( 'NONE', *, *, #561, .T. ) ;
#221 =( BOUNDED_CURVE ( )  B_SPLINE_CURVE ( 3, ( #689, #883, #115, #611 ),
 .UNSPECIFIED., .F., .F. ) 
 B_SPLINE_CURVE_WITH_KNOTS ( ( 4, 4 ),
 ( 2.498091544796505303, 2.617993877991494411 ),
 .UNSPECIFIED. ) 
 CURVE ( )  GEOMETRIC_REPRESENTATION_ITEM ( )  RATIONAL_B_SPLINE_CURVE ( ( 1.000000000000000000, 0.9988023113276414122, 0.9988023113276414122, 1.000000000000000000 ) ) 
 REPRESENTATION_ITEM ( '' )  );
#222 = VERTEX_POINT ( 'NONE', #793 ) ;
#223 = EDGE_CURVE ( 'NONE', #551, #482, #165, .T. ) ;
#224 = CARTESIAN_POINT ( 'NONE',  ( 1.696202531645564227, 10.00000000000000000, 8.860759493670880005 ) ) ;
#225 = FACE_OUTER_BOUND ( 'NONE', #579, .T. ) ;
#226 = ORIENTED_EDGE ( 'NONE', *, *, #786, .T. ) ;
#227 = VECTOR ( 'NONE', #377, 1000.000000000000000 ) ;
#228 = CARTESIAN_POINT ( 'NONE',  ( 1.696202531645564227, 5.000000000015145218, 16.97293732017679346 ) ) ;
#229 = PLANE ( 'NONE',  #431 ) ;
#230 = DIRECTION ( 'NONE',  ( 0.000000000000000000, 0.000000000000000000, -1.000000000000000000 ) ) ;
#231 = PRODUCT_DEFINITION ( 'UNKNOWN', '', #410, #333 ) ;
#232 = PLANE ( 'NONE',  #532 ) ;
#233 = AXIS2_PLACEMENT_3D ( 'NONE', #219, #653, #565 ) ;
#234 = ORIENTED_EDGE ( 'NONE', *, *, #146, .F. ) ;
#235 = ORIENTED_EDGE ( 'NONE', *, *, #811, .F. ) ;
#236 = CARTESIAN_POINT ( 'NONE',  ( 5.696202531645564449, 9.330127018937334427, 14.92293732017680163 ) ) ;
#237 = DIRECTION ( 'NONE',  ( -1.000000000000000000, 0.000000000000000000, 0.000000000000000000 ) ) ;
#238 = CARTESIAN_POINT ( 'NONE',  ( 1.696202531645564227, 5.000000000015145218, 14.92293732017679986 ) ) ;
#239 = DIRECTION ( 'NONE',  ( -1.040834085586084257E-16, -0.000000000000000000, -1.000000000000000000 ) ) ;
#240 = LINE ( 'NONE', #806, #354 ) ;
#241 = ORIENTED_EDGE ( 'NONE', *, *, #35, .F. ) ;
#242 =( NAMED_UNIT ( * ) PLANE_ANGLE_UNIT ( ) SI_UNIT ( $, .RADIAN. ) );
#243 = ORIENTED_EDGE ( 'NONE', *, *, #84, .F. ) ;
#244 = DIRECTION ( 'NONE',  ( 1.000000000000000000, 0.000000000000000000, 0.000000000000000000 ) ) ;
#245 = CARTESIAN_POINT ( 'NONE',  ( 1.356456569489943753, 0.000000000000000000, -5.478986468484742467 ) ) ;
#246 = EDGE_CURVE ( 'NONE', #482, #717, #728, .T. ) ;
#247 = AXIS2_PLACEMENT_3D ( 'NONE', #54, #332, #182 ) ;
#248 = DIRECTION ( 'NONE',  ( -0.000000000000000000, -0.000000000000000000, 1.000000000000000000 ) ) ;
#249 = VECTOR ( 'NONE', #96, 1000.000000000000000 ) ;
#250 = LINE ( 'NONE', #762, #144 ) ;
#251 = AXIS2_PLACEMENT_3D ( 'NONE', #72, #75, #562 ) ;
#252 = CARTESIAN_POINT ( 'NONE',  ( 1.696202531645564227, 9.330127018937334427, 14.92293732017680163 ) ) ;
#253 = PLANE ( 'NONE',  #37 ) ;
#254 = CARTESIAN_POINT ( 'NONE',  ( -13.91817574601591723, 12.49999999999999645, -1.139240506329124214 ) ) ;
#255 = CARTESIAN_POINT ( 'NONE',  ( 1.696202531645564227, 10.00000000000000000, 8.860759493670880005 ) ) ;
#256 = ADVANCED_FACE ( 'NONE', ( #680 ), #399, .T. ) ;
#257 = EDGE_LOOP ( 'NONE', ( #610, #513 ) ) ;
#258 = ORIENTED_EDGE ( 'NONE', *, *, #348, .F. ) ;
#259 = LINE ( 'NONE', #528, #773 ) ;
#260 = DIRECTION ( 'NONE',  ( 0.000000000000000000, 0.000000000000000000, -1.000000000000000000 ) ) ;
#261 = VECTOR ( 'NONE', #508, 1000.000000000000000 ) ;
#262 = ORIENTED_EDGE ( 'NONE', *, *, #524, .F. ) ;
#263 = ADVANCED_FACE ( 'NONE', ( #880 ), #204, .F. ) ;
#264 = EDGE_LOOP ( 'NONE', ( #511, #570, #390, #552 ) ) ;
#265 = CARTESIAN_POINT ( 'NONE',  ( 1.156499546965058522, -0.3463357223432962928, -5.678943491009625255 ) ) ;
#266 = PLANE ( 'NONE',  #67 ) ;
#267 = AXIS2_PLACEMENT_3D ( 'NONE', #626, #352, #478 ) ;
#268 = ORIENTED_EDGE ( 'NONE', *, *, #357, .T. ) ;
#269 = CARTESIAN_POINT ( 'NONE',  ( 5.696202531645563560, 10.00000000000000000, -1.139240506329110225 ) ) ;
#270 = EDGE_CURVE ( 'NONE', #302, #341, #596, .T. ) ;
#271 = DIRECTION ( 'NONE',  ( 0.000000000000000000, 0.000000000000000000, -1.000000000000000000 ) ) ;
#272 = ORIENTED_EDGE ( 'NONE', *, *, #770, .T. ) ;
#273 = ORIENTED_EDGE ( 'NONE', *, *, #788, .F. ) ;
#274 = DIRECTION ( 'NONE',  ( -1.000000000000000000, 0.000000000000000000, -0.000000000000000000 ) ) ;
#275 = CARTESIAN_POINT ( 'NONE',  ( -20.30379746835443555, 10.00000000000000000, 8.860759493670881781 ) ) ;
#276 = EDGE_CURVE ( 'NONE', #776, #519, #634, .T. ) ;
#277 = VECTOR ( 'NONE', #678, 1000.000000000000000 ) ;
#278 = VERTEX_POINT ( 'NONE', #815 ) ;
#279 = LINE ( 'NONE', #761, #340 ) ;
#280 = DIRECTION ( 'NONE',  ( -0.000000000000000000, 0.8884937717797800616, 0.4588886765965578540 ) ) ;
#281 = PRODUCT_DEFINITION_SHAPE ( 'NONE', 'NONE',  #231 ) ;
#282 = VECTOR ( 'NONE', #785, 1000.000000000000227 ) ;
#283 = ORIENTED_EDGE ( 'NONE', *, *, #198, .T. ) ;
#284 =( GEOMETRIC_REPRESENTATION_CONTEXT ( 3 ) GLOBAL_UNCERTAINTY_ASSIGNED_CONTEXT ( ( #365 ) ) GLOBAL_UNIT_ASSIGNED_CONTEXT ( ( #452, #242, #458 ) ) REPRESENTATION_CONTEXT ( 'NONE', 'WORKASPACE' ) );
#285 = CYLINDRICAL_SURFACE ( 'NONE', #251, 10.00000000000000000 ) ;
#286 = EDGE_LOOP ( 'NONE', ( #30, #747, #499, #687 ) ) ;
#287 = ADVANCED_FACE ( 'NONE', ( #704, #618 ), #698, .F. ) ;
#288 = LINE ( 'NONE', #644, #725 ) ;
#289 = DIRECTION ( 'NONE',  ( 0.000000000000000000, 0.000000000000000000, -1.000000000000000000 ) ) ;
#290 = CARTESIAN_POINT ( 'NONE',  ( 1.696202531645564227, 10.00000000000000000, 8.860759493670880005 ) ) ;
#291 = AXIS2_PLACEMENT_3D ( 'NONE', #467, #260, #907 ) ;
#292 = LINE ( 'NONE', #512, #282 ) ;
#293 = ORIENTED_EDGE ( 'NONE', *, *, #677, .F. ) ;
#294 = VECTOR ( 'NONE', #774, 1000.000000000000227 ) ;
#295 = CARTESIAN_POINT ( 'NONE',  ( 27.69620253164556800, 12.49999999999999645, -26.13924050632912710 ) ) ;
#296 = ADVANCED_FACE ( 'NONE', ( #892 ), #479, .T. ) ;
#297 = ORIENTED_EDGE ( 'NONE', *, *, #24, .T. ) ;
#298 = EDGE_CURVE ( 'NONE', #322, #887, #339, .T. ) ;
#299 = DIRECTION ( 'NONE',  ( 0.7071067811865485719, -0.000000000000000000, -0.7071067811865465735 ) ) ;
#300 = CARTESIAN_POINT ( 'NONE',  ( -0.6894191906929649782, 12.49999999999999645, -6.139240506329122660 ) ) ;
#301 = FACE_OUTER_BOUND ( 'NONE', #586, .T. ) ;
#302 = VERTEX_POINT ( 'NONE', #628 ) ;
#303 = PRODUCT_CONTEXT ( 'NONE', #799, 'mechanical' ) ;
#304 = DIRECTION ( 'NONE',  ( 0.000000000000000000, -0.4999999999999992228, -0.8660254037844390407 ) ) ;
#305 = CARTESIAN_POINT ( 'NONE',  ( 5.696202531645565337, 5.000000000015145218, 14.92293732017679986 ) ) ;
#306 = ORIENTED_EDGE ( 'NONE', *, *, #276, .T. ) ;
#307 = VECTOR ( 'NONE', #451, 1000.000000000000000 ) ;
#308 = CARTESIAN_POINT ( 'NONE',  ( 5.696202531645564449, 8.031088913260679973, 12.67293732017680163 ) ) ;
#309 = DIRECTION ( 'NONE',  ( -1.000000000000000000, 0.000000000000000000, 1.040834085586084257E-16 ) ) ;
#310 = LINE ( 'NONE', #572, #665 ) ;
#311 = CARTESIAN_POINT ( 'NONE',  ( -7.303797468354440880, 5.000000000000000000, -1.139240506329124214 ) ) ;
#312 = CARTESIAN_POINT ( 'NONE',  ( -15.54374589538429774, -0.6800687639601911139, -5.899292079299243596 ) ) ;
#313 = ADVANCED_FACE ( 'NONE', ( #197 ), #266, .T. ) ;
#314 = VERTEX_POINT ( 'NONE', #426 ) ;
#315 = DIRECTION ( 'NONE',  ( 1.214306433183764966E-16, -1.156482317317871725E-16, 1.000000000000000000 ) ) ;
#316 = FACE_OUTER_BOUND ( 'NONE', #25, .T. ) ;
#317 = ORIENTED_EDGE ( 'NONE', *, *, #614, .T. ) ;
#318 = CARTESIAN_POINT ( 'NONE',  ( 15.69620253164556800, 5.000000000015145218, 12.87293732017680625 ) ) ;
#319 = CARTESIAN_POINT ( 'NONE',  ( 0.6962025316455660029, 10.99999999999998757, -6.139240506329122660 ) ) ;
#320 = VECTOR ( 'NONE', #752, 1000.000000000000000 ) ;
#321 = DIRECTION ( 'NONE',  ( 0.000000000000000000, 0.000000000000000000, -1.000000000000000000 ) ) ;
#322 = VERTEX_POINT ( 'NONE', #122 ) ;
#323 = VERTEX_POINT ( 'NONE', #344 ) ;
#324 = CARTESIAN_POINT ( 'NONE',  ( 5.696202531645564449, 7.165063509476238046, 18.67293732017679986 ) ) ;
#325 = AXIS2_PLACEMENT_3D ( 'NONE', #891, #31, #608 ) ;
#326 = DIRECTION ( 'NONE',  ( 1.040834085586084257E-16, 0.000000000000000000, 1.000000000000000000 ) ) ;
#327 = ADVANCED_FACE ( 'NONE', ( #541 ), #709, .F. ) ;
#328 = PRESENTATION_LAYER_ASSIGNMENT (  '', '', ( #131 ) ) ;
#329 = ADVANCED_FACE ( 'NONE', ( #820, #472 ), #194, .F. ) ;
#330 = VERTEX_POINT ( 'NONE', #275 ) ;
#331 = DIRECTION ( 'NONE',  ( 0.000000000000000000, 0.4999999999999992784, 0.8660254037844390407 ) ) ;
#332 = DIRECTION ( 'NONE',  ( -0.000000000000000000, 0.000000000000000000, 1.000000000000000000 ) ) ;
#333 = PRODUCT_DEFINITION_CONTEXT ( 'detailed design', #593, 'design' ) ;
#334 = EDGE_CURVE ( 'NONE', #437, #302, #759, .T. ) ;
#335 = ORIENTED_EDGE ( 'NONE', *, *, #764, .T. ) ;
#336 = VERTEX_POINT ( 'NONE', #110 ) ;
#337 = CARTESIAN_POINT ( 'NONE',  ( 1.356456569489943753, 10.00000000000000000, -1.139240506329124214 ) ) ;
#338 = DIRECTION ( 'NONE',  ( 1.000000000000000000, 0.000000000000000000, 0.000000000000000000 ) ) ;
#339 = LINE ( 'NONE', #609, #874 ) ;
#340 = VECTOR ( 'NONE', #192, 1000.000000000000000 ) ;
#341 = VERTEX_POINT ( 'NONE', #475 ) ;
#342 = EDGE_LOOP ( 'NONE', ( #272, #816, #50, #153 ) ) ;
#343 = LINE ( 'NONE', #269, #445 ) ;
#344 = CARTESIAN_POINT ( 'NONE',  ( -13.91817574601591723, -2.499999999999997780, -6.139240506329122660 ) ) ;
#345 = CIRCLE ( 'NONE', #821, 10.00000000000000000 ) ;
#346 = AXIS2_PLACEMENT_3D ( 'NONE', #421, #703, #53 ) ;
#347 = ORIENTED_EDGE ( 'NONE', *, *, #556, .T. ) ;
#348 = EDGE_CURVE ( 'NONE', #330, #887, #835, .T. ) ;
#349 = FACE_OUTER_BOUND ( 'NONE', #264, .T. ) ;
#350 = CARTESIAN_POINT ( 'NONE',  ( 5.696202531645559120, 10.00000000000000000, -41.13924050632912355 ) ) ;
#351 = ORIENTED_EDGE ( 'NONE', *, *, #367, .F. ) ;
#352 = DIRECTION ( 'NONE',  ( 0.000000000000000000, 0.000000000000000000, -1.000000000000000000 ) ) ;
#353 = ORIENTED_EDGE ( 'NONE', *, *, #544, .F. ) ;
#354 = VECTOR ( 'NONE', #155, 1000.000000000000000 ) ;
#355 = DIRECTION ( 'NONE',  ( 0.000000000000000000, 0.000000000000000000, -1.000000000000000000 ) ) ;
#356 = DIRECTION ( 'NONE',  ( 0.000000000000000000, -1.000000000000000000, 0.000000000000000000 ) ) ;
#357 = EDGE_CURVE ( 'NONE', #379, #831, #414, .T. ) ;
#358 = AXIS2_PLACEMENT_3D ( 'NONE', #440, #735, #805 ) ;
#359 = ORIENTED_EDGE ( 'NONE', *, *, #751, .T. ) ;
#360 = PLANE ( 'NONE',  #838 ) ;
#361 = EDGE_CURVE ( 'NONE', #887, #733, #903, .T. ) ;
#362 = ORIENTED_EDGE ( 'NONE', *, *, #146, .T. ) ;
#363 = LINE ( 'NONE', #636, #56 ) ;
#364 = DIRECTION ( 'NONE',  ( 0.000000000000000000, -1.000000000000000000, 0.000000000000000000 ) ) ;
#365 = UNCERTAINTY_MEASURE_WITH_UNIT (LENGTH_MEASURE( 1.000000000000000082E-05 ), #452, 'distance_accuracy_value', 'NONE');
#366 = CARTESIAN_POINT ( 'NONE',  ( -4.303797468354434663, 10.00000000000000000, 8.860759493670880005 ) ) ;
#367 = EDGE_CURVE ( 'NONE', #914, #406, #221, .T. ) ;
#368 = CARTESIAN_POINT ( 'NONE',  ( 5.696202531645564449, 0.6698729810929401340, 14.92293732017680163 ) ) ;
#369 = EDGE_CURVE ( 'NONE', #406, #831, #411, .T. ) ;
#370 = AXIS2_PLACEMENT_3D ( 'NONE', #670, #594, #457 ) ;
#371 = DIRECTION ( 'NONE',  ( -1.000000000000000000, 0.000000000000000000, 0.000000000000000000 ) ) ;
#372 = VECTOR ( 'NONE', #181, 1000.000000000000000 ) ;
#373 = VERTEX_POINT ( 'NONE', #464 ) ;
#374 = EDGE_LOOP ( 'NONE', ( #837, #802, #258, #241 ) ) ;
#375 = EDGE_CURVE ( 'NONE', #323, #302, #693, .T. ) ;
#376 = DIRECTION ( 'NONE',  ( -1.000000000000000000, -0.000000000000000000, -0.000000000000000000 ) ) ;
#377 = DIRECTION ( 'NONE',  ( 1.000000000000000000, 0.000000000000000000, 0.000000000000000000 ) ) ;
#378 = DIRECTION ( 'NONE',  ( 0.000000000000000000, 0.000000000000000000, 1.000000000000000000 ) ) ;
#379 = VERTEX_POINT ( 'NONE', #337 ) ;
#380 = DIRECTION ( 'NONE',  ( 0.000000000000000000, -0.000000000000000000, 1.000000000000000000 ) ) ;
#381 = FACE_OUTER_BOUND ( 'NONE', #424, .T. ) ;
#382 = CARTESIAN_POINT ( 'NONE',  ( 1.356456569489943753, 0.000000000000000000, -1.139240506329124214 ) ) ;
#383 = CARTESIAN_POINT ( 'NONE',  ( 0.6962025316455660029, -0.9999999999999870104, -6.139240506329124436 ) ) ;
#384 = CARTESIAN_POINT ( 'NONE',  ( 1.696202531645564227, 1.968911086769600471, 12.67293732017678920 ) ) ;
#385 = ORIENTED_EDGE ( 'NONE', *, *, #517, .T. ) ;
#386 = FACE_OUTER_BOUND ( 'NONE', #660, .T. ) ;
#387 = LINE ( 'NONE', #394, #249 ) ;
#388 = EDGE_CURVE ( 'NONE', #373, #536, #616, .T. ) ;
#389 = CARTESIAN_POINT ( 'NONE',  ( -7.303797468354440880, 5.000000000000000000, -26.13924050632912710 ) ) ;
#390 = ORIENTED_EDGE ( 'NONE', *, *, #361, .T. ) ;
#391 = AXIS2_PLACEMENT_3D ( 'NONE', #393, #465, #674 ) ;
#392 = EDGE_LOOP ( 'NONE', ( #113, #125, #899, #558, #362, #804, #737, #83, #243 ) ) ;
#393 = CARTESIAN_POINT ( 'NONE',  ( -7.303797468354440880, 5.000000000000000000, -26.13924050632912710 ) ) ;
#394 = CARTESIAN_POINT ( 'NONE',  ( 1.696202531645564227, 2.834936490554030186, 18.67293732017679986 ) ) ;
#395 = CARTESIAN_POINT ( 'NONE',  ( -15.76409448367393296, -0.3463357223433121690, -5.678943491009610156 ) ) ;
#396 =( BOUNDED_CURVE ( )  B_SPLINE_CURVE ( 3, ( #599, #413, #265, #245 ),
 .UNSPECIFIED., .F., .F. ) 
 B_SPLINE_CURVE_WITH_KNOTS ( ( 4, 4 ),
 ( 2.498091544796510632, 2.617993877991494855 ),
 .UNSPECIFIED. ) 
 CURVE ( )  GEOMETRIC_REPRESENTATION_ITEM ( )  RATIONAL_B_SPLINE_CURVE ( ( 1.000000000000000000, 0.9988023113276415232, 0.9988023113276415232, 1.000000000000000000 ) ) 
 REPRESENTATION_ITEM ( '' )  );
#397 = CARTESIAN_POINT ( 'NONE',  ( -20.30379746835443555, 10.00000000000000000, 8.860759493670881781 ) ) ;
#398 = DIRECTION ( 'NONE',  ( 0.7071067811865465735, -0.000000000000000000, 0.7071067811865484609 ) ) ;
#399 = PLANE ( 'NONE',  #719 ) ;
#400 = EDGE_CURVE ( 'NONE', #856, #914, #404, .T. ) ;
#401 = VERTEX_POINT ( 'NONE', #40 ) ;
#402 = CARTESIAN_POINT ( 'NONE',  ( 2.696202531645557343, 5.000000000000000888, -26.13924050632912710 ) ) ;
#403 = ADVANCED_FACE ( 'NONE', ( #607 ), #253, .T. ) ;
#404 = LINE ( 'NONE', #684, #22 ) ;
#405 = DIRECTION ( 'NONE',  ( -1.000000000000000000, 0.000000000000000000, 8.673617379884035472E-17 ) ) ;
#406 = VERTEX_POINT ( 'NONE', #631 ) ;
#407 = SURFACE_STYLE_USAGE ( .BOTH. , #107 ) ;
#408 = DIRECTION ( 'NONE',  ( 0.000000000000000000, 0.8660254037844390407, -0.4999999999999992784 ) ) ;
#409 = AXIS2_PLACEMENT_3D ( 'NONE', #384, #851, #504 ) ;
#410 = PRODUCT_DEFINITION_FORMATION_WITH_SPECIFIED_SOURCE ( 'ANY', '', #483, .NOT_KNOWN. ) ;
#411 = LINE ( 'NONE', #180, #710 ) ;
#412 = VERTEX_POINT ( 'NONE', #196 ) ;
#413 = CARTESIAN_POINT ( 'NONE',  ( 0.9361509586754350742, -0.6800687639601622481, -5.899292079299250702 ) ) ;
#414 = LINE ( 'NONE', #885, #201 ) ;
#415 = VERTEX_POINT ( 'NONE', #912 ) ;
#416 = PLANE ( 'NONE',  #540 ) ;
#417 = AXIS2_PLACEMENT_3D ( 'NONE', #350, #486, #189 ) ;
#418 = ADVANCED_FACE ( 'NONE', ( #349 ), #416, .T. ) ;
#419 = EDGE_LOOP ( 'NONE', ( #542, #55 ) ) ;
#420 = ORIENTED_EDGE ( 'NONE', *, *, #585, .T. ) ;
#421 = CARTESIAN_POINT ( 'NONE',  ( 1.696202531645564227, 2.834936490554030186, 18.67293732017679986 ) ) ;
#422 = DIRECTION ( 'NONE',  ( 0.000000000000000000, 0.000000000000000000, -1.000000000000000000 ) ) ;
#423 = VECTOR ( 'NONE', #844, 1000.000000000000000 ) ;
#424 = EDGE_LOOP ( 'NONE', ( #655, #208, #212, #297 ) ) ;
#425 = DIRECTION ( 'NONE',  ( -1.000000000000000000, 0.000000000000000000, 8.673617379884035472E-17 ) ) ;
#426 = CARTESIAN_POINT ( 'NONE',  ( 1.696202531645564227, 2.834936490554030186, 18.67293732017679986 ) ) ;
#427 = ADVANCED_FACE ( 'NONE', ( #126 ), #696, .T. ) ;
#428 = ORIENTED_EDGE ( 'NONE', *, *, #476, .T. ) ;
#429 = UNCERTAINTY_MEASURE_WITH_UNIT (LENGTH_MEASURE( 1.000000000000000082E-05 ), #527, 'distance_accuracy_value', 'NONE');
#430 = EDGE_CURVE ( 'NONE', #150, #489, #343, .T. ) ;
#431 = AXIS2_PLACEMENT_3D ( 'NONE', #168, #309, #669 ) ;
#432 = ORIENTED_EDGE ( 'NONE', *, *, #156, .F. ) ;
#433 = ADVANCED_FACE ( 'NONE', ( #622 ), #902, .F. ) ;
#434 = FACE_OUTER_BOUND ( 'NONE', #446, .T. ) ;
#435 = APPLICATION_PROTOCOL_DEFINITION ( 'draft international standard', 'automotive_design', 1998, #799 ) ;
#436 = ORIENTED_EDGE ( 'NONE', *, *, #223, .T. ) ;
#437 = VERTEX_POINT ( 'NONE', #906 ) ;
#438 = CARTESIAN_POINT ( 'NONE',  ( -20.30379746835443555, 0.000000000000000000, 8.860759493670881781 ) ) ;
#439 = DIRECTION ( 'NONE',  ( 0.000000000000000000, 0.000000000000000000, 1.000000000000000000 ) ) ;
#440 = CARTESIAN_POINT ( 'NONE',  ( -7.303797468354440880, 5.000000000000000000, -6.139240506329122660 ) ) ;
#441 = DIRECTION ( 'NONE',  ( -1.000000000000000000, 0.000000000000000000, 1.214306433183764966E-16 ) ) ;
#442 = CIRCLE ( 'NONE', #781, 10.00000000000000000 ) ;
#443 = AXIS2_PLACEMENT_3D ( 'NONE', #148, #439, #726 ) ;
#444 = DIRECTION ( 'NONE',  ( 0.000000000000000000, 1.000000000000000000, 0.000000000000000000 ) ) ;
#445 = VECTOR ( 'NONE', #768, 1000.000000000000000 ) ;
#446 = EDGE_LOOP ( 'NONE', ( #845, #317, #220, #468, #771, #234, #473, #744, #477, #191, #160, #908, #200, #619 ) ) ;
#447 = LINE ( 'NONE', #582, #545 ) ;
#448 = DIRECTION ( 'NONE',  ( 0.000000000000000000, 0.000000000000000000, 1.000000000000000000 ) ) ;
#449 = ORIENTED_EDGE ( 'NONE', *, *, #614, .F. ) ;
#450 = DIRECTION ( 'NONE',  ( 0.000000000000000000, 0.000000000000000000, -1.000000000000000000 ) ) ;
#451 = DIRECTION ( 'NONE',  ( 0.000000000000000000, 0.000000000000000000, -1.000000000000000000 ) ) ;
#452 =( LENGTH_UNIT ( ) NAMED_UNIT ( * ) SI_UNIT ( .MILLI., .METRE. ) );
#453 = ORIENTED_EDGE ( 'NONE', *, *, #656, .T. ) ;
#454 = DIRECTION ( 'NONE',  ( 0.000000000000000000, 1.000000000000000000, 0.000000000000000000 ) ) ;
#455 = CLOSED_SHELL ( 'NONE', ( #840, #63, #901, #555, #313, #329, #3, #715, #847, #643, #61, #403, #418, #699, #722, #427, #296, #287, #691, #263, #327, #256, #632, #731, #129, #433 ) ) ;
#456 = LINE ( 'NONE', #154, #621 ) ;
#457 = DIRECTION ( 'NONE',  ( -1.000000000000000000, 0.000000000000000000, 0.000000000000000000 ) ) ;
#458 =( NAMED_UNIT ( * ) SI_UNIT ( $, .STERADIAN. ) SOLID_ANGLE_UNIT ( ) );
#459 = VECTOR ( 'NONE', #355, 1000.000000000000000 ) ;
#460 = CARTESIAN_POINT ( 'NONE',  ( 3.417721518987345330, 10.00000000000000000, -3.417721518987336005 ) ) ;
#461 = EDGE_CURVE ( 'NONE', #831, #379, #602, .T. ) ;
#462 = CARTESIAN_POINT ( 'NONE',  ( -17.30379746835444266, 5.000000000000000000, -1.139240506329124214 ) ) ;
#463 = DIRECTION ( 'NONE',  ( 0.000000000000000000, 0.000000000000000000, 1.000000000000000000 ) ) ;
#464 = CARTESIAN_POINT ( 'NONE',  ( 5.696202531645564449, 7.165063509476238046, 18.67293732017679986 ) ) ;
#465 = DIRECTION ( 'NONE',  ( 0.000000000000000000, 0.000000000000000000, -1.000000000000000000 ) ) ;
#466 = AXIS2_PLACEMENT_3D ( 'NONE', #238, #606, #525 ) ;
#467 = CARTESIAN_POINT ( 'NONE',  ( -7.303797468354440880, 5.000000000000000000, -1.139240506329124214 ) ) ;
#468 = ORIENTED_EDGE ( 'NONE', *, *, #487, .T. ) ;
#469 = ORIENTED_EDGE ( 'NONE', *, *, #751, .F. ) ;
#470 = FACE_OUTER_BOUND ( 'NONE', #822, .T. ) ;
#471 = AXIS2_PLACEMENT_3D ( 'NONE', #58, #549, #274 ) ;
#472 = FACE_OUTER_BOUND ( 'NONE', #195, .T. ) ;
#473 = ORIENTED_EDGE ( 'NONE', *, *, #779, .T. ) ;
#474 = DIRECTION ( 'NONE',  ( 0.000000000000000000, 0.000000000000000000, -1.000000000000000000 ) ) ;
#475 = CARTESIAN_POINT ( 'NONE',  ( -17.30379746835444266, 5.000000000000000000, -26.13924050632912710 ) ) ;
#476 = EDGE_CURVE ( 'NONE', #314, #551, #828, .T. ) ;
#477 = ORIENTED_EDGE ( 'NONE', *, *, #103, .T. ) ;
#478 = DIRECTION ( 'NONE',  ( -1.000000000000000000, 0.000000000000000000, 0.000000000000000000 ) ) ;
#479 = PLANE ( 'NONE',  #247 ) ;
#480 = VECTOR ( 'NONE', #745, 1000.000000000000000 ) ;
#481 = ORIENTED_EDGE ( 'NONE', *, *, #707, .F. ) ;
#482 = VERTEX_POINT ( 'NONE', #553 ) ;
#483 = PRODUCT ( 'WheelRung', 'WheelRung', '', ( #303 ) ) ;
#484 = CARTESIAN_POINT ( 'NONE',  ( 1.696202531645564227, 2.834936490554030186, 18.67293732017679986 ) ) ;
#485 = CIRCLE ( 'NONE', #8, 2.049999999999992717 ) ;
#486 = DIRECTION ( 'NONE',  ( -1.000000000000000000, 0.000000000000000000, 1.214306433183764966E-16 ) ) ;
#487 = EDGE_CURVE ( 'NONE', #415, #130, #345, .T. ) ;
#488 = ORIENTED_EDGE ( 'NONE', *, *, #103, .F. ) ;
#489 = VERTEX_POINT ( 'NONE', #708 ) ;
#490 = EDGE_CURVE ( 'NONE', #222, #668, #62, .T. ) ;
#491 = ORIENTED_EDGE ( 'NONE', *, *, #721, .T. ) ;
#492 =( LENGTH_UNIT ( ) NAMED_UNIT ( * ) SI_UNIT ( .MILLI., .METRE. ) );
#493 = DIRECTION ( 'NONE',  ( 0.7071067811865465735, 0.000000000000000000, 0.7071067811865485719 ) ) ;
#494 = ORIENTED_EDGE ( 'NONE', *, *, #625, .F. ) ;
#495 = STYLED_ITEM ( 'NONE', ( #667 ), #29 ) ;
#496 = CARTESIAN_POINT ( 'NONE',  ( -15.30379746835441779, 11.00000000000002665, -6.139240506329120883 ) ) ;
#497 = CARTESIAN_POINT ( 'NONE',  ( -7.303797468354440880, 5.000000000000000000, -26.13924050632912710 ) ) ;
#498 = AXIS2_PLACEMENT_3D ( 'NONE', #794, #157, #444 ) ;
#499 = ORIENTED_EDGE ( 'NONE', *, *, #375, .F. ) ;
#500 = CARTESIAN_POINT ( 'NONE',  ( 1.696202531645564227, 9.330127018937334427, 14.92293732017680163 ) ) ;
#501 = FACE_OUTER_BOUND ( 'NONE', #720, .T. ) ;
#502 = EDGE_CURVE ( 'NONE', #859, #150, #819, .T. ) ;
#503 = VERTEX_POINT ( 'NONE', #612 ) ;
#504 = DIRECTION ( 'NONE',  ( 0.000000000000000000, -0.4588886766021300079, -0.8884937717769020304 ) ) ;
#505 = ORIENTED_EDGE ( 'NONE', *, *, #577, .T. ) ;
#506 = ORIENTED_EDGE ( 'NONE', *, *, #625, .T. ) ;
#507 = DIRECTION ( 'NONE',  ( -1.000000000000000000, 0.000000000000000000, 0.000000000000000000 ) ) ;
#508 = DIRECTION ( 'NONE',  ( 1.000000000000000000, 0.000000000000000000, 0.000000000000000000 ) ) ;
#509 = VECTOR ( 'NONE', #554, 1000.000000000000000 ) ;
#510 = PLANE ( 'NONE',  #498 ) ;
#511 = ORIENTED_EDGE ( 'NONE', *, *, #89, .F. ) ;
#512 = CARTESIAN_POINT ( 'NONE',  ( 5.696202531645564449, 0.6698729810929401340, 14.92293732017680163 ) ) ;
#513 = ORIENTED_EDGE ( 'NONE', *, *, #461, .F. ) ;
#514 = CARTESIAN_POINT ( 'NONE',  ( 1.356456569489943753, 10.00000000000000000, -5.478986468484742467 ) ) ;
#515 = CARTESIAN_POINT ( 'NONE',  ( 27.69620253164556800, -2.499999999999997780, -6.139240506329127989 ) ) ;
#516 = AXIS2_PLACEMENT_3D ( 'NONE', #366, #289, #5 ) ;
#517 = EDGE_CURVE ( 'NONE', #839, #635, #485, .T. ) ;
#518 = ORIENTED_EDGE ( 'NONE', *, *, #830, .F. ) ;
#519 = VERTEX_POINT ( 'NONE', #319 ) ;
#520 = CARTESIAN_POINT ( 'NONE',  ( -15.96405150619882640, 10.00000000000000000, -1.139240506329124214 ) ) ;
#521 = LINE ( 'NONE', #224, #261 ) ;
#522 = LINE ( 'NONE', #648, #95 ) ;
#523 = ORIENTED_EDGE ( 'NONE', *, *, #430, .T. ) ;
#524 = EDGE_CURVE ( 'NONE', #130, #859, #396, .T. ) ;
#525 = DIRECTION ( 'NONE',  ( 0.000000000000000000, 0.000000000000000000, 1.000000000000000000 ) ) ;
#526 = CARTESIAN_POINT ( 'NONE',  ( 1.696202531645564227, 9.330127018937334427, 14.92293732017680163 ) ) ;
#527 =( LENGTH_UNIT ( ) NAMED_UNIT ( * ) SI_UNIT ( .MILLI., .METRE. ) );
#528 = CARTESIAN_POINT ( 'NONE',  ( 1.696202531645564227, 8.031088913260679973, 12.67293732017680163 ) ) ;
#529 = EDGE_CURVE ( 'NONE', #74, #813, #796, .T. ) ;
#530 = EDGE_CURVE ( 'NONE', #519, #210, #78, .T. ) ;
#531 = LINE ( 'NONE', #515, #647 ) ;
#532 = AXIS2_PLACEMENT_3D ( 'NONE', #846, #573, #855 ) ;
#533 = CIRCLE ( 'NONE', #41, 10.00000000000000000 ) ;
#534 = CARTESIAN_POINT ( 'NONE',  ( 0.000000000000000000, 10.00000000000000000, 0.000000000000000000 ) ) ;
#535 = DIRECTION ( 'NONE',  ( -0.000000000000000000, -0.000000000000000000, 1.000000000000000000 ) ) ;
#536 = VERTEX_POINT ( 'NONE', #105 ) ;
#537 = DIRECTION ( 'NONE',  ( -0.000000000000000000, 0.8660254037844384856, 0.5000000000000004441 ) ) ;
#538 = EDGE_LOOP ( 'NONE', ( #575, #139 ) ) ;
#539 = PRESENTATION_STYLE_ASSIGNMENT (( #407 ) ) ;
#540 = AXIS2_PLACEMENT_3D ( 'NONE', #203, #280, #121 ) ;
#541 = FACE_OUTER_BOUND ( 'NONE', #257, .T. ) ;
#542 = ORIENTED_EDGE ( 'NONE', *, *, #24, .F. ) ;
#543 = ORIENTED_EDGE ( 'NONE', *, *, #133, .T. ) ;
#544 = EDGE_CURVE ( 'NONE', #733, #836, #259, .T. ) ;
#545 = VECTOR ( 'NONE', #86, 1000.000000000000000 ) ;
#546 = DIRECTION ( 'NONE',  ( -1.000000000000000000, 0.000000000000000000, 1.214306433183764966E-16 ) ) ;
#547 = DIRECTION ( 'NONE',  ( 0.000000000000000000, -1.000000000000000000, 0.000000000000000000 ) ) ;
#548 = ORIENTED_EDGE ( 'NONE', *, *, #199, .F. ) ;
#549 = DIRECTION ( 'NONE',  ( 0.000000000000000000, 0.000000000000000000, -1.000000000000000000 ) ) ;
#550 = CARTESIAN_POINT ( 'NONE',  ( 1.156499546965058522, 10.34633572234329790, -5.678943491009627031 ) ) ;
#551 = VERTEX_POINT ( 'NONE', #808 ) ;
#552 = ORIENTED_EDGE ( 'NONE', *, *, #544, .T. ) ;
#553 = CARTESIAN_POINT ( 'NONE',  ( 1.696202531645564227, 1.968911086769600471, 12.67293732017678920 ) ) ;
#554 = DIRECTION ( 'NONE',  ( -1.000000000000000000, 0.000000000000000000, 0.000000000000000000 ) ) ;
#555 = ADVANCED_FACE ( 'NONE', ( #100 ), #679, .T. ) ;
#556 = EDGE_CURVE ( 'NONE', #278, #503, #442, .T. ) ;
#557 = EDGE_LOOP ( 'NONE', ( #93, #491, #870, #743 ) ) ;
#558 = ORIENTED_EDGE ( 'NONE', *, *, #852, .F. ) ;
#559 = CARTESIAN_POINT ( 'NONE',  ( -15.96405150619882640, 0.000000000000000000, -1.139240506329124214 ) ) ;
#560 = VECTOR ( 'NONE', #398, 1000.000000000000000 ) ;
#561 = EDGE_CURVE ( 'NONE', #437, #415, #250, .T. ) ;
#562 = DIRECTION ( 'NONE',  ( -1.000000000000000000, 0.000000000000000000, 0.000000000000000000 ) ) ;
#563 = EDGE_LOOP ( 'NONE', ( #293, #353, #795, #506 ) ) ;
#564 = VECTOR ( 'NONE', #244, 1000.000000000000000 ) ;
#565 = DIRECTION ( 'NONE',  ( 0.000000000000000000, -0.000000000000000000, 1.000000000000000000 ) ) ;
#566 = EDGE_CURVE ( 'NONE', #856, #323, #533, .T. ) ;
#567 = VECTOR ( 'NONE', #712, 1000.000000000000000 ) ;
#568 = ORIENTED_EDGE ( 'NONE', *, *, #627, .F. ) ;
#569 = PLANE ( 'NONE',  #409 ) ;
#570 = ORIENTED_EDGE ( 'NONE', *, *, #214, .F. ) ;
#571 = CARTESIAN_POINT ( 'NONE',  ( 5.696202531645564449, 8.031088913260679973, 12.67293732017680163 ) ) ;
#572 = CARTESIAN_POINT ( 'NONE',  ( 5.696202531645564449, 1.968911086769600471, 12.67293732017678920 ) ) ;
#573 = DIRECTION ( 'NONE',  ( 0.000000000000000000, -0.8660254037844394848, -0.4999999999999986677 ) ) ;
#574 = ORIENTED_EDGE ( 'NONE', *, *, #174, .F. ) ;
#575 = ORIENTED_EDGE ( 'NONE', *, *, #158, .T. ) ;
#576 = DIRECTION ( 'NONE',  ( 0.000000000000000000, 0.000000000000000000, 1.000000000000000000 ) ) ;
#577 = EDGE_CURVE ( 'NONE', #620, #166, #685, .T. ) ;
#578 = DIRECTION ( 'NONE',  ( -1.214306433183764966E-16, -0.000000000000000000, -1.000000000000000000 ) ) ;
#579 = EDGE_LOOP ( 'NONE', ( #19, #57, #875, #262, #568, #642 ) ) ;
#580 = PLANE ( 'NONE',  #213 ) ;
#581 = CYLINDRICAL_SURFACE ( 'NONE', #637, 2.049999999999992717 ) ;
#582 = CARTESIAN_POINT ( 'NONE',  ( 27.69620253164556800, 12.49999999999999645, -6.139240506329126212 ) ) ;
#583 = CARTESIAN_POINT ( 'NONE',  ( 5.696202531645559120, 10.00000000000000000, -41.13924050632912355 ) ) ;
#584 = VECTOR ( 'NONE', #32, 1000.000000000000000 ) ;
#585 = EDGE_CURVE ( 'NONE', #341, #620, #205, .T. ) ;
#586 = EDGE_LOOP ( 'NONE', ( #783, #132, #436, #900 ) ) ;
#587 = LINE ( 'NONE', #675, #216 ) ;
#588 = CARTESIAN_POINT ( 'NONE',  ( -7.303797468354440880, 5.000000000000000000, -28.13924050632912000 ) ) ;
#589 = EDGE_LOOP ( 'NONE', ( #889, #787, #757, #595, #449, #548 ) ) ;
#590 = ORIENTED_EDGE ( 'NONE', *, *, #770, .F. ) ;
#591 = EDGE_CURVE ( 'NONE', #803, #222, #753, .T. ) ;
#592 = CARTESIAN_POINT ( 'NONE',  ( -7.303797468354440880, 5.000000000000000000, -6.139240506329122660 ) ) ;
#593 = APPLICATION_CONTEXT ( 'automotive_design' ) ;
#594 = DIRECTION ( 'NONE',  ( 0.000000000000000000, 0.000000000000000000, -1.000000000000000000 ) ) ;
#595 = ORIENTED_EDGE ( 'NONE', *, *, #334, .F. ) ;
#596 = CIRCLE ( 'NONE', #124, 10.00000000000000000 ) ;
#597 = ORIENTED_EDGE ( 'NONE', *, *, #89, .T. ) ;
#598 = DIRECTION ( 'NONE',  ( -1.000000000000000000, -0.000000000000000000, -0.000000000000000000 ) ) ;
#599 = CARTESIAN_POINT ( 'NONE',  ( 0.6962025316455660029, -0.9999999999999870104, -6.139240506329124436 ) ) ;
#600 = EDGE_CURVE ( 'NONE', #322, #412, #142, .T. ) ;
#601 = DIRECTION ( 'NONE',  ( -1.000000000000000000, 0.000000000000000000, -0.000000000000000000 ) ) ;
#602 = CIRCLE ( 'NONE', #267, 10.00000000000000000 ) ;
#603 = SHAPE_DEFINITION_REPRESENTATION ( #281, #135 ) ;
#604 = ORIENTED_EDGE ( 'NONE', *, *, #298, .F. ) ;
#605 = ORIENTED_EDGE ( 'NONE', *, *, #388, .T. ) ;
#606 = DIRECTION ( 'NONE',  ( -1.000000000000000000, 0.000000000000000000, 0.000000000000000000 ) ) ;
#607 = FACE_OUTER_BOUND ( 'NONE', #563, .T. ) ;
#608 = DIRECTION ( 'NONE',  ( -1.000000000000000000, 0.000000000000000000, 8.673617379884035472E-17 ) ) ;
#609 = CARTESIAN_POINT ( 'NONE',  ( 1.696202531645564227, 10.00000000000000000, 8.860759493670880005 ) ) ;
#610 = ORIENTED_EDGE ( 'NONE', *, *, #357, .F. ) ;
#611 = CARTESIAN_POINT ( 'NONE',  ( -15.96405150619882640, 10.00000000000000000, -5.478986468484715822 ) ) ;
#612 = CARTESIAN_POINT ( 'NONE',  ( -17.30379746835444266, 5.000000000000000000, -28.13924050632912000 ) ) ;
#613 = CARTESIAN_POINT ( 'NONE',  ( -7.303797468354440880, 5.000000000000000000, -26.13924050632912710 ) ) ;
#614 = EDGE_CURVE ( 'NONE', #42, #437, #809, .T. ) ;
#615 = ORIENTED_EDGE ( 'NONE', *, *, #740, .F. ) ;
#616 = LINE ( 'NONE', #324, #833 ) ;
#617 = MECHANICAL_DESIGN_GEOMETRIC_PRESENTATION_REPRESENTATION (  '', ( #495 ), #682 ) ;
#618 = FACE_OUTER_BOUND ( 'NONE', #137, .T. ) ;
#619 = ORIENTED_EDGE ( 'NONE', *, *, #556, .F. ) ;
#620 = VERTEX_POINT ( 'NONE', #857 ) ;
#621 = VECTOR ( 'NONE', #239, 1000.000000000000000 ) ;
#622 = FACE_OUTER_BOUND ( 'NONE', #589, .T. ) ;
#623 = DIRECTION ( 'NONE',  ( -1.000000000000000000, 0.000000000000000000, 0.000000000000000000 ) ) ;
#624 = ORIENTED_EDGE ( 'NONE', *, *, #163, .T. ) ;
#625 = EDGE_CURVE ( 'NONE', #893, #789, #850, .T. ) ;
#626 = CARTESIAN_POINT ( 'NONE',  ( -7.303797468354440880, 5.000000000000000000, -1.139240506329124214 ) ) ;
#627 = EDGE_CURVE ( 'NONE', #519, #130, #152, .T. ) ;
#628 = CARTESIAN_POINT ( 'NONE',  ( -13.91817574601591723, -2.499999999999997780, -26.13924050632912710 ) ) ;
#629 = ORIENTED_EDGE ( 'NONE', *, *, #913, .T. ) ;
#630 = CYLINDRICAL_SURFACE ( 'NONE', #791, 10.00000000000000000 ) ;
#631 = CARTESIAN_POINT ( 'NONE',  ( -15.96405150619882640, 10.00000000000000000, -5.478986468484715822 ) ) ;
#632 = ADVANCED_FACE ( 'NONE', ( #501 ), #360, .F. ) ;
#633 = VECTOR ( 'NONE', #28, 1000.000000000000227 ) ;
#634 =( BOUNDED_CURVE ( )  B_SPLINE_CURVE ( 3, ( #45, #550, #824, #829 ),
 .UNSPECIFIED., .F., .F. ) 
 B_SPLINE_CURVE_WITH_KNOTS ( ( 4, 4 ),
 ( 3.665191429188091821, 3.785093762383076044 ),
 .UNSPECIFIED. ) 
 CURVE ( )  GEOMETRIC_REPRESENTATION_ITEM ( )  RATIONAL_B_SPLINE_CURVE ( ( 1.000000000000000000, 0.9988023113276415232, 0.9988023113276415232, 1.000000000000000000 ) ) 
 REPRESENTATION_ITEM ( '' )  );
#635 = VERTEX_POINT ( 'NONE', #228 ) ;
#636 = CARTESIAN_POINT ( 'NONE',  ( 5.696202531645559120, 0.000000000000000000, -41.13924050632912355 ) ) ;
#637 = AXIS2_PLACEMENT_3D ( 'NONE', #662, #2, #378 ) ;
#638 = DIRECTION ( 'NONE',  ( 0.000000000000000000, -1.000000000000000000, 0.000000000000000000 ) ) ;
#639 =( BOUNDED_CURVE ( )  B_SPLINE_CURVE ( 3, ( #175, #395, #312, #658 ),
 .UNSPECIFIED., .F., .F. ) 
 B_SPLINE_CURVE_WITH_KNOTS ( ( 4, 4 ),
 ( 3.665191429188091821, 3.785093762383080929 ),
 .UNSPECIFIED. ) 
 CURVE ( )  GEOMETRIC_REPRESENTATION_ITEM ( )  RATIONAL_B_SPLINE_CURVE ( ( 1.000000000000000000, 0.9988023113276414122, 0.9988023113276414122, 1.000000000000000000 ) ) 
 REPRESENTATION_ITEM ( '' )  );
#640 = UNCERTAINTY_MEASURE_WITH_UNIT (LENGTH_MEASURE( 1.000000000000000082E-05 ), #492, 'distance_accuracy_value', 'NONE');
#641 = DIRECTION ( 'NONE',  ( 0.000000000000000000, -1.000000000000000000, 0.000000000000000000 ) ) ;
#642 = ORIENTED_EDGE ( 'NONE', *, *, #276, .F. ) ;
#643 = ADVANCED_FACE ( 'NONE', ( #918 ), #782, .F. ) ;
#644 = CARTESIAN_POINT ( 'NONE',  ( 5.696202531645564449, 9.330127018937334427, 14.92293732017680163 ) ) ;
#645 = PLANE ( 'NONE',  #233 ) ;
#646 = CARTESIAN_POINT ( 'NONE',  ( 0.6962025316455660029, 0.000000000000000000, -6.139240506329121772 ) ) ;
#647 = VECTOR ( 'NONE', #441, 1000.000000000000000 ) ;
#648 = CARTESIAN_POINT ( 'NONE',  ( 1.696202531645564227, 7.165063509476238046, 18.67293732017679986 ) ) ;
#649 = VECTOR ( 'NONE', #12, 1000.000000000000000 ) ;
#650 = ORIENTED_EDGE ( 'NONE', *, *, #7, .T. ) ;
#651 = CARTESIAN_POINT ( 'NONE',  ( -15.30379746835441779, -1.000000000000026867, -6.139240506329122660 ) ) ;
#652 = CARTESIAN_POINT ( 'NONE',  ( 1.696202531645564227, 7.165063509476238046, 18.67293732017679986 ) ) ;
#653 = DIRECTION ( 'NONE',  ( 0.000000000000000000, 1.000000000000000000, 0.000000000000000000 ) ) ;
#654 = EDGE_CURVE ( 'NONE', #909, #717, #292, .T. ) ;
#655 = ORIENTED_EDGE ( 'NONE', *, *, #49, .F. ) ;
#656 = EDGE_CURVE ( 'NONE', #482, #322, #77, .T. ) ;
#657 = DIRECTION ( 'NONE',  ( 0.000000000000000000, -0.5000000000000003331, 0.8660254037844383745 ) ) ;
#658 = CARTESIAN_POINT ( 'NONE',  ( -15.30379746835441779, -1.000000000000026867, -6.139240506329122660 ) ) ;
#659 = CARTESIAN_POINT ( 'NONE',  ( 1.356456569489943753, 10.00000000000000000, -1.139240506329124214 ) ) ;
#660 = EDGE_LOOP ( 'NONE', ( #1, #543, #590, #766, #841, #184, #218, #615, #268 ) ) ;
#661 = SURFACE_SIDE_STYLE ('',( #738 ) ) ;
#662 = CARTESIAN_POINT ( 'NONE',  ( 15.69620253164556800, 5.000000000015145218, 14.92293732017679986 ) ) ;
#663 = LINE ( 'NONE', #23, #190 ) ;
#664 = DIRECTION ( 'NONE',  ( 0.000000000000000000, 0.000000000000000000, -1.000000000000000000 ) ) ;
#665 = VECTOR ( 'NONE', #872, 1000.000000000000114 ) ;
#666 = SURFACE_STYLE_FILL_AREA ( #888 ) ;
#667 = PRESENTATION_STYLE_ASSIGNMENT (( #94 ) ) ;
#668 = VERTEX_POINT ( 'NONE', #438 ) ;
#669 = DIRECTION ( 'NONE',  ( 1.040834085586084257E-16, 0.000000000000000000, 1.000000000000000000 ) ) ;
#670 = CARTESIAN_POINT ( 'NONE',  ( -7.303797468354440880, 5.000000000000000000, -28.13924050632912000 ) ) ;
#671 = AXIS2_PLACEMENT_3D ( 'NONE', #823, #177, #871 ) ;
#672 = EDGE_LOOP ( 'NONE', ( #170, #46, #453, #15 ) ) ;
#673 =( NAMED_UNIT ( * ) SI_UNIT ( $, .STERADIAN. ) SOLID_ANGLE_UNIT ( ) );
#674 = DIRECTION ( 'NONE',  ( -1.000000000000000000, 0.000000000000000000, 0.000000000000000000 ) ) ;
#675 = CARTESIAN_POINT ( 'NONE',  ( 5.696202531645564449, 2.834936490554030186, 18.67293732017679986 ) ) ;
#676 = LINE ( 'NONE', #92, #76 ) ;
#677 = EDGE_CURVE ( 'NONE', #836, #789, #21, .T. ) ;
#678 = DIRECTION ( 'NONE',  ( -0.000000000000000000, 1.000000000000000000, -0.000000000000000000 ) ) ;
#679 = PLANE ( 'NONE',  #671 ) ;
#680 = FACE_OUTER_BOUND ( 'NONE', #750, .T. ) ;
#681 = APPLICATION_PROTOCOL_DEFINITION ( 'draft international standard', 'automotive_design', 1998, #593 ) ;
#682 =( GEOMETRIC_REPRESENTATION_CONTEXT ( 3 ) GLOBAL_UNCERTAINTY_ASSIGNED_CONTEXT ( ( #429 ) ) GLOBAL_UNIT_ASSIGNED_CONTEXT ( ( #527, #104, #673 ) ) REPRESENTATION_CONTEXT ( 'NONE', 'WORKASPACE' ) );
#683 = CARTESIAN_POINT ( 'NONE',  ( -15.96405150619882640, 0.000000000000000000, -5.478986468484715822 ) ) ;
#684 = CARTESIAN_POINT ( 'NONE',  ( -15.30379746835441779, 5.000000000000000000, -6.139240506329121772 ) ) ;
#685 = LINE ( 'NONE', #254, #372 ) ;
#686 = VECTOR ( 'NONE', #326, 1000.000000000000000 ) ;
#687 = ORIENTED_EDGE ( 'NONE', *, *, #198, .F. ) ;
#688 = DIRECTION ( 'NONE',  ( 0.000000000000000000, -0.5000000000000004441, 0.8660254037844384856 ) ) ;
#689 = CARTESIAN_POINT ( 'NONE',  ( -15.30379746835441779, 11.00000000000002665, -6.139240506329120883 ) ) ;
#690 = CARTESIAN_POINT ( 'NONE',  ( 27.69620253164556800, 12.49999999999999645, -6.139240506329126212 ) ) ;
#691 = ADVANCED_FACE ( 'NONE', ( #381 ), #581, .F. ) ;
#692 = ORIENTED_EDGE ( 'NONE', *, *, #476, .F. ) ;
#693 = LINE ( 'NONE', #47, #320 ) ;
#694 = CARTESIAN_POINT ( 'NONE',  ( 1.696202531645564227, 0.000000000000000000, 0.000000000000000000 ) ) ;
#695 = ORIENTED_EDGE ( 'NONE', *, *, #913, .F. ) ;
#696 = PLANE ( 'NONE',  #346 ) ;
#697 = AXIS2_PLACEMENT_3D ( 'NONE', #389, #230, #237 ) ;
#698 = PLANE ( 'NONE',  #807 ) ;
#699 = ADVANCED_FACE ( 'NONE', ( #862 ), #569, .T. ) ;
#700 = ORIENTED_EDGE ( 'NONE', *, *, #867, .T. ) ;
#701 = ORIENTED_EDGE ( 'NONE', *, *, #788, .T. ) ;
#702 = VECTOR ( 'NONE', #211, 1000.000000000000000 ) ;
#703 = DIRECTION ( 'NONE',  ( 0.000000000000000000, -0.8660254037844390407, 0.4999999999999992784 ) ) ;
#704 = FACE_BOUND ( 'NONE', #419, .T. ) ;
#705 = ORIENTED_EDGE ( 'NONE', *, *, #461, .T. ) ;
#706 = ORIENTED_EDGE ( 'NONE', *, *, #361, .F. ) ;
#707 = EDGE_CURVE ( 'NONE', #206, #314, #522, .T. ) ;
#708 = CARTESIAN_POINT ( 'NONE',  ( 5.696202531645564449, 10.00000000000000000, -1.139240506329110225 ) ) ;
#709 = PLANE ( 'NONE',  #780 ) ;
#710 = VECTOR ( 'NONE', #758, 1000.000000000000000 ) ;
#711 = EDGE_LOOP ( 'NONE', ( #695, #494, #226, #760 ) ) ;
#712 = DIRECTION ( 'NONE',  ( -1.000000000000000000, -0.000000000000000000, -0.000000000000000000 ) ) ;
#713 = VECTOR ( 'NONE', #299, 1000.000000000000000 ) ;
#714 = CARTESIAN_POINT ( 'NONE',  ( 1.696202531645564227, 9.330127018937334427, 14.92293732017680163 ) ) ;
#715 = ADVANCED_FACE ( 'NONE', ( #149 ), #645, .F. ) ;
#716 = ORIENTED_EDGE ( 'NONE', *, *, #133, .F. ) ;
#717 = VERTEX_POINT ( 'NONE', #800 ) ;
#718 = CARTESIAN_POINT ( 'NONE',  ( 15.69620253164556800, 5.000000000015145218, 16.97293732017679346 ) ) ;
#719 = AXIS2_PLACEMENT_3D ( 'NONE', #36, #321, #601 ) ;
#720 = EDGE_LOOP ( 'NONE', ( #351, #120, #488, #518, #772, #716 ) ) ;
#721 = EDGE_CURVE ( 'NONE', #620, #336, #6, .T. ) ;
#722 = ADVANCED_FACE ( 'NONE', ( #301 ), #232, .T. ) ;
#723 = ORIENTED_EDGE ( 'NONE', *, *, #849, .F. ) ;
#724 = AXIS2_PLACEMENT_3D ( 'NONE', #172, #546, #116 ) ;
#725 = VECTOR ( 'NONE', #209, 1000.000000000000227 ) ;
#726 = DIRECTION ( 'NONE',  ( 1.000000000000000000, 0.000000000000000000, 0.000000000000000000 ) ) ;
#727 = CARTESIAN_POINT ( 'NONE',  ( 1.696202531645564227, 7.165063509476238046, 18.67293732017679986 ) ) ;
#728 = LINE ( 'NONE', #81, #227 ) ;
#729 = CARTESIAN_POINT ( 'NONE',  ( 1.696202531645564227, 8.031088913260679973, 12.67293732017680163 ) ) ;
#730 = ORIENTED_EDGE ( 'NONE', *, *, #812, .T. ) ;
#731 = ADVANCED_FACE ( 'NONE', ( #225 ), #510, .T. ) ;
#732 = DIRECTION ( 'NONE',  ( 0.000000000000000000, 0.000000000000000000, -1.000000000000000000 ) ) ;
#733 = VERTEX_POINT ( 'NONE', #729 ) ;
#734 = ORIENTED_EDGE ( 'NONE', *, *, #223, .F. ) ;
#735 = DIRECTION ( 'NONE',  ( 1.214306433183764966E-16, -1.156482317317871725E-16, 1.000000000000000000 ) ) ;
#736 = CARTESIAN_POINT ( 'NONE',  ( 1.696202531645564227, 0.6698729810929401340, 14.92293732017680163 ) ) ;
#737 = ORIENTED_EDGE ( 'NONE', *, *, #877, .F. ) ;
#738 = SURFACE_STYLE_FILL_AREA ( #810 ) ;
#739 = CARTESIAN_POINT ( 'NONE',  ( -20.30379746835443555, 10.00000000000000000, -1.139240506329117331 ) ) ;
#740 = EDGE_CURVE ( 'NONE', #379, #776, #82, .T. ) ;
#741 = LINE ( 'NONE', #583, #141 ) ;
#742 = VECTOR ( 'NONE', #371, 1000.000000000000000 ) ;
#743 = ORIENTED_EDGE ( 'NONE', *, *, #849, .T. ) ;
#744 = ORIENTED_EDGE ( 'NONE', *, *, #187, .F. ) ;
#745 = DIRECTION ( 'NONE',  ( -0.7071067811865465735, 0.000000000000000000, -0.7071067811865484609 ) ) ;
#746 = ORIENTED_EDGE ( 'NONE', *, *, #199, .T. ) ;
#747 = ORIENTED_EDGE ( 'NONE', *, *, #334, .T. ) ;
#748 = FILL_AREA_STYLE_COLOUR ( '', #112 ) ;
#749 = VECTOR ( 'NONE', #117, 1000.000000000000000 ) ;
#750 = EDGE_LOOP ( 'NONE', ( #905, #65, #119, #723, #60, #756, #797, #283 ) ) ;
#751 = EDGE_CURVE ( 'NONE', #314, #536, #387, .T. ) ;
#752 = DIRECTION ( 'NONE',  ( 0.000000000000000000, 0.000000000000000000, -1.000000000000000000 ) ) ;
#753 = LINE ( 'NONE', #109, #915 ) ;
#754 = CARTESIAN_POINT ( 'NONE',  ( 27.69620253164556800, -2.499999999999997780, -26.13924050632912710 ) ) ;
#755 = CIRCLE ( 'NONE', #358, 10.00000000000000000 ) ;
#756 = ORIENTED_EDGE ( 'NONE', *, *, #627, .T. ) ;
#757 = ORIENTED_EDGE ( 'NONE', *, *, #270, .F. ) ;
#758 = DIRECTION ( 'NONE',  ( -0.000000000000000000, -0.000000000000000000, 1.000000000000000000 ) ) ;
#759 = LINE ( 'NONE', #754, #509 ) ;
#760 = ORIENTED_EDGE ( 'NONE', *, *, #811, .T. ) ;
#761 = CARTESIAN_POINT ( 'NONE',  ( -4.303797468354434663, 0.000000000000000000, 8.860759493670880005 ) ) ;
#762 = CARTESIAN_POINT ( 'NONE',  ( -0.6894191906929649782, -2.499999999999997780, -1.139240506329124214 ) ) ;
#763 = DIRECTION ( 'NONE',  ( -0.000000000000000000, 1.000000000000000000, -0.000000000000000000 ) ) ;
#764 = EDGE_CURVE ( 'NONE', #166, #914, #755, .T. ) ;
#765 = ORIENTED_EDGE ( 'NONE', *, *, #852, .T. ) ;
#766 = ORIENTED_EDGE ( 'NONE', *, *, #348, .T. ) ;
#767 = LINE ( 'NONE', #462, #307 ) ;
#768 = DIRECTION ( 'NONE',  ( 0.000000000000000000, 1.000000000000000000, 0.000000000000000000 ) ) ;
#769 = CARTESIAN_POINT ( 'NONE',  ( -7.303797468354440880, 5.000000000000000000, -1.139240506329124214 ) ) ;
#770 = EDGE_CURVE ( 'NONE', #330, #803, #456, .T. ) ;
#771 = ORIENTED_EDGE ( 'NONE', *, *, #524, .T. ) ;
#772 = ORIENTED_EDGE ( 'NONE', *, *, #591, .F. ) ;
#773 = VECTOR ( 'NONE', #338, 1000.000000000000000 ) ;
#774 = DIRECTION ( 'NONE',  ( 0.000000000000000000, -0.4999999999999992228, -0.8660254037844390407 ) ) ;
#775 = CARTESIAN_POINT ( 'NONE',  ( -4.303797468354434663, 10.00000000000000000, 8.860759493670880005 ) ) ;
#776 = VERTEX_POINT ( 'NONE', #514 ) ;
#777 = VERTEX_POINT ( 'NONE', #382 ) ;
#778 = LINE ( 'NONE', #147, #173 ) ;
#779 = EDGE_CURVE ( 'NONE', #777, #88, #159, .T. ) ;
#780 = AXIS2_PLACEMENT_3D ( 'NONE', #769, #422, #59 ) ;
#781 = AXIS2_PLACEMENT_3D ( 'NONE', #193, #474, #876 ) ;
#782 = PLANE ( 'NONE',  #516 ) ;
#783 = ORIENTED_EDGE ( 'NONE', *, *, #654, .F. ) ;
#784 = DIRECTION ( 'NONE',  ( 0.000000000000000000, 0.4999999999999992228, 0.8660254037844390407 ) ) ;
#785 = DIRECTION ( 'NONE',  ( 0.000000000000000000, 0.4999999999999985567, -0.8660254037844393737 ) ) ;
#786 = EDGE_CURVE ( 'NONE', #893, #206, #91, .T. ) ;
#787 = ORIENTED_EDGE ( 'NONE', *, *, #585, .F. ) ;
#788 = EDGE_CURVE ( 'NONE', #536, #909, #587, .T. ) ;
#789 = VERTEX_POINT ( 'NONE', #236 ) ;
#790 = DIRECTION ( 'NONE',  ( 0.000000000000000000, -0.4588886766021300079, -0.8884937717769020304 ) ) ;
#791 = AXIS2_PLACEMENT_3D ( 'NONE', #910, #186, #43 ) ;
#792 = ORIENTED_EDGE ( 'NONE', *, *, #367, .T. ) ;
#793 = CARTESIAN_POINT ( 'NONE',  ( -20.30379746835443555, 0.000000000000000000, -1.139240506329117331 ) ) ;
#794 = CARTESIAN_POINT ( 'NONE',  ( 0.6962025316455660029, 5.000000000000000000, -6.139240506329121772 ) ) ;
#795 = ORIENTED_EDGE ( 'NONE', *, *, #886, .T. ) ;
#796 = CIRCLE ( 'NONE', #724, 2.049999999999992717 ) ;
#797 = ORIENTED_EDGE ( 'NONE', *, *, #487, .F. ) ;
#798 = LINE ( 'NONE', #161, #713 ) ;
#799 = APPLICATION_CONTEXT ( 'automotive_design' ) ;
#800 = CARTESIAN_POINT ( 'NONE',  ( 5.696202531645564449, 1.968911086769600471, 12.67293732017678920 ) ) ;
#801 = ORIENTED_EDGE ( 'NONE', *, *, #886, .F. ) ;
#802 = ORIENTED_EDGE ( 'NONE', *, *, #298, .T. ) ;
#803 = VERTEX_POINT ( 'NONE', #739 ) ;
#804 = ORIENTED_EDGE ( 'NONE', *, *, #502, .T. ) ;
#805 = DIRECTION ( 'NONE',  ( -1.000000000000000000, 6.245004513516505540E-15, 8.673617379884035472E-17 ) ) ;
#806 = CARTESIAN_POINT ( 'NONE',  ( -10.72151898734174935, 10.00000000000000000, -10.72151898734178133 ) ) ;
#807 = AXIS2_PLACEMENT_3D ( 'NONE', #694, #48, #271 ) ;
#808 = CARTESIAN_POINT ( 'NONE',  ( 1.696202531645564227, 0.6698729810929401340, 14.92293732017680163 ) ) ;
#809 = CIRCLE ( 'NONE', #111, 10.00000000000000000 ) ;
#810 = FILL_AREA_STYLE ('',( #171 ) ) ;
#811 = EDGE_CURVE ( 'NONE', #206, #373, #860, .T. ) ;
#812 = EDGE_CURVE ( 'NONE', #42, #278, #663, .T. ) ;
#813 = VERTEX_POINT ( 'NONE', #853 ) ;
#814 = CARTESIAN_POINT ( 'NONE',  ( 1.696202531645564227, 5.000000000015145218, 14.92293732017679986 ) ) ;
#815 = CARTESIAN_POINT ( 'NONE',  ( 2.696202531645557343, 5.000000000000000888, -28.13924050632912000 ) ) ;
#816 = ORIENTED_EDGE ( 'NONE', *, *, #591, .T. ) ;
#817 = CIRCLE ( 'NONE', #466, 2.049999999999992717 ) ;
#818 = CARTESIAN_POINT ( 'NONE',  ( 5.696202531645564449, 10.00000000000000000, 8.860759493670880005 ) ) ;
#819 = LINE ( 'NONE', #188, #560 ) ;
#820 = FACE_BOUND ( 'NONE', #538, .T. ) ;
#821 = AXIS2_PLACEMENT_3D ( 'NONE', #834, #134, #425 ) ;
#822 = EDGE_LOOP ( 'NONE', ( #746, #730, #432, #832, #420, #505, #335, #792, #13, #705, #20, #306, #881, #700 ) ) ;
#823 = CARTESIAN_POINT ( 'NONE',  ( 27.69620253164556800, -2.499999999999997780, -6.139240506329127989 ) ) ;
#824 = CARTESIAN_POINT ( 'NONE',  ( 0.9361509586754334089, 10.68006876396016303, -5.899292079299252478 ) ) ;
#825 = ORIENTED_EDGE ( 'NONE', *, *, #707, .T. ) ;
#826 = ORIENTED_EDGE ( 'NONE', *, *, #779, .F. ) ;
#827 = CARTESIAN_POINT ( 'NONE',  ( 5.696202531645565337, 5.000000000015145218, 12.87293732017680625 ) ) ;
#828 = LINE ( 'NONE', #484, #294 ) ;
#829 = CARTESIAN_POINT ( 'NONE',  ( 0.6962025316455660029, 10.99999999999998757, -6.139240506329122660 ) ) ;
#830 = EDGE_CURVE ( 'NONE', #222, #52, #798, .T. ) ;
#831 = VERTEX_POINT ( 'NONE', #520 ) ;
#832 = ORIENTED_EDGE ( 'NONE', *, *, #118, .F. ) ;
#833 = VECTOR ( 'NONE', #895, 1000.000000000000000 ) ;
#834 = CARTESIAN_POINT ( 'NONE',  ( -7.303797468354440880, 5.000000000000000000, -6.139240506329122660 ) ) ;
#835 = LINE ( 'NONE', #775, #749 ) ;
#836 = VERTEX_POINT ( 'NONE', #571 ) ;
#837 = ORIENTED_EDGE ( 'NONE', *, *, #84, .T. ) ;
#838 = AXIS2_PLACEMENT_3D ( 'NONE', #73, #493, #641 ) ;
#839 = VERTEX_POINT ( 'NONE', #80 ) ;
#840 = ADVANCED_FACE ( 'NONE', ( #316 ), #866, .F. ) ;
#841 = ORIENTED_EDGE ( 'NONE', *, *, #214, .T. ) ;
#842 = CARTESIAN_POINT ( 'NONE',  ( -0.6894191906929642011, 12.49999999999999645, -1.139240506329124214 ) ) ;
#843 = AXIS2_PLACEMENT_3D ( 'NONE', #305, #101, #448 ) ;
#844 = DIRECTION ( 'NONE',  ( 1.000000000000000000, 0.000000000000000000, 0.000000000000000000 ) ) ;
#845 = ORIENTED_EDGE ( 'NONE', *, *, #812, .F. ) ;
#846 = CARTESIAN_POINT ( 'NONE',  ( 1.696202531645564227, 0.6698729810929401340, 14.92293732017680163 ) ) ;
#847 = ADVANCED_FACE ( 'NONE', ( #868 ), #229, .T. ) ;
#848 = VECTOR ( 'NONE', #638, 1000.000000000000000 ) ;
#849 = EDGE_CURVE ( 'NONE', #210, #166, #447, .T. ) ;
#850 = LINE ( 'NONE', #714, #423 ) ;
#851 = DIRECTION ( 'NONE',  ( 0.000000000000000000, -0.8884937717769021415, 0.4588886766021300634 ) ) ;
#852 = EDGE_CURVE ( 'NONE', #777, #88, #164, .T. ) ;
#853 = CARTESIAN_POINT ( 'NONE',  ( 5.696202531645565337, 5.000000000015145218, 16.97293732017679346 ) ) ;
#854 = CARTESIAN_POINT ( 'NONE',  ( -13.91817574601591723, 12.49999999999999645, -6.139240506329120883 ) ) ;
#855 = DIRECTION ( 'NONE',  ( 0.000000000000000000, 0.4999999999999986677, -0.8660254037844394848 ) ) ;
#856 = VERTEX_POINT ( 'NONE', #651 ) ;
#857 = CARTESIAN_POINT ( 'NONE',  ( -13.91817574601591723, 12.49999999999999645, -26.13924050632912710 ) ) ;
#858 = VECTOR ( 'NONE', #64, 1000.000000000000227 ) ;
#859 = VERTEX_POINT ( 'NONE', #66 ) ;
#860 = LINE ( 'NONE', #727, #584 ) ;
#861 = LINE ( 'NONE', #97, #167 ) ;
#862 = FACE_OUTER_BOUND ( 'NONE', #672, .T. ) ;
#863 = LINE ( 'NONE', #460, #480 ) ;
#864 = AXIS2_PLACEMENT_3D ( 'NONE', #311, #450, #507 ) ;
#865 = MECHANICAL_DESIGN_GEOMETRIC_PRESENTATION_REPRESENTATION (  '', ( #131 ), #284 ) ;
#866 = CYLINDRICAL_SURFACE ( 'NONE', #26, 2.049999999999992717 ) ;
#867 = EDGE_CURVE ( 'NONE', #210, #336, #138, .T. ) ;
#868 = FACE_OUTER_BOUND ( 'NONE', #342, .T. ) ;
#869 = DIRECTION ( 'NONE',  ( -1.000000000000000000, 0.000000000000000000, -0.000000000000000000 ) ) ;
#870 = ORIENTED_EDGE ( 'NONE', *, *, #867, .F. ) ;
#871 = DIRECTION ( 'NONE',  ( 0.000000000000000000, -0.000000000000000000, 1.000000000000000000 ) ) ;
#872 = DIRECTION ( 'NONE',  ( 0.000000000000000000, -0.4588886766021300079, -0.8884937717769020304 ) ) ;
#873 = AXIS2_PLACEMENT_3D ( 'NONE', #252, #537, #688 ) ;
#874 = VECTOR ( 'NONE', #763, 1000.000000000000000 ) ;
#875 = ORIENTED_EDGE ( 'NONE', *, *, #502, .F. ) ;
#876 = DIRECTION ( 'NONE',  ( -1.000000000000000000, 0.000000000000000000, 0.000000000000000000 ) ) ;
#877 = EDGE_CURVE ( 'NONE', #412, #150, #363, .T. ) ;
#878 = EDGE_CURVE ( 'NONE', #813, #635, #217, .T. ) ;
#879 = VECTOR ( 'NONE', #790, 1000.000000000000114 ) ;
#880 = FACE_OUTER_BOUND ( 'NONE', #123, .T. ) ;
#881 = ORIENTED_EDGE ( 'NONE', *, *, #530, .T. ) ;
#882 = PLANE ( 'NONE',  #873 ) ;
#883 = CARTESIAN_POINT ( 'NONE',  ( -15.54374589538429596, 10.68006876396019322, -5.899292079299244485 ) ) ;
#884 = CARTESIAN_POINT ( 'NONE',  ( -20.30379746835443910, 0.000000000000000000, -41.13924050632912355 ) ) ;
#885 = CARTESIAN_POINT ( 'NONE',  ( 0.000000000000000000, 10.00000000000000000, -1.139240506329124214 ) ) ;
#886 = EDGE_CURVE ( 'NONE', #733, #893, #778, .T. ) ;
#887 = VERTEX_POINT ( 'NONE', #290 ) ;
#888 = FILL_AREA_STYLE ('',( #748 ) ) ;
#889 = ORIENTED_EDGE ( 'NONE', *, *, #721, .F. ) ;
#890 = LINE ( 'NONE', #818, #151 ) ;
#891 = CARTESIAN_POINT ( 'NONE',  ( -7.303797468354440880, 5.000000000000000000, -6.139240506329122660 ) ) ;
#892 = FACE_OUTER_BOUND ( 'NONE', #215, .T. ) ;
#893 = VERTEX_POINT ( 'NONE', #500 ) ;
#894 = CIRCLE ( 'NONE', #843, 2.049999999999992717 ) ;
#895 = DIRECTION ( 'NONE',  ( 0.000000000000000000, -1.000000000000000000, 0.000000000000000000 ) ) ;
#896 = DIRECTION ( 'NONE',  ( -1.000000000000000000, 0.000000000000000000, 0.000000000000000000 ) ) ;
#897 = DIRECTION ( 'NONE',  ( -1.000000000000000000, 0.000000000000000000, 0.000000000000000000 ) ) ;
#898 = VECTOR ( 'NONE', #85, 1000.000000000000227 ) ;
#899 = ORIENTED_EDGE ( 'NONE', *, *, #187, .T. ) ;
#900 = ORIENTED_EDGE ( 'NONE', *, *, #246, .T. ) ;
#901 = ADVANCED_FACE ( 'NONE', ( #434 ), #285, .T. ) ;
#902 = PLANE ( 'NONE',  #471 ) ;
#903 = LINE ( 'NONE', #255, #858 ) ;
#904 = ORIENTED_EDGE ( 'NONE', *, *, #529, .F. ) ;
#905 = ORIENTED_EDGE ( 'NONE', *, *, #566, .F. ) ;
#906 = CARTESIAN_POINT ( 'NONE',  ( -0.6894191906929649782, -2.499999999999997780, -26.13924050632912710 ) ) ;
#907 = DIRECTION ( 'NONE',  ( -1.000000000000000000, 0.000000000000000000, -0.000000000000000000 ) ) ;
#908 = ORIENTED_EDGE ( 'NONE', *, *, #270, .T. ) ;
#909 = VERTEX_POINT ( 'NONE', #368 ) ;
#910 = CARTESIAN_POINT ( 'NONE',  ( -7.303797468354440880, 5.000000000000000000, -1.139240506329124214 ) ) ;
#911 = AXIS2_PLACEMENT_3D ( 'NONE', #588, #11, #869 ) ;
#912 = CARTESIAN_POINT ( 'NONE',  ( -0.6894191906929649782, -2.499999999999997780, -6.139240506329124436 ) ) ;
#913 = EDGE_CURVE ( 'NONE', #789, #373, #288, .T. ) ;
#914 = VERTEX_POINT ( 'NONE', #496 ) ;
#915 = VECTOR ( 'NONE', #356, 1000.000000000000000 ) ;
#916 = EDGE_LOOP ( 'NONE', ( #10, #347 ) ) ;
#917 =( NAMED_UNIT ( * ) SI_UNIT ( $, .STERADIAN. ) SOLID_ANGLE_UNIT ( ) );
#918 = FACE_OUTER_BOUND ( 'NONE', #374, .T. ) ;
ENDSEC;
END-ISO-10303-21;
